<?xml version="1.0" standalone="yes"?>

<svg version="1.1" viewBox="0.0 0.0 960.0 720.0" fill="none" stroke="none" stroke-linecap="square" stroke-miterlimit="10" xmlns="http://www.w3.org/2000/svg" xmlns:xlink="http://www.w3.org/1999/xlink"><clipPath id="p.0"><path d="m0 0l960.0 0l0 720.0l-960.0 0l0 -720.0z" clip-rule="nonzero"></path></clipPath><g clip-path="url(#p.0)"><path fill="#000000" fill-opacity="0.0" d="m0 0l960.0 0l0 720.0l-960.0 0z" fill-rule="nonzero"></path><path fill="#cfe2f3" d="m468.1299 251.1811l46.13388 0l0 47.29921l-46.13388 0z" fill-rule="nonzero"></path><path fill="#a5b4c2" d="m514.2638 251.1811l15.37793 -15.37796l0 47.29921l-15.37793 15.37796z" fill-rule="nonzero"></path><path fill="#d8e7f5" d="m468.1299 251.1811l15.37796 -15.37796l46.13385 0l-15.37793 15.37796z" fill-rule="nonzero"></path><path fill="#000000" fill-opacity="0.0" d="m468.1299 251.1811l15.37796 -15.37796l46.13385 0l0 47.29921l-15.37793 15.37796l-46.13388 0zm0 0l46.13388 0l15.37793 -15.37796m-15.37793 15.37796l0 47.29921" fill-rule="nonzero"></path><path stroke="#000000" stroke-width="2.0" stroke-linejoin="round" stroke-linecap="butt" d="m468.1299 251.1811l15.37796 -15.37796l46.13385 0l0 47.29921l-15.37793 15.37796l-46.13388 0zm0 0l46.13388 0l15.37793 -15.37796m-15.37793 15.37796l0 47.29921" fill-rule="nonzero"></path><path fill="#cfe2f3" d="m513.9409 251.1811l46.13391 0l0 47.29921l-46.13391 0z" fill-rule="nonzero"></path><path fill="#a5b4c2" d="m560.0748 251.1811l15.37793 -15.37796l0 47.29921l-15.37793 15.37796z" fill-rule="nonzero"></path><path fill="#d8e7f5" d="m513.9409 251.1811l15.377991 -15.37796l46.13385 0l-15.37793 15.37796z" fill-rule="nonzero"></path><path fill="#000000" fill-opacity="0.0" d="m513.9409 251.1811l15.377991 -15.37796l46.13385 0l0 47.29921l-15.37793 15.37796l-46.13391 0zm0 0l46.13391 0l15.37793 -15.37796m-15.37793 15.37796l0 47.29921" fill-rule="nonzero"></path><path stroke="#000000" stroke-width="2.0" stroke-linejoin="round" stroke-linecap="butt" d="m513.9409 251.1811l15.377991 -15.37796l46.13385 0l0 47.29921l-15.37793 15.37796l-46.13391 0zm0 0l46.13391 0l15.37793 -15.37796m-15.37793 15.37796l0 47.29921" fill-rule="nonzero"></path><path fill="#cfe2f3" d="m453.3084 265.72964l46.13385 0l0 47.299225l-46.13385 0z" fill-rule="nonzero"></path><path fill="#a5b4c2" d="m499.44226 265.72964l15.37793 -15.377945l0 47.29921l-15.37793 15.37796z" fill-rule="nonzero"></path><path fill="#d8e7f5" d="m453.3084 265.72964l15.37793 -15.377945l46.13385 0l-15.37793 15.377945z" fill-rule="nonzero"></path><path fill="#000000" fill-opacity="0.0" d="m453.3084 265.72964l15.37793 -15.377945l46.13385 0l0 47.29921l-15.37793 15.37796l-46.13385 0zm0 0l46.13385 0l15.37793 -15.377945m-15.37793 15.377945l0 47.299225" fill-rule="nonzero"></path><path stroke="#000000" stroke-width="2.0" stroke-linejoin="round" stroke-linecap="butt" d="m453.3084 265.72964l15.37793 -15.377945l46.13385 0l0 47.29921l-15.37793 15.37796l-46.13385 0zm0 0l46.13385 0l15.37793 -15.377945m-15.37793 15.377945l0 47.299225" fill-rule="nonzero"></path><path fill="#cfe2f3" d="m499.58398 265.72964l46.13385 0l0 47.299225l-46.13385 0z" fill-rule="nonzero"></path><path fill="#a5b4c2" d="m545.71783 265.72964l15.377991 -15.377945l0 47.29921l-15.377991 15.37796z" fill-rule="nonzero"></path><path fill="#d8e7f5" d="m499.58398 265.72964l15.37793 -15.377945l46.13391 0l-15.377991 15.377945z" fill-rule="nonzero"></path><path fill="#000000" fill-opacity="0.0" d="m499.58398 265.72964l15.37793 -15.377945l46.13391 0l0 47.29921l-15.377991 15.37796l-46.13385 0zm0 0l46.13385 0l15.377991 -15.377945m-15.377991 15.377945l0 47.299225" fill-rule="nonzero"></path><path stroke="#000000" stroke-width="2.0" stroke-linejoin="round" stroke-linecap="butt" d="m499.58398 265.72964l15.37793 -15.377945l46.13391 0l0 47.29921l-15.377991 15.37796l-46.13385 0zm0 0l46.13385 0l15.377991 -15.377945m-15.377991 15.377945l0 47.299225" fill-rule="nonzero"></path><path fill="#cfe2f3" d="m559.64435 251.1811l46.13385 0l0 47.29921l-46.13385 0z" fill-rule="nonzero"></path><path fill="#a5b4c2" d="m605.7782 251.1811l15.377991 -15.37796l0 47.29921l-15.377991 15.37796z" fill-rule="nonzero"></path><path fill="#d8e7f5" d="m559.64435 251.1811l15.377991 -15.37796l46.13385 0l-15.377991 15.37796z" fill-rule="nonzero"></path><path fill="#000000" fill-opacity="0.0" d="m559.64435 251.1811l15.377991 -15.37796l46.13385 0l0 47.29921l-15.377991 15.37796l-46.13385 0zm0 0l46.13385 0l15.377991 -15.37796m-15.377991 15.37796l0 47.29921" fill-rule="nonzero"></path><path stroke="#000000" stroke-width="2.0" stroke-linejoin="round" stroke-linecap="butt" d="m559.64435 251.1811l15.377991 -15.37796l46.13385 0l0 47.29921l-15.377991 15.37796l-46.13385 0zm0 0l46.13385 0l15.377991 -15.37796m-15.377991 15.37796l0 47.29921" fill-rule="nonzero"></path><path fill="#cfe2f3" d="m545.8727 265.72964l46.13391 0l0 47.299225l-46.13391 0z" fill-rule="nonzero"></path><path fill="#a5b4c2" d="m592.0066 265.72964l15.37793 -15.377945l0 47.29921l-15.37793 15.37796z" fill-rule="nonzero"></path><path fill="#d8e7f5" d="m545.8727 265.72964l15.377991 -15.377945l46.13385 0l-15.37793 15.377945z" fill-rule="nonzero"></path><path fill="#000000" fill-opacity="0.0" d="m545.8727 265.72964l15.377991 -15.377945l46.13385 0l0 47.29921l-15.37793 15.37796l-46.13391 0zm0 0l46.13391 0l15.37793 -15.377945m-15.37793 15.377945l0 47.299225" fill-rule="nonzero"></path><path stroke="#000000" stroke-width="2.0" stroke-linejoin="round" stroke-linecap="butt" d="m545.8727 265.72964l15.377991 -15.377945l46.13385 0l0 47.29921l-15.37793 15.37796l-46.13391 0zm0 0l46.13391 0l15.37793 -15.377945m-15.37793 15.377945l0 47.299225" fill-rule="nonzero"></path><path fill="#cfe2f3" d="m438.07217 280.85828l46.13385 0l0 47.299194l-46.13385 0z" fill-rule="nonzero"></path><path fill="#a5b4c2" d="m484.20602 280.85828l15.37796 -15.37796l0 47.299225l-15.37796 15.37793z" fill-rule="nonzero"></path><path fill="#d8e7f5" d="m438.07217 280.85828l15.37796 -15.37796l46.13385 0l-15.37796 15.37796z" fill-rule="nonzero"></path><path fill="#000000" fill-opacity="0.0" d="m438.07217 280.85828l15.37796 -15.37796l46.13385 0l0 47.299225l-15.37796 15.37793l-46.13385 0zm0 0l46.13385 0l15.37796 -15.37796m-15.37796 15.37796l0 47.299194" fill-rule="nonzero"></path><path stroke="#000000" stroke-width="2.0" stroke-linejoin="round" stroke-linecap="butt" d="m438.07217 280.85828l15.37796 -15.37796l46.13385 0l0 47.299225l-15.37796 15.37793l-46.13385 0zm0 0l46.13385 0l15.37796 -15.37796m-15.37796 15.37796l0 47.299194" fill-rule="nonzero"></path><path fill="#cfe2f3" d="m484.3609 280.85828l46.13385 0l0 47.299194l-46.13385 0z" fill-rule="nonzero"></path><path fill="#a5b4c2" d="m530.49475 280.85828l15.37793 -15.37796l0 47.299225l-15.37793 15.37793z" fill-rule="nonzero"></path><path fill="#d8e7f5" d="m484.3609 280.85828l15.37793 -15.37796l46.13385 0l-15.37793 15.37796z" fill-rule="nonzero"></path><path fill="#000000" fill-opacity="0.0" d="m484.3609 280.85828l15.37793 -15.37796l46.13385 0l0 47.299225l-15.37793 15.37793l-46.13385 0zm0 0l46.13385 0l15.37793 -15.37796m-15.37793 15.37796l0 47.299194" fill-rule="nonzero"></path><path stroke="#000000" stroke-width="2.0" stroke-linejoin="round" stroke-linecap="butt" d="m484.3609 280.85828l15.37793 -15.37796l46.13385 0l0 47.299225l-15.37793 15.37793l-46.13385 0zm0 0l46.13385 0l15.37793 -15.37796m-15.37793 15.37796l0 47.299194" fill-rule="nonzero"></path><path fill="#cfe2f3" d="m530.6575 280.85828l46.13385 0l0 47.299194l-46.13385 0z" fill-rule="nonzero"></path><path fill="#a5b4c2" d="m576.7913 280.85828l15.377991 -15.37796l0 47.299225l-15.377991 15.37793z" fill-rule="nonzero"></path><path fill="#d8e7f5" d="m530.6575 280.85828l15.377991 -15.37796l46.13385 0l-15.377991 15.37796z" fill-rule="nonzero"></path><path fill="#000000" fill-opacity="0.0" d="m530.6575 280.85828l15.377991 -15.37796l46.13385 0l0 47.299225l-15.377991 15.37793l-46.13385 0zm0 0l46.13385 0l15.377991 -15.37796m-15.377991 15.37796l0 47.299194" fill-rule="nonzero"></path><path stroke="#000000" stroke-width="2.0" stroke-linejoin="round" stroke-linecap="butt" d="m530.6575 280.85828l15.377991 -15.37796l46.13385 0l0 47.299225l-15.377991 15.37793l-46.13385 0zm0 0l46.13385 0l15.377991 -15.37796m-15.377991 15.37796l0 47.299194" fill-rule="nonzero"></path><path fill="#cfe2f3" d="m422.8491 295.98688l46.13385 0l0 47.299225l-46.13385 0z" fill-rule="nonzero"></path><path fill="#a5b4c2" d="m468.98294 295.98688l15.37796 -15.37796l0 47.299225l-15.37796 15.37796z" fill-rule="nonzero"></path><path fill="#d8e7f5" d="m422.8491 295.98688l15.37793 -15.37796l46.13388 0l-15.37796 15.37796z" fill-rule="nonzero"></path><path fill="#000000" fill-opacity="0.0" d="m422.8491 295.98688l15.37793 -15.37796l46.13388 0l0 47.299225l-15.37796 15.37796l-46.13385 0zm0 0l46.13385 0l15.37796 -15.37796m-15.37796 15.37796l0 47.299225" fill-rule="nonzero"></path><path stroke="#000000" stroke-width="2.0" stroke-linejoin="round" stroke-linecap="butt" d="m422.8491 295.98688l15.37793 -15.37796l46.13388 0l0 47.299225l-15.37796 15.37796l-46.13385 0zm0 0l46.13385 0l15.37796 -15.37796m-15.37796 15.37796l0 47.299225" fill-rule="nonzero"></path><path fill="#cfe2f3" d="m469.14566 295.98688l46.13388 0l0 47.299225l-46.13388 0z" fill-rule="nonzero"></path><path fill="#a5b4c2" d="m515.27954 295.98688l15.37793 -15.37796l0 47.299225l-15.37793 15.37796z" fill-rule="nonzero"></path><path fill="#d8e7f5" d="m469.14566 295.98688l15.37796 -15.37796l46.13385 0l-15.37793 15.37796z" fill-rule="nonzero"></path><path fill="#000000" fill-opacity="0.0" d="m469.14566 295.98688l15.37796 -15.37796l46.13385 0l0 47.299225l-15.37793 15.37796l-46.13388 0zm0 0l46.13388 0l15.37793 -15.37796m-15.37793 15.37796l0 47.299225" fill-rule="nonzero"></path><path stroke="#000000" stroke-width="2.0" stroke-linejoin="round" stroke-linecap="butt" d="m469.14566 295.98688l15.37796 -15.37796l46.13385 0l0 47.299225l-15.37793 15.37796l-46.13388 0zm0 0l46.13388 0l15.37793 -15.37796m-15.37793 15.37796l0 47.299225" fill-rule="nonzero"></path><path fill="#cfe2f3" d="m515.68896 295.98688l46.13385 0l0 47.299225l-46.13385 0z" fill-rule="nonzero"></path><path fill="#a5b4c2" d="m561.8228 295.98688l15.377991 -15.37796l0 47.299225l-15.377991 15.37796z" fill-rule="nonzero"></path><path fill="#d8e7f5" d="m515.68896 295.98688l15.377991 -15.37796l46.13385 0l-15.377991 15.37796z" fill-rule="nonzero"></path><path fill="#000000" fill-opacity="0.0" d="m515.68896 295.98688l15.377991 -15.37796l46.13385 0l0 47.299225l-15.377991 15.37796l-46.13385 0zm0 0l46.13385 0l15.377991 -15.37796m-15.377991 15.37796l0 47.299225" fill-rule="nonzero"></path><path stroke="#000000" stroke-width="2.0" stroke-linejoin="round" stroke-linecap="butt" d="m515.68896 295.98688l15.377991 -15.37796l46.13385 0l0 47.299225l-15.377991 15.37796l-46.13385 0zm0 0l46.13385 0l15.377991 -15.37796m-15.377991 15.37796l0 47.299225" fill-rule="nonzero"></path><path fill="#cfe2f3" d="m605.03284 251.1811l46.13385 0l0 47.29921l-46.13385 0z" fill-rule="nonzero"></path><path fill="#a5b4c2" d="m651.1667 251.1811l15.37793 -15.37796l0 47.29921l-15.37793 15.37796z" fill-rule="nonzero"></path><path fill="#d8e7f5" d="m605.03284 251.1811l15.37793 -15.37796l46.13385 0l-15.37793 15.37796z" fill-rule="nonzero"></path><path fill="#000000" fill-opacity="0.0" d="m605.03284 251.1811l15.37793 -15.37796l46.13385 0l0 47.29921l-15.37793 15.37796l-46.13385 0zm0 0l46.13385 0l15.37793 -15.37796m-15.37793 15.37796l0 47.29921" fill-rule="nonzero"></path><path stroke="#000000" stroke-width="2.0" stroke-linejoin="round" stroke-linecap="butt" d="m605.03284 251.1811l15.37793 -15.37796l46.13385 0l0 47.29921l-15.37793 15.37796l-46.13385 0zm0 0l46.13385 0l15.37793 -15.37796m-15.37793 15.37796l0 47.29921" fill-rule="nonzero"></path><path fill="#cfe2f3" d="m590.71655 265.72964l46.13385 0l0 47.299225l-46.13385 0z" fill-rule="nonzero"></path><path fill="#a5b4c2" d="m636.8504 265.72964l15.37793 -15.377945l0 47.29921l-15.37793 15.37796z" fill-rule="nonzero"></path><path fill="#d8e7f5" d="m590.71655 265.72964l15.37793 -15.377945l46.13385 0l-15.37793 15.377945z" fill-rule="nonzero"></path><path fill="#000000" fill-opacity="0.0" d="m590.71655 265.72964l15.37793 -15.377945l46.13385 0l0 47.29921l-15.37793 15.37796l-46.13385 0zm0 0l46.13385 0l15.37793 -15.377945m-15.37793 15.377945l0 47.299225" fill-rule="nonzero"></path><path stroke="#000000" stroke-width="2.0" stroke-linejoin="round" stroke-linecap="butt" d="m590.71655 265.72964l15.37793 -15.377945l46.13385 0l0 47.29921l-15.37793 15.37796l-46.13385 0zm0 0l46.13385 0l15.37793 -15.377945m-15.37793 15.377945l0 47.299225" fill-rule="nonzero"></path><path fill="#cfe2f3" d="m576.3189 280.85828l46.13385 0l0 47.299194l-46.13385 0z" fill-rule="nonzero"></path><path fill="#a5b4c2" d="m622.45276 280.85828l15.37793 -15.37796l0 47.299225l-15.37793 15.37793z" fill-rule="nonzero"></path><path fill="#d8e7f5" d="m576.3189 280.85828l15.37793 -15.37796l46.13385 0l-15.37793 15.37796z" fill-rule="nonzero"></path><path fill="#000000" fill-opacity="0.0" d="m576.3189 280.85828l15.37793 -15.37796l46.13385 0l0 47.299225l-15.37793 15.37793l-46.13385 0zm0 0l46.13385 0l15.37793 -15.37796m-15.37793 15.37796l0 47.299194" fill-rule="nonzero"></path><path stroke="#000000" stroke-width="2.0" stroke-linejoin="round" stroke-linecap="butt" d="m576.3189 280.85828l15.37793 -15.37796l46.13385 0l0 47.299225l-15.37793 15.37793l-46.13385 0zm0 0l46.13385 0l15.37793 -15.37796m-15.37793 15.37796l0 47.299194" fill-rule="nonzero"></path><path fill="#cfe2f3" d="m561.69684 295.98688l46.13385 0l0 47.299225l-46.13385 0z" fill-rule="nonzero"></path><path fill="#a5b4c2" d="m607.8307 295.98688l15.377991 -15.37796l0 47.299225l-15.377991 15.37796z" fill-rule="nonzero"></path><path fill="#d8e7f5" d="m561.69684 295.98688l15.377991 -15.37796l46.13385 0l-15.377991 15.37796z" fill-rule="nonzero"></path><path fill="#000000" fill-opacity="0.0" d="m561.69684 295.98688l15.377991 -15.37796l46.13385 0l0 47.299225l-15.377991 15.37796l-46.13385 0zm0 0l46.13385 0l15.377991 -15.37796m-15.377991 15.37796l0 47.299225" fill-rule="nonzero"></path><path stroke="#000000" stroke-width="2.0" stroke-linejoin="round" stroke-linecap="butt" d="m561.69684 295.98688l15.377991 -15.37796l46.13385 0l0 47.299225l-15.377991 15.37796l-46.13385 0zm0 0l46.13385 0l15.377991 -15.37796m-15.377991 15.37796l0 47.299225" fill-rule="nonzero"></path><path fill="#cfe2f3" d="m452.90683 219.13911l46.13385 0l0 47.29921l-46.13385 0z" fill-rule="nonzero"></path><path fill="#a5b4c2" d="m499.04068 219.13911l15.37796 -15.37796l0 47.29921l-15.37796 15.37796z" fill-rule="nonzero"></path><path fill="#d8e7f5" d="m452.90683 219.13911l15.37796 -15.37796l46.13385 0l-15.37796 15.37796z" fill-rule="nonzero"></path><path fill="#000000" fill-opacity="0.0" d="m452.90683 219.13911l15.37796 -15.37796l46.13385 0l0 47.29921l-15.37796 15.37796l-46.13385 0zm0 0l46.13385 0l15.37796 -15.37796m-15.37796 15.37796l0 47.29921" fill-rule="nonzero"></path><path stroke="#000000" stroke-width="2.0" stroke-linejoin="round" stroke-linecap="butt" d="m452.90683 219.13911l15.37796 -15.37796l46.13385 0l0 47.29921l-15.37796 15.37796l-46.13385 0zm0 0l46.13385 0l15.37796 -15.37796m-15.37796 15.37796l0 47.29921" fill-rule="nonzero"></path><path fill="#cfe2f3" d="m498.71783 219.13911l46.13385 0l0 47.29921l-46.13385 0z" fill-rule="nonzero"></path><path fill="#a5b4c2" d="m544.8517 219.13911l15.377991 -15.37796l0 47.29921l-15.377991 15.37796z" fill-rule="nonzero"></path><path fill="#d8e7f5" d="m498.71783 219.13911l15.377991 -15.37796l46.13385 0l-15.377991 15.37796z" fill-rule="nonzero"></path><path fill="#000000" fill-opacity="0.0" d="m498.71783 219.13911l15.377991 -15.37796l46.13385 0l0 47.29921l-15.377991 15.37796l-46.13385 0zm0 0l46.13385 0l15.377991 -15.37796m-15.377991 15.37796l0 47.29921" fill-rule="nonzero"></path><path stroke="#000000" stroke-width="2.0" stroke-linejoin="round" stroke-linecap="butt" d="m498.71783 219.13911l15.377991 -15.37796l46.13385 0l0 47.29921l-15.377991 15.37796l-46.13385 0zm0 0l46.13385 0l15.377991 -15.37796m-15.377991 15.37796l0 47.29921" fill-rule="nonzero"></path><path fill="#cfe2f3" d="m438.0853 233.68767l46.13385 0l0 47.29921l-46.13385 0z" fill-rule="nonzero"></path><path fill="#a5b4c2" d="m484.21915 233.68767l15.37796 -15.37796l0 47.29921l-15.37796 15.37796z" fill-rule="nonzero"></path><path fill="#d8e7f5" d="m438.0853 233.68767l15.37796 -15.37796l46.13385 0l-15.37796 15.37796z" fill-rule="nonzero"></path><path fill="#000000" fill-opacity="0.0" d="m438.0853 233.68767l15.37796 -15.37796l46.13385 0l0 47.29921l-15.37796 15.37796l-46.13385 0zm0 0l46.13385 0l15.37796 -15.37796m-15.37796 15.37796l0 47.29921" fill-rule="nonzero"></path><path stroke="#000000" stroke-width="2.0" stroke-linejoin="round" stroke-linecap="butt" d="m438.0853 233.68767l15.37796 -15.37796l46.13385 0l0 47.29921l-15.37796 15.37796l-46.13385 0zm0 0l46.13385 0l15.37796 -15.37796m-15.37796 15.37796l0 47.29921" fill-rule="nonzero"></path><path fill="#cfe2f3" d="m484.3609 233.68767l46.13385 0l0 47.29921l-46.13385 0z" fill-rule="nonzero"></path><path fill="#a5b4c2" d="m530.49475 233.68767l15.37793 -15.37796l0 47.29921l-15.37793 15.37796z" fill-rule="nonzero"></path><path fill="#d8e7f5" d="m484.3609 233.68767l15.37793 -15.37796l46.13385 0l-15.37793 15.37796z" fill-rule="nonzero"></path><path fill="#000000" fill-opacity="0.0" d="m484.3609 233.68767l15.37793 -15.37796l46.13385 0l0 47.29921l-15.37793 15.37796l-46.13385 0zm0 0l46.13385 0l15.37793 -15.37796m-15.37793 15.37796l0 47.29921" fill-rule="nonzero"></path><path stroke="#000000" stroke-width="2.0" stroke-linejoin="round" stroke-linecap="butt" d="m484.3609 233.68767l15.37793 -15.37796l46.13385 0l0 47.29921l-15.37793 15.37796l-46.13385 0zm0 0l46.13385 0l15.37793 -15.37796m-15.37793 15.37796l0 47.29921" fill-rule="nonzero"></path><path fill="#cfe2f3" d="m544.42126 219.13911l46.13385 0l0 47.29921l-46.13385 0z" fill-rule="nonzero"></path><path fill="#a5b4c2" d="m590.5551 219.13911l15.37793 -15.37796l0 47.29921l-15.37793 15.37796z" fill-rule="nonzero"></path><path fill="#d8e7f5" d="m544.42126 219.13911l15.37793 -15.37796l46.13385 0l-15.37793 15.37796z" fill-rule="nonzero"></path><path fill="#000000" fill-opacity="0.0" d="m544.42126 219.13911l15.37793 -15.37796l46.13385 0l0 47.29921l-15.37793 15.37796l-46.13385 0zm0 0l46.13385 0l15.37793 -15.37796m-15.37793 15.37796l0 47.29921" fill-rule="nonzero"></path><path stroke="#000000" stroke-width="2.0" stroke-linejoin="round" stroke-linecap="butt" d="m544.42126 219.13911l15.37793 -15.37796l46.13385 0l0 47.29921l-15.37793 15.37796l-46.13385 0zm0 0l46.13385 0l15.37793 -15.37796m-15.37793 15.37796l0 47.29921" fill-rule="nonzero"></path><path fill="#cfe2f3" d="m530.6496 233.68767l46.13385 0l0 47.29921l-46.13385 0z" fill-rule="nonzero"></path><path fill="#a5b4c2" d="m576.78345 233.68767l15.377991 -15.37796l0 47.29921l-15.377991 15.37796z" fill-rule="nonzero"></path><path fill="#d8e7f5" d="m530.6496 233.68767l15.377991 -15.37796l46.13385 0l-15.377991 15.37796z" fill-rule="nonzero"></path><path fill="#000000" fill-opacity="0.0" d="m530.6496 233.68767l15.377991 -15.37796l46.13385 0l0 47.29921l-15.377991 15.37796l-46.13385 0zm0 0l46.13385 0l15.377991 -15.37796m-15.377991 15.37796l0 47.29921" fill-rule="nonzero"></path><path stroke="#000000" stroke-width="2.0" stroke-linejoin="round" stroke-linecap="butt" d="m530.6496 233.68767l15.377991 -15.37796l46.13385 0l0 47.29921l-15.377991 15.37796l-46.13385 0zm0 0l46.13385 0l15.377991 -15.37796m-15.377991 15.37796l0 47.29921" fill-rule="nonzero"></path><path fill="#cfe2f3" d="m422.8491 248.81627l46.13385 0l0 47.29921l-46.13385 0z" fill-rule="nonzero"></path><path fill="#a5b4c2" d="m468.98294 248.81627l15.37796 -15.377945l0 47.299194l-15.37796 15.37796z" fill-rule="nonzero"></path><path fill="#d8e7f5" d="m422.8491 248.81627l15.37793 -15.377945l46.13388 0l-15.37796 15.377945z" fill-rule="nonzero"></path><path fill="#000000" fill-opacity="0.0" d="m422.8491 248.81627l15.37793 -15.377945l46.13388 0l0 47.299194l-15.37796 15.37796l-46.13385 0zm0 0l46.13385 0l15.37796 -15.377945m-15.37796 15.377945l0 47.29921" fill-rule="nonzero"></path><path stroke="#000000" stroke-width="2.0" stroke-linejoin="round" stroke-linecap="butt" d="m422.8491 248.81627l15.37793 -15.377945l46.13388 0l0 47.299194l-15.37796 15.37796l-46.13385 0zm0 0l46.13385 0l15.37796 -15.377945m-15.37796 15.377945l0 47.29921" fill-rule="nonzero"></path><path fill="#cfe2f3" d="m469.1378 248.81627l46.13388 0l0 47.29921l-46.13388 0z" fill-rule="nonzero"></path><path fill="#a5b4c2" d="m515.27167 248.81627l15.37793 -15.377945l0 47.299194l-15.37793 15.37796z" fill-rule="nonzero"></path><path fill="#d8e7f5" d="m469.1378 248.81627l15.37796 -15.377945l46.13385 0l-15.37793 15.377945z" fill-rule="nonzero"></path><path fill="#000000" fill-opacity="0.0" d="m469.1378 248.81627l15.37796 -15.377945l46.13385 0l0 47.299194l-15.37793 15.37796l-46.13388 0zm0 0l46.13388 0l15.37793 -15.377945m-15.37793 15.377945l0 47.29921" fill-rule="nonzero"></path><path stroke="#000000" stroke-width="2.0" stroke-linejoin="round" stroke-linecap="butt" d="m469.1378 248.81627l15.37796 -15.377945l46.13385 0l0 47.299194l-15.37793 15.37796l-46.13388 0zm0 0l46.13388 0l15.37793 -15.377945m-15.37793 15.377945l0 47.29921" fill-rule="nonzero"></path><path fill="#cfe2f3" d="m515.4344 248.81627l46.13385 0l0 47.29921l-46.13385 0z" fill-rule="nonzero"></path><path fill="#a5b4c2" d="m561.56824 248.81627l15.37793 -15.377945l0 47.299194l-15.37793 15.37796z" fill-rule="nonzero"></path><path fill="#d8e7f5" d="m515.4344 248.81627l15.37793 -15.377945l46.13385 0l-15.37793 15.377945z" fill-rule="nonzero"></path><path fill="#000000" fill-opacity="0.0" d="m515.4344 248.81627l15.37793 -15.377945l46.13385 0l0 47.299194l-15.37793 15.37796l-46.13385 0zm0 0l46.13385 0l15.37793 -15.377945m-15.37793 15.377945l0 47.29921" fill-rule="nonzero"></path><path stroke="#000000" stroke-width="2.0" stroke-linejoin="round" stroke-linecap="butt" d="m515.4344 248.81627l15.37793 -15.377945l46.13385 0l0 47.299194l-15.37793 15.37796l-46.13385 0zm0 0l46.13385 0l15.37793 -15.377945m-15.37793 15.377945l0 47.29921" fill-rule="nonzero"></path><path fill="#cfe2f3" d="m437.81366 186.81627l46.13385 0l0 47.29921l-46.13385 0z" fill-rule="nonzero"></path><path fill="#a5b4c2" d="m483.9475 186.81627l15.37796 -15.377945l0 47.29921l-15.37796 15.377945z" fill-rule="nonzero"></path><path fill="#d8e7f5" d="m437.81366 186.81627l15.37793 -15.377945l46.13388 0l-15.37796 15.377945z" fill-rule="nonzero"></path><path fill="#000000" fill-opacity="0.0" d="m437.81366 186.81627l15.37793 -15.377945l46.13388 0l0 47.29921l-15.37796 15.377945l-46.13385 0zm0 0l46.13385 0l15.37796 -15.377945m-15.37796 15.377945l0 47.29921" fill-rule="nonzero"></path><path stroke="#000000" stroke-width="2.0" stroke-linejoin="round" stroke-linecap="butt" d="m437.81366 186.81627l15.37793 -15.377945l46.13388 0l0 47.29921l-15.37796 15.377945l-46.13385 0zm0 0l46.13385 0l15.37796 -15.377945m-15.37796 15.377945l0 47.29921" fill-rule="nonzero"></path><path fill="#cfe2f3" d="m483.62466 186.81627l46.13388 0l0 47.29921l-46.13388 0z" fill-rule="nonzero"></path><path fill="#a5b4c2" d="m529.75854 186.81627l15.37793 -15.377945l0 47.29921l-15.37793 15.377945z" fill-rule="nonzero"></path><path fill="#d8e7f5" d="m483.62466 186.81627l15.37796 -15.377945l46.13385 0l-15.37793 15.377945z" fill-rule="nonzero"></path><path fill="#000000" fill-opacity="0.0" d="m483.62466 186.81627l15.37796 -15.377945l46.13385 0l0 47.29921l-15.37793 15.377945l-46.13388 0zm0 0l46.13388 0l15.37793 -15.377945m-15.37793 15.377945l0 47.29921" fill-rule="nonzero"></path><path stroke="#000000" stroke-width="2.0" stroke-linejoin="round" stroke-linecap="butt" d="m483.62466 186.81627l15.37796 -15.377945l46.13385 0l0 47.29921l-15.37793 15.377945l-46.13388 0zm0 0l46.13388 0l15.37793 -15.377945m-15.37793 15.377945l0 47.29921" fill-rule="nonzero"></path><path fill="#cfe2f3" d="m422.99213 201.36482l46.13385 0l0 47.299225l-46.13385 0z" fill-rule="nonzero"></path><path fill="#a5b4c2" d="m469.12598 201.36482l15.37796 -15.377945l0 47.29921l-15.37796 15.37796z" fill-rule="nonzero"></path><path fill="#d8e7f5" d="m422.99213 201.36482l15.37796 -15.377945l46.13385 0l-15.37796 15.377945z" fill-rule="nonzero"></path><path fill="#000000" fill-opacity="0.0" d="m422.99213 201.36482l15.37796 -15.377945l46.13385 0l0 47.29921l-15.37796 15.37796l-46.13385 0zm0 0l46.13385 0l15.37796 -15.377945m-15.37796 15.377945l0 47.299225" fill-rule="nonzero"></path><path stroke="#000000" stroke-width="2.0" stroke-linejoin="round" stroke-linecap="butt" d="m422.99213 201.36482l15.37796 -15.377945l46.13385 0l0 47.29921l-15.37796 15.37796l-46.13385 0zm0 0l46.13385 0l15.37796 -15.377945m-15.37796 15.377945l0 47.299225" fill-rule="nonzero"></path><path fill="#cfe2f3" d="m469.26773 201.36482l46.13382 0l0 47.299225l-46.13382 0z" fill-rule="nonzero"></path><path fill="#a5b4c2" d="m515.40155 201.36482l15.377991 -15.377945l0 47.29921l-15.377991 15.37796z" fill-rule="nonzero"></path><path fill="#d8e7f5" d="m469.26773 201.36482l15.37793 -15.377945l46.13388 0l-15.377991 15.377945z" fill-rule="nonzero"></path><path fill="#000000" fill-opacity="0.0" d="m469.26773 201.36482l15.37793 -15.377945l46.13388 0l0 47.29921l-15.377991 15.37796l-46.13382 0zm0 0l46.13382 0l15.377991 -15.377945m-15.377991 15.377945l0 47.299225" fill-rule="nonzero"></path><path stroke="#000000" stroke-width="2.0" stroke-linejoin="round" stroke-linecap="butt" d="m469.26773 201.36482l15.37793 -15.377945l46.13388 0l0 47.29921l-15.377991 15.37796l-46.13382 0zm0 0l46.13382 0l15.377991 -15.377945m-15.377991 15.377945l0 47.299225" fill-rule="nonzero"></path><path fill="#cfe2f3" d="m422.8491 153.41995l46.13385 0l0 47.29921l-46.13385 0z" fill-rule="nonzero"></path><path fill="#a5b4c2" d="m468.98294 153.41995l15.37796 -15.37796l0 47.29921l-15.37796 15.37796z" fill-rule="nonzero"></path><path fill="#d8e7f5" d="m422.8491 153.41995l15.37793 -15.37796l46.13388 0l-15.37796 15.37796z" fill-rule="nonzero"></path><path fill="#000000" fill-opacity="0.0" d="m422.8491 153.41995l15.37793 -15.37796l46.13388 0l0 47.29921l-15.37796 15.37796l-46.13385 0zm0 0l46.13385 0l15.37796 -15.37796m-15.37796 15.37796l0 47.29921" fill-rule="nonzero"></path><path stroke="#000000" stroke-width="2.0" stroke-linejoin="round" stroke-linecap="butt" d="m422.8491 153.41995l15.37793 -15.37796l46.13388 0l0 47.29921l-15.37796 15.37796l-46.13385 0zm0 0l46.13385 0l15.37796 -15.37796m-15.37796 15.37796l0 47.29921" fill-rule="nonzero"></path><path fill="#b6d7a8" d="m666.98553 236.04987l46.13391 0l0 47.299225l-46.13391 0z" fill-rule="nonzero"></path><path fill="#91ab86" d="m713.11945 236.04987l15.37793 -15.377945l0 47.29921l-15.37793 15.37796z" fill-rule="nonzero"></path><path fill="#c4dfb9" d="m666.98553 236.04987l15.377991 -15.377945l46.13385 0l-15.37793 15.377945z" fill-rule="nonzero"></path><path fill="#000000" fill-opacity="0.0" d="m666.98553 236.04987l15.377991 -15.377945l46.13385 0l0 47.29921l-15.37793 15.37796l-46.13391 0zm0 0l46.13391 0l15.37793 -15.377945m-15.37793 15.377945l0 47.299225" fill-rule="nonzero"></path><path stroke="#000000" stroke-width="2.0" stroke-linejoin="round" stroke-linecap="butt" d="m666.98553 236.04987l15.377991 -15.377945l46.13385 0l0 47.29921l-15.37793 15.37796l-46.13391 0zm0 0l46.13391 0l15.37793 -15.377945m-15.37793 15.377945l0 47.299225" fill-rule="nonzero"></path><path fill="#b6d7a8" d="m620.7126 188.50394l46.13385 0l0 47.29921l-46.13385 0z" fill-rule="nonzero"></path><path fill="#91ab86" d="m666.84644 188.50394l15.377991 -15.377945l0 47.29921l-15.377991 15.377945z" fill-rule="nonzero"></path><path fill="#c4dfb9" d="m620.7126 188.50394l15.377991 -15.377945l46.13385 0l-15.377991 15.377945z" fill-rule="nonzero"></path><path fill="#000000" fill-opacity="0.0" d="m620.7126 188.50394l15.377991 -15.377945l46.13385 0l0 47.29921l-15.377991 15.377945l-46.13385 0zm0 0l46.13385 0l15.377991 -15.377945m-15.377991 15.377945l0 47.29921" fill-rule="nonzero"></path><path stroke="#000000" stroke-width="2.0" stroke-linejoin="round" stroke-linecap="butt" d="m620.7126 188.50394l15.377991 -15.377945l46.13385 0l0 47.29921l-15.377991 15.377945l-46.13385 0zm0 0l46.13385 0l15.377991 -15.377945m-15.377991 15.377945l0 47.29921" fill-rule="nonzero"></path><path fill="#b6d7a8" d="m666.3819 188.50394l46.13385 0l0 47.29921l-46.13385 0z" fill-rule="nonzero"></path><path fill="#91ab86" d="m712.51575 188.50394l15.37793 -15.377945l0 47.29921l-15.37793 15.377945z" fill-rule="nonzero"></path><path fill="#c4dfb9" d="m666.3819 188.50394l15.37793 -15.377945l46.13385 0l-15.37793 15.377945z" fill-rule="nonzero"></path><path fill="#000000" fill-opacity="0.0" d="m666.3819 188.50394l15.37793 -15.377945l46.13385 0l0 47.29921l-15.37793 15.377945l-46.13385 0zm0 0l46.13385 0l15.37793 -15.377945m-15.37793 15.377945l0 47.29921" fill-rule="nonzero"></path><path stroke="#000000" stroke-width="2.0" stroke-linejoin="round" stroke-linecap="butt" d="m666.3819 188.50394l15.37793 -15.377945l46.13385 0l0 47.29921l-15.37793 15.377945l-46.13385 0zm0 0l46.13385 0l15.37793 -15.377945m-15.37793 15.377945l0 47.29921" fill-rule="nonzero"></path><path fill="#b6d7a8" d="m605.93304 203.05249l46.13391 0l0 47.29921l-46.13391 0z" fill-rule="nonzero"></path><path fill="#91ab86" d="m652.06696 203.05249l15.37793 -15.377945l0 47.29921l-15.37793 15.377945z" fill-rule="nonzero"></path><path fill="#c4dfb9" d="m605.93304 203.05249l15.377991 -15.377945l46.13385 0l-15.37793 15.377945z" fill-rule="nonzero"></path><path fill="#000000" fill-opacity="0.0" d="m605.93304 203.05249l15.377991 -15.377945l46.13385 0l0 47.29921l-15.37793 15.377945l-46.13391 0zm0 0l46.13391 0l15.37793 -15.377945m-15.37793 15.377945l0 47.29921" fill-rule="nonzero"></path><path stroke="#000000" stroke-width="2.0" stroke-linejoin="round" stroke-linecap="butt" d="m605.93304 203.05249l15.377991 -15.377945l46.13385 0l0 47.29921l-15.37793 15.377945l-46.13391 0zm0 0l46.13391 0l15.37793 -15.377945m-15.37793 15.377945l0 47.29921" fill-rule="nonzero"></path><path fill="#b6d7a8" d="m651.60236 203.05249l46.13385 0l0 47.29921l-46.13385 0z" fill-rule="nonzero"></path><path fill="#91ab86" d="m697.7362 203.05249l15.377991 -15.377945l0 47.29921l-15.377991 15.377945z" fill-rule="nonzero"></path><path fill="#c4dfb9" d="m651.60236 203.05249l15.37793 -15.377945l46.13391 0l-15.377991 15.377945z" fill-rule="nonzero"></path><path fill="#000000" fill-opacity="0.0" d="m651.60236 203.05249l15.37793 -15.377945l46.13391 0l0 47.29921l-15.377991 15.377945l-46.13385 0zm0 0l46.13385 0l15.377991 -15.377945m-15.377991 15.377945l0 47.29921" fill-rule="nonzero"></path><path stroke="#000000" stroke-width="2.0" stroke-linejoin="round" stroke-linecap="butt" d="m651.60236 203.05249l15.37793 -15.377945l46.13391 0l0 47.29921l-15.377991 15.377945l-46.13385 0zm0 0l46.13385 0l15.377991 -15.377945m-15.377991 15.377945l0 47.29921" fill-rule="nonzero"></path><path fill="#b6d7a8" d="m666.98553 140.60104l46.13391 0l0 47.299225l-46.13391 0z" fill-rule="nonzero"></path><path fill="#91ab86" d="m713.11945 140.60104l15.37793 -15.377945l0 47.29921l-15.37793 15.37796z" fill-rule="nonzero"></path><path fill="#c4dfb9" d="m666.98553 140.60104l15.377991 -15.377945l46.13385 0l-15.37793 15.377945z" fill-rule="nonzero"></path><path fill="#000000" fill-opacity="0.0" d="m666.98553 140.60104l15.377991 -15.377945l46.13385 0l0 47.29921l-15.37793 15.37796l-46.13391 0zm0 0l46.13391 0l15.37793 -15.377945m-15.37793 15.377945l0 47.299225" fill-rule="nonzero"></path><path stroke="#000000" stroke-width="2.0" stroke-linejoin="round" stroke-linecap="butt" d="m666.98553 140.60104l15.377991 -15.377945l46.13385 0l0 47.29921l-15.37793 15.37796l-46.13391 0zm0 0l46.13391 0l15.37793 -15.377945m-15.37793 15.377945l0 47.299225" fill-rule="nonzero"></path><path fill="#b6d7a8" d="m651.60236 155.72966l46.13385 0l0 47.29921l-46.13385 0z" fill-rule="nonzero"></path><path fill="#91ab86" d="m697.7362 155.72966l15.377991 -15.37796l0 47.299225l-15.377991 15.377945z" fill-rule="nonzero"></path><path fill="#c4dfb9" d="m651.60236 155.72966l15.37793 -15.37796l46.13391 0l-15.377991 15.37796z" fill-rule="nonzero"></path><path fill="#000000" fill-opacity="0.0" d="m651.60236 155.72966l15.37793 -15.37796l46.13391 0l0 47.299225l-15.377991 15.377945l-46.13385 0zm0 0l46.13385 0l15.377991 -15.37796m-15.377991 15.37796l0 47.29921" fill-rule="nonzero"></path><path stroke="#000000" stroke-width="2.0" stroke-linejoin="round" stroke-linecap="butt" d="m651.60236 155.72966l15.37793 -15.37796l46.13391 0l0 47.299225l-15.377991 15.377945l-46.13385 0zm0 0l46.13385 0l15.377991 -15.37796m-15.377991 15.37796l0 47.29921" fill-rule="nonzero"></path><path fill="#b6d7a8" d="m544.5029 171.0105l46.13391 0l0 47.29921l-46.13391 0z" fill-rule="nonzero"></path><path fill="#91ab86" d="m590.63684 171.0105l15.37793 -15.377945l0 47.29921l-15.37793 15.377945z" fill-rule="nonzero"></path><path fill="#c4dfb9" d="m544.5029 171.0105l15.377991 -15.377945l46.13385 0l-15.37793 15.377945z" fill-rule="nonzero"></path><path fill="#000000" fill-opacity="0.0" d="m544.5029 171.0105l15.377991 -15.377945l46.13385 0l0 47.29921l-15.37793 15.377945l-46.13391 0zm0 0l46.13391 0l15.37793 -15.377945m-15.37793 15.377945l0 47.29921" fill-rule="nonzero"></path><path stroke="#000000" stroke-width="2.0" stroke-linejoin="round" stroke-linecap="butt" d="m544.5029 171.0105l15.377991 -15.377945l46.13385 0l0 47.29921l-15.37793 15.377945l-46.13391 0zm0 0l46.13391 0l15.37793 -15.377945m-15.37793 15.377945l0 47.29921" fill-rule="nonzero"></path><path fill="#b6d7a8" d="m590.71655 171.0105l46.13385 0l0 47.29921l-46.13385 0z" fill-rule="nonzero"></path><path fill="#91ab86" d="m636.8504 171.0105l15.37793 -15.377945l0 47.29921l-15.37793 15.377945z" fill-rule="nonzero"></path><path fill="#c4dfb9" d="m590.71655 171.0105l15.37793 -15.377945l46.13385 0l-15.37793 15.377945z" fill-rule="nonzero"></path><path fill="#000000" fill-opacity="0.0" d="m590.71655 171.0105l15.37793 -15.377945l46.13385 0l0 47.29921l-15.37793 15.377945l-46.13385 0zm0 0l46.13385 0l15.37793 -15.377945m-15.37793 15.377945l0 47.29921" fill-rule="nonzero"></path><path stroke="#000000" stroke-width="2.0" stroke-linejoin="round" stroke-linecap="butt" d="m590.71655 171.0105l15.37793 -15.377945l46.13385 0l0 47.29921l-15.37793 15.377945l-46.13385 0zm0 0l46.13385 0l15.37793 -15.377945m-15.37793 15.377945l0 47.29921" fill-rule="nonzero"></path><path fill="#b6d7a8" d="m636.2185 171.0105l46.13385 0l0 47.29921l-46.13385 0z" fill-rule="nonzero"></path><path fill="#91ab86" d="m682.35236 171.0105l15.37793 -15.377945l0 47.29921l-15.37793 15.377945z" fill-rule="nonzero"></path><path fill="#c4dfb9" d="m636.2185 171.0105l15.37793 -15.377945l46.13385 0l-15.37793 15.377945z" fill-rule="nonzero"></path><path fill="#000000" fill-opacity="0.0" d="m636.2185 171.0105l15.37793 -15.377945l46.13385 0l0 47.29921l-15.37793 15.377945l-46.13385 0zm0 0l46.13385 0l15.37793 -15.377945m-15.37793 15.377945l0 47.29921" fill-rule="nonzero"></path><path stroke="#000000" stroke-width="2.0" stroke-linejoin="round" stroke-linecap="butt" d="m636.2185 171.0105l15.37793 -15.377945l46.13385 0l0 47.29921l-15.37793 15.377945l-46.13385 0zm0 0l46.13385 0l15.37793 -15.377945m-15.37793 15.377945l0 47.29921" fill-rule="nonzero"></path><path fill="#b6d7a8" d="m530.47705 90.8399l46.13385 0l0 47.299217l-46.13385 0z" fill-rule="nonzero"></path><path fill="#91ab86" d="m576.6109 90.8399l15.37793 -15.377953l0 47.29921l-15.37793 15.37796z" fill-rule="nonzero"></path><path fill="#c4dfb9" d="m530.47705 90.8399l15.37793 -15.377953l46.13385 0l-15.37793 15.377953z" fill-rule="nonzero"></path><path fill="#000000" fill-opacity="0.0" d="m530.47705 90.8399l15.37793 -15.377953l46.13385 0l0 47.29921l-15.37793 15.37796l-46.13385 0zm0 0l46.13385 0l15.37793 -15.377953m-15.37793 15.377953l0 47.299217" fill-rule="nonzero"></path><path stroke="#000000" stroke-width="2.0" stroke-linejoin="round" stroke-linecap="butt" d="m530.47705 90.8399l15.37793 -15.377953l46.13385 0l0 47.29921l-15.37793 15.37796l-46.13385 0zm0 0l46.13385 0l15.37793 -15.377953m-15.37793 15.377953l0 47.299217" fill-rule="nonzero"></path><path fill="#b6d7a8" d="m576.52167 90.8399l46.13385 0l0 47.299217l-46.13385 0z" fill-rule="nonzero"></path><path fill="#91ab86" d="m622.6555 90.8399l15.37793 -15.377953l0 47.29921l-15.37793 15.37796z" fill-rule="nonzero"></path><path fill="#c4dfb9" d="m576.52167 90.8399l15.37793 -15.377953l46.13385 0l-15.37793 15.377953z" fill-rule="nonzero"></path><path fill="#000000" fill-opacity="0.0" d="m576.52167 90.8399l15.37793 -15.377953l46.13385 0l0 47.29921l-15.37793 15.37796l-46.13385 0zm0 0l46.13385 0l15.37793 -15.377953m-15.37793 15.377953l0 47.299217" fill-rule="nonzero"></path><path stroke="#000000" stroke-width="2.0" stroke-linejoin="round" stroke-linecap="butt" d="m576.52167 90.8399l15.37793 -15.377953l46.13385 0l0 47.29921l-15.37793 15.37796l-46.13385 0zm0 0l46.13385 0l15.37793 -15.377953m-15.37793 15.377953l0 47.299217" fill-rule="nonzero"></path><path fill="#b6d7a8" d="m622.49805 90.8399l46.13385 0l0 47.299217l-46.13385 0z" fill-rule="nonzero"></path><path fill="#91ab86" d="m668.6319 90.8399l15.37793 -15.377953l0 47.29921l-15.37793 15.37796z" fill-rule="nonzero"></path><path fill="#c4dfb9" d="m622.49805 90.8399l15.37793 -15.377953l46.13385 0l-15.37793 15.377953z" fill-rule="nonzero"></path><path fill="#000000" fill-opacity="0.0" d="m622.49805 90.8399l15.37793 -15.377953l46.13385 0l0 47.29921l-15.37793 15.37796l-46.13385 0zm0 0l46.13385 0l15.37793 -15.377953m-15.37793 15.377953l0 47.299217" fill-rule="nonzero"></path><path stroke="#000000" stroke-width="2.0" stroke-linejoin="round" stroke-linecap="butt" d="m622.49805 90.8399l15.37793 -15.377953l46.13385 0l0 47.29921l-15.37793 15.37796l-46.13385 0zm0 0l46.13385 0l15.37793 -15.377953m-15.37793 15.377953l0 47.299217" fill-rule="nonzero"></path><path fill="#b6d7a8" d="m668.708 90.8399l46.13385 0l0 47.299217l-46.13385 0z" fill-rule="nonzero"></path><path fill="#91ab86" d="m714.84186 90.8399l15.37793 -15.377953l0 47.29921l-15.37793 15.37796z" fill-rule="nonzero"></path><path fill="#c4dfb9" d="m668.708 90.8399l15.37793 -15.377953l46.13385 0l-15.37793 15.377953z" fill-rule="nonzero"></path><path fill="#000000" fill-opacity="0.0" d="m668.708 90.8399l15.37793 -15.377953l46.13385 0l0 47.29921l-15.37793 15.37796l-46.13385 0zm0 0l46.13385 0l15.37793 -15.377953m-15.37793 15.377953l0 47.299217" fill-rule="nonzero"></path><path stroke="#000000" stroke-width="2.0" stroke-linejoin="round" stroke-linecap="butt" d="m668.708 90.8399l15.37793 -15.377953l46.13385 0l0 47.29921l-15.37793 15.37796l-46.13385 0zm0 0l46.13385 0l15.37793 -15.377953m-15.37793 15.377953l0 47.299217" fill-rule="nonzero"></path><path fill="#b6d7a8" d="m514.91534 106.120735l46.13385 0l0 47.299217l-46.13385 0z" fill-rule="nonzero"></path><path fill="#91ab86" d="m561.0492 106.120735l15.377991 -15.377953l0 47.29921l-15.377991 15.37796z" fill-rule="nonzero"></path><path fill="#c4dfb9" d="m514.91534 106.120735l15.377991 -15.377953l46.13385 0l-15.377991 15.377953z" fill-rule="nonzero"></path><path fill="#000000" fill-opacity="0.0" d="m514.91534 106.120735l15.377991 -15.377953l46.13385 0l0 47.29921l-15.377991 15.37796l-46.13385 0zm0 0l46.13385 0l15.377991 -15.377953m-15.377991 15.377953l0 47.299217" fill-rule="nonzero"></path><path stroke="#000000" stroke-width="2.0" stroke-linejoin="round" stroke-linecap="butt" d="m514.91534 106.120735l15.377991 -15.377953l46.13385 0l0 47.29921l-15.377991 15.37796l-46.13385 0zm0 0l46.13385 0l15.377991 -15.377953m-15.377991 15.377953l0 47.299217" fill-rule="nonzero"></path><path fill="#b6d7a8" d="m560.95996 106.120735l46.13385 0l0 47.299217l-46.13385 0z" fill-rule="nonzero"></path><path fill="#91ab86" d="m607.0938 106.120735l15.377991 -15.377953l0 47.29921l-15.377991 15.37796z" fill-rule="nonzero"></path><path fill="#c4dfb9" d="m560.95996 106.120735l15.377991 -15.377953l46.13385 0l-15.377991 15.377953z" fill-rule="nonzero"></path><path fill="#000000" fill-opacity="0.0" d="m560.95996 106.120735l15.377991 -15.377953l46.13385 0l0 47.29921l-15.377991 15.37796l-46.13385 0zm0 0l46.13385 0l15.377991 -15.377953m-15.377991 15.377953l0 47.299217" fill-rule="nonzero"></path><path stroke="#000000" stroke-width="2.0" stroke-linejoin="round" stroke-linecap="butt" d="m560.95996 106.120735l15.377991 -15.377953l46.13385 0l0 47.29921l-15.377991 15.37796l-46.13385 0zm0 0l46.13385 0l15.377991 -15.377953m-15.377991 15.377953l0 47.299217" fill-rule="nonzero"></path><path fill="#b6d7a8" d="m607.19617 106.120735l46.13391 0l0 47.299217l-46.13391 0z" fill-rule="nonzero"></path><path fill="#91ab86" d="m653.3301 106.120735l15.37793 -15.377953l0 47.29921l-15.37793 15.37796z" fill-rule="nonzero"></path><path fill="#c4dfb9" d="m607.19617 106.120735l15.377991 -15.377953l46.13385 0l-15.37793 15.377953z" fill-rule="nonzero"></path><path fill="#000000" fill-opacity="0.0" d="m607.19617 106.120735l15.377991 -15.377953l46.13385 0l0 47.29921l-15.37793 15.37796l-46.13391 0zm0 0l46.13391 0l15.37793 -15.377953m-15.37793 15.377953l0 47.299217" fill-rule="nonzero"></path><path stroke="#000000" stroke-width="2.0" stroke-linejoin="round" stroke-linecap="butt" d="m607.19617 106.120735l15.377991 -15.377953l46.13385 0l0 47.29921l-15.37793 15.37796l-46.13391 0zm0 0l46.13391 0l15.37793 -15.377953m-15.37793 15.377953l0 47.299217" fill-rule="nonzero"></path><path fill="#b6d7a8" d="m653.1463 106.120735l46.13391 0l0 47.299217l-46.13391 0z" fill-rule="nonzero"></path><path fill="#91ab86" d="m699.2802 106.120735l15.37793 -15.377953l0 47.29921l-15.37793 15.37796z" fill-rule="nonzero"></path><path fill="#c4dfb9" d="m653.1463 106.120735l15.377991 -15.377953l46.13385 0l-15.37793 15.377953z" fill-rule="nonzero"></path><path fill="#000000" fill-opacity="0.0" d="m653.1463 106.120735l15.377991 -15.377953l46.13385 0l0 47.29921l-15.37793 15.37796l-46.13391 0zm0 0l46.13391 0l15.37793 -15.377953m-15.37793 15.377953l0 47.299217" fill-rule="nonzero"></path><path stroke="#000000" stroke-width="2.0" stroke-linejoin="round" stroke-linecap="butt" d="m653.1463 106.120735l15.377991 -15.377953l46.13385 0l0 47.29921l-15.37793 15.37796l-46.13391 0zm0 0l46.13391 0l15.37793 -15.377953m-15.37793 15.377953l0 47.299217" fill-rule="nonzero"></path><path fill="#b6d7a8" d="m499.49146 121.71916l46.13385 0l0 47.29921l-46.13385 0z" fill-rule="nonzero"></path><path fill="#91ab86" d="m545.6253 121.71916l15.377991 -15.377953l0 47.299217l-15.377991 15.377945z" fill-rule="nonzero"></path><path fill="#c4dfb9" d="m499.49146 121.71916l15.377991 -15.377953l46.13385 0l-15.377991 15.377953z" fill-rule="nonzero"></path><path fill="#000000" fill-opacity="0.0" d="m499.49146 121.71916l15.377991 -15.377953l46.13385 0l0 47.299217l-15.377991 15.377945l-46.13385 0zm0 0l46.13385 0l15.377991 -15.377953m-15.377991 15.377953l0 47.29921" fill-rule="nonzero"></path><path stroke="#000000" stroke-width="2.0" stroke-linejoin="round" stroke-linecap="butt" d="m499.49146 121.71916l15.377991 -15.377953l46.13385 0l0 47.299217l-15.377991 15.377945l-46.13385 0zm0 0l46.13385 0l15.377991 -15.377953m-15.377991 15.377953l0 47.29921" fill-rule="nonzero"></path><path fill="#b6d7a8" d="m545.5361 121.71916l46.13385 0l0 47.29921l-46.13385 0z" fill-rule="nonzero"></path><path fill="#91ab86" d="m591.6699 121.71916l15.377991 -15.377953l0 47.299217l-15.377991 15.377945z" fill-rule="nonzero"></path><path fill="#c4dfb9" d="m545.5361 121.71916l15.377991 -15.377953l46.13385 0l-15.377991 15.377953z" fill-rule="nonzero"></path><path fill="#000000" fill-opacity="0.0" d="m545.5361 121.71916l15.377991 -15.377953l46.13385 0l0 47.299217l-15.377991 15.377945l-46.13385 0zm0 0l46.13385 0l15.377991 -15.377953m-15.377991 15.377953l0 47.29921" fill-rule="nonzero"></path><path stroke="#000000" stroke-width="2.0" stroke-linejoin="round" stroke-linecap="butt" d="m545.5361 121.71916l15.377991 -15.377953l46.13385 0l0 47.299217l-15.377991 15.377945l-46.13385 0zm0 0l46.13385 0l15.377991 -15.377953m-15.377991 15.377953l0 47.29921" fill-rule="nonzero"></path><path fill="#b6d7a8" d="m591.51245 121.71916l46.13385 0l0 47.29921l-46.13385 0z" fill-rule="nonzero"></path><path fill="#91ab86" d="m637.6463 121.71916l15.377991 -15.377953l0 47.299217l-15.377991 15.377945z" fill-rule="nonzero"></path><path fill="#c4dfb9" d="m591.51245 121.71916l15.377991 -15.377953l46.13385 0l-15.377991 15.377953z" fill-rule="nonzero"></path><path fill="#000000" fill-opacity="0.0" d="m591.51245 121.71916l15.377991 -15.377953l46.13385 0l0 47.299217l-15.377991 15.377945l-46.13385 0zm0 0l46.13385 0l15.377991 -15.377953m-15.377991 15.377953l0 47.29921" fill-rule="nonzero"></path><path stroke="#000000" stroke-width="2.0" stroke-linejoin="round" stroke-linecap="butt" d="m591.51245 121.71916l15.377991 -15.377953l46.13385 0l0 47.299217l-15.377991 15.377945l-46.13385 0zm0 0l46.13385 0l15.377991 -15.377953m-15.377991 15.377953l0 47.29921" fill-rule="nonzero"></path><path fill="#b6d7a8" d="m637.7224 121.71916l46.13391 0l0 47.29921l-46.13391 0z" fill-rule="nonzero"></path><path fill="#91ab86" d="m683.8563 121.71916l15.37793 -15.377953l0 47.299217l-15.37793 15.377945z" fill-rule="nonzero"></path><path fill="#c4dfb9" d="m637.7224 121.71916l15.377991 -15.377953l46.13385 0l-15.37793 15.377953z" fill-rule="nonzero"></path><path fill="#000000" fill-opacity="0.0" d="m637.7224 121.71916l15.377991 -15.377953l46.13385 0l0 47.299217l-15.37793 15.377945l-46.13391 0zm0 0l46.13391 0l15.37793 -15.377953m-15.37793 15.377953l0 47.29921" fill-rule="nonzero"></path><path stroke="#000000" stroke-width="2.0" stroke-linejoin="round" stroke-linecap="butt" d="m637.7224 121.71916l15.377991 -15.377953l46.13385 0l0 47.299217l-15.37793 15.377945l-46.13391 0zm0 0l46.13391 0l15.37793 -15.377953m-15.37793 15.377953l0 47.29921" fill-rule="nonzero"></path><path fill="#b6d7a8" d="m483.92978 137.0l46.13388 0l0 47.29921l-46.13388 0z" fill-rule="nonzero"></path><path fill="#91ab86" d="m530.06366 137.0l15.37793 -15.377953l0 47.299217l-15.37793 15.377945z" fill-rule="nonzero"></path><path fill="#c4dfb9" d="m483.92978 137.0l15.37796 -15.377953l46.13385 0l-15.37793 15.377953z" fill-rule="nonzero"></path><path fill="#000000" fill-opacity="0.0" d="m483.92978 137.0l15.37796 -15.377953l46.13385 0l0 47.299217l-15.37793 15.377945l-46.13388 0zm0 0l46.13388 0l15.37793 -15.377953m-15.37793 15.377953l0 47.29921" fill-rule="nonzero"></path><path stroke="#000000" stroke-width="2.0" stroke-linejoin="round" stroke-linecap="butt" d="m483.92978 137.0l15.37796 -15.377953l46.13385 0l0 47.299217l-15.37793 15.377945l-46.13388 0zm0 0l46.13388 0l15.37793 -15.377953m-15.37793 15.377953l0 47.29921" fill-rule="nonzero"></path><path fill="#b6d7a8" d="m529.9744 137.0l46.13385 0l0 47.29921l-46.13385 0z" fill-rule="nonzero"></path><path fill="#91ab86" d="m576.1083 137.0l15.37793 -15.377953l0 47.299217l-15.37793 15.377945z" fill-rule="nonzero"></path><path fill="#c4dfb9" d="m529.9744 137.0l15.37793 -15.377953l46.13385 0l-15.37793 15.377953z" fill-rule="nonzero"></path><path fill="#000000" fill-opacity="0.0" d="m529.9744 137.0l15.37793 -15.377953l46.13385 0l0 47.299217l-15.37793 15.377945l-46.13385 0zm0 0l46.13385 0l15.37793 -15.377953m-15.37793 15.377953l0 47.29921" fill-rule="nonzero"></path><path stroke="#000000" stroke-width="2.0" stroke-linejoin="round" stroke-linecap="butt" d="m529.9744 137.0l15.37793 -15.377953l46.13385 0l0 47.299217l-15.37793 15.377945l-46.13385 0zm0 0l46.13385 0l15.37793 -15.377953m-15.37793 15.377953l0 47.29921" fill-rule="nonzero"></path><path fill="#b6d7a8" d="m576.21063 137.0l46.13385 0l0 47.29921l-46.13385 0z" fill-rule="nonzero"></path><path fill="#91ab86" d="m622.3445 137.0l15.37793 -15.377953l0 47.299217l-15.37793 15.377945z" fill-rule="nonzero"></path><path fill="#c4dfb9" d="m576.21063 137.0l15.37793 -15.377953l46.13385 0l-15.37793 15.377953z" fill-rule="nonzero"></path><path fill="#000000" fill-opacity="0.0" d="m576.21063 137.0l15.37793 -15.377953l46.13385 0l0 47.299217l-15.37793 15.377945l-46.13385 0zm0 0l46.13385 0l15.37793 -15.377953m-15.37793 15.377953l0 47.29921" fill-rule="nonzero"></path><path stroke="#000000" stroke-width="2.0" stroke-linejoin="round" stroke-linecap="butt" d="m576.21063 137.0l15.37793 -15.377953l46.13385 0l0 47.299217l-15.37793 15.377945l-46.13385 0zm0 0l46.13385 0l15.37793 -15.377953m-15.37793 15.377953l0 47.29921" fill-rule="nonzero"></path><path fill="#b6d7a8" d="m622.16077 137.0l46.13385 0l0 47.29921l-46.13385 0z" fill-rule="nonzero"></path><path fill="#91ab86" d="m668.2946 137.0l15.37793 -15.377953l0 47.299217l-15.37793 15.377945z" fill-rule="nonzero"></path><path fill="#c4dfb9" d="m622.16077 137.0l15.37793 -15.377953l46.13385 0l-15.37793 15.377953z" fill-rule="nonzero"></path><path fill="#000000" fill-opacity="0.0" d="m622.16077 137.0l15.37793 -15.377953l46.13385 0l0 47.299217l-15.37793 15.377945l-46.13385 0zm0 0l46.13385 0l15.37793 -15.377953m-15.37793 15.377953l0 47.29921" fill-rule="nonzero"></path><path stroke="#000000" stroke-width="2.0" stroke-linejoin="round" stroke-linecap="butt" d="m622.16077 137.0l15.37793 -15.377953l46.13385 0l0 47.299217l-15.37793 15.377945l-46.13385 0zm0 0l46.13385 0l15.37793 -15.377953m-15.37793 15.377953l0 47.29921" fill-rule="nonzero"></path><path fill="#fff2cc" d="m93.022964 226.37401l46.133865 0l0 47.29921l-46.133865 0z" fill-rule="nonzero"></path><path fill="#cbc1a3" d="m139.15683 226.37401l15.377945 -15.377945l0 47.299225l-15.377945 15.37793z" fill-rule="nonzero"></path><path fill="#fff4d6" d="m93.022964 226.37401l15.377953 -15.377945l46.133858 0l-15.377945 15.377945z" fill-rule="nonzero"></path><path fill="#000000" fill-opacity="0.0" d="m93.022964 226.37401l15.377953 -15.377945l46.133858 0l0 47.299225l-15.377945 15.37793l-46.133865 0zm0 0l46.133865 0l15.377945 -15.377945m-15.377945 15.377945l0 47.29921" fill-rule="nonzero"></path><path stroke="#000000" stroke-width="2.0" stroke-linejoin="round" stroke-linecap="butt" d="m93.022964 226.37401l15.377953 -15.377945l46.133858 0l0 47.299225l-15.377945 15.37793l-46.133865 0zm0 0l46.133865 0l15.377945 -15.377945m-15.377945 15.377945l0 47.29921" fill-rule="nonzero"></path><path fill="#fff2cc" d="m93.323166 179.50262l46.13385 0l0 47.29921l-46.13385 0z" fill-rule="nonzero"></path><path fill="#cbc1a3" d="m139.45702 179.50262l15.37796 -15.377945l0 47.29921l-15.37796 15.377945z" fill-rule="nonzero"></path><path fill="#fff4d6" d="m93.323166 179.50262l15.377953 -15.377945l46.133858 0l-15.37796 15.377945z" fill-rule="nonzero"></path><path fill="#000000" fill-opacity="0.0" d="m93.323166 179.50262l15.377953 -15.377945l46.133858 0l0 47.29921l-15.37796 15.377945l-46.13385 0zm0 0l46.13385 0l15.37796 -15.377945m-15.37796 15.377945l0 47.29921" fill-rule="nonzero"></path><path stroke="#000000" stroke-width="2.0" stroke-linejoin="round" stroke-linecap="butt" d="m93.323166 179.50262l15.377953 -15.377945l46.133858 0l0 47.29921l-15.37796 15.377945l-46.13385 0zm0 0l46.13385 0l15.37796 -15.377945m-15.37796 15.377945l0 47.29921" fill-rule="nonzero"></path><path fill="#fff2cc" d="m78.181755 194.05118l46.133858 0l0 47.29921l-46.133858 0z" fill-rule="nonzero"></path><path fill="#cbc1a3" d="m124.31561 194.05118l15.37796 -15.377945l0 47.29921l-15.37796 15.377945z" fill-rule="nonzero"></path><path fill="#fff4d6" d="m78.181755 194.05118l15.377953 -15.377945l46.133865 0l-15.37796 15.377945z" fill-rule="nonzero"></path><path fill="#000000" fill-opacity="0.0" d="m78.181755 194.05118l15.377953 -15.377945l46.133865 0l0 47.29921l-15.37796 15.377945l-46.133858 0zm0 0l46.133858 0l15.37796 -15.377945m-15.37796 15.377945l0 47.29921" fill-rule="nonzero"></path><path stroke="#000000" stroke-width="2.0" stroke-linejoin="round" stroke-linecap="butt" d="m78.181755 194.05118l15.377953 -15.377945l46.133865 0l0 47.29921l-15.37796 15.377945l-46.133858 0zm0 0l46.133858 0l15.37796 -15.377945m-15.37796 15.377945l0 47.29921" fill-rule="nonzero"></path><path fill="#fff2cc" d="m93.022964 132.21654l46.133865 0l0 47.29921l-46.133865 0z" fill-rule="nonzero"></path><path fill="#cbc1a3" d="m139.15683 132.21654l15.377945 -15.377953l0 47.299217l-15.377945 15.377945z" fill-rule="nonzero"></path><path fill="#fff4d6" d="m93.022964 132.21654l15.377953 -15.377953l46.133858 0l-15.377945 15.377953z" fill-rule="nonzero"></path><path fill="#000000" fill-opacity="0.0" d="m93.022964 132.21654l15.377953 -15.377953l46.133858 0l0 47.299217l-15.377945 15.377945l-46.133865 0zm0 0l46.133865 0l15.377945 -15.377953m-15.377945 15.377953l0 47.29921" fill-rule="nonzero"></path><path stroke="#000000" stroke-width="2.0" stroke-linejoin="round" stroke-linecap="butt" d="m93.022964 132.21654l15.377953 -15.377953l46.133858 0l0 47.299217l-15.377945 15.377945l-46.133865 0zm0 0l46.133865 0l15.377945 -15.377953m-15.377945 15.377953l0 47.29921" fill-rule="nonzero"></path><path fill="#fff2cc" d="m77.88156 146.94882l46.133858 0l0 47.29921l-46.133858 0z" fill-rule="nonzero"></path><path fill="#cbc1a3" d="m124.01542 146.94882l15.377953 -15.37796l0 47.29921l-15.377953 15.37796z" fill-rule="nonzero"></path><path fill="#fff4d6" d="m77.88156 146.94882l15.377953 -15.37796l46.133858 0l-15.377953 15.37796z" fill-rule="nonzero"></path><path fill="#000000" fill-opacity="0.0" d="m77.88156 146.94882l15.377953 -15.37796l46.133858 0l0 47.29921l-15.377953 15.37796l-46.133858 0zm0 0l46.133858 0l15.377953 -15.37796m-15.377953 15.37796l0 47.29921" fill-rule="nonzero"></path><path stroke="#000000" stroke-width="2.0" stroke-linejoin="round" stroke-linecap="butt" d="m77.88156 146.94882l15.377953 -15.37796l46.133858 0l0 47.29921l-15.377953 15.37796l-46.133858 0zm0 0l46.133858 0l15.377953 -15.37796m-15.377953 15.37796l0 47.29921" fill-rule="nonzero"></path><path fill="#fff2cc" d="m62.507217 162.83595l46.133858 0l0 47.299225l-46.133858 0z" fill-rule="nonzero"></path><path fill="#cbc1a3" d="m108.641075 162.83595l15.377953 -15.377945l0 47.29921l-15.377953 15.37796z" fill-rule="nonzero"></path><path fill="#fff4d6" d="m62.507217 162.83595l15.377953 -15.377945l46.133858 0l-15.377953 15.377945z" fill-rule="nonzero"></path><path fill="#000000" fill-opacity="0.0" d="m62.507217 162.83595l15.377953 -15.377945l46.133858 0l0 47.29921l-15.377953 15.37796l-46.133858 0zm0 0l46.133858 0l15.377953 -15.377945m-15.377953 15.377945l0 47.299225" fill-rule="nonzero"></path><path stroke="#000000" stroke-width="2.0" stroke-linejoin="round" stroke-linecap="butt" d="m62.507217 162.83595l15.377953 -15.377945l46.133858 0l0 47.29921l-15.377953 15.37796l-46.133858 0zm0 0l46.133858 0l15.377953 -15.377945m-15.377953 15.377945l0 47.299225" fill-rule="nonzero"></path><path fill="#fff2cc" d="m93.139435 84.87795l46.13385 0l0 47.299217l-46.13385 0z" fill-rule="nonzero"></path><path fill="#cbc1a3" d="m139.27328 84.87795l15.37796 -15.377953l0 47.29921l-15.37796 15.37796z" fill-rule="nonzero"></path><path fill="#fff4d6" d="m93.139435 84.87795l15.377953 -15.377953l46.133858 0l-15.37796 15.377953z" fill-rule="nonzero"></path><path fill="#000000" fill-opacity="0.0" d="m93.139435 84.87795l15.377953 -15.377953l46.133858 0l0 47.29921l-15.37796 15.37796l-46.13385 0zm0 0l46.13385 0l15.37796 -15.377953m-15.37796 15.377953l0 47.299217" fill-rule="nonzero"></path><path stroke="#000000" stroke-width="2.0" stroke-linejoin="round" stroke-linecap="butt" d="m93.139435 84.87795l15.377953 -15.377953l46.133858 0l0 47.29921l-15.37796 15.37796l-46.13385 0zm0 0l46.13385 0l15.37796 -15.377953m-15.37796 15.377953l0 47.299217" fill-rule="nonzero"></path><path fill="#fff2cc" d="m77.99803 99.61024l46.133858 0l0 47.299217l-46.133858 0z" fill-rule="nonzero"></path><path fill="#cbc1a3" d="m124.13189 99.61024l15.377953 -15.377953l0 47.29921l-15.377953 15.37796z" fill-rule="nonzero"></path><path fill="#fff4d6" d="m77.99803 99.61024l15.377953 -15.377953l46.133858 0l-15.377953 15.377953z" fill-rule="nonzero"></path><path fill="#000000" fill-opacity="0.0" d="m77.99803 99.61024l15.377953 -15.377953l46.133858 0l0 47.29921l-15.377953 15.37796l-46.133858 0zm0 0l46.133858 0l15.377953 -15.377953m-15.377953 15.377953l0 47.299217" fill-rule="nonzero"></path><path stroke="#000000" stroke-width="2.0" stroke-linejoin="round" stroke-linecap="butt" d="m77.99803 99.61024l15.377953 -15.377953l46.133858 0l0 47.29921l-15.377953 15.37796l-46.133858 0zm0 0l46.133858 0l15.377953 -15.377953m-15.377953 15.377953l0 47.299217" fill-rule="nonzero"></path><path fill="#fff2cc" d="m62.623688 115.497375l46.133858 0l0 47.29921l-46.133858 0z" fill-rule="nonzero"></path><path fill="#cbc1a3" d="m108.757545 115.497375l15.377953 -15.377953l0 47.299217l-15.377953 15.377945z" fill-rule="nonzero"></path><path fill="#fff4d6" d="m62.623688 115.497375l15.377953 -15.377953l46.133858 0l-15.377953 15.377953z" fill-rule="nonzero"></path><path fill="#000000" fill-opacity="0.0" d="m62.623688 115.497375l15.377953 -15.377953l46.133858 0l0 47.299217l-15.377953 15.377945l-46.133858 0zm0 0l46.133858 0l15.377953 -15.377953m-15.377953 15.377953l0 47.29921" fill-rule="nonzero"></path><path stroke="#000000" stroke-width="2.0" stroke-linejoin="round" stroke-linecap="butt" d="m62.623688 115.497375l15.377953 -15.377953l46.133858 0l0 47.299217l-15.377953 15.377945l-46.133858 0zm0 0l46.133858 0l15.377953 -15.377953m-15.377953 15.377953l0 47.29921" fill-rule="nonzero"></path><path fill="#fff2cc" d="m47.652557 130.31627l46.133858 0l0 47.29921l-46.133858 0z" fill-rule="nonzero"></path><path fill="#cbc1a3" d="m93.786415 130.31627l15.377953 -15.377953l0 47.299217l-15.377953 15.377945z" fill-rule="nonzero"></path><path fill="#fff4d6" d="m47.652557 130.31627l15.377953 -15.377953l46.133858 0l-15.377953 15.377953z" fill-rule="nonzero"></path><path fill="#000000" fill-opacity="0.0" d="m47.652557 130.31627l15.377953 -15.377953l46.133858 0l0 47.299217l-15.377953 15.377945l-46.133858 0zm0 0l46.133858 0l15.377953 -15.377953m-15.377953 15.377953l0 47.29921" fill-rule="nonzero"></path><path stroke="#000000" stroke-width="2.0" stroke-linejoin="round" stroke-linecap="butt" d="m47.652557 130.31627l15.377953 -15.377953l46.133858 0l0 47.299217l-15.377953 15.377945l-46.133858 0zm0 0l46.133858 0l15.377953 -15.377953m-15.377953 15.377953l0 47.29921" fill-rule="nonzero"></path><path fill="#fff2cc" d="m195.96161 226.58136l46.133865 0l0 47.299225l-46.133865 0z" fill-rule="nonzero"></path><path fill="#cbc1a3" d="m242.09547 226.58136l15.377945 -15.377945l0 47.29921l-15.377945 15.37796z" fill-rule="nonzero"></path><path fill="#fff4d6" d="m195.96161 226.58136l15.37796 -15.377945l46.13385 0l-15.377945 15.377945z" fill-rule="nonzero"></path><path fill="#000000" fill-opacity="0.0" d="m195.96161 226.58136l15.37796 -15.377945l46.13385 0l0 47.29921l-15.377945 15.37796l-46.133865 0zm0 0l46.133865 0l15.377945 -15.377945m-15.377945 15.377945l0 47.299225" fill-rule="nonzero"></path><path stroke="#000000" stroke-width="2.0" stroke-linejoin="round" stroke-linecap="butt" d="m195.96161 226.58136l15.37796 -15.377945l46.13385 0l0 47.29921l-15.377945 15.37796l-46.133865 0zm0 0l46.133865 0l15.377945 -15.377945m-15.377945 15.377945l0 47.299225" fill-rule="nonzero"></path><path fill="#fff2cc" d="m196.26181 179.70998l46.133865 0l0 47.29921l-46.133865 0z" fill-rule="nonzero"></path><path fill="#cbc1a3" d="m242.39568 179.70998l15.377945 -15.37796l0 47.299225l-15.377945 15.377945z" fill-rule="nonzero"></path><path fill="#fff4d6" d="m196.26181 179.70998l15.37796 -15.37796l46.13385 0l-15.377945 15.37796z" fill-rule="nonzero"></path><path fill="#000000" fill-opacity="0.0" d="m196.26181 179.70998l15.37796 -15.37796l46.13385 0l0 47.299225l-15.377945 15.377945l-46.133865 0zm0 0l46.133865 0l15.377945 -15.37796m-15.377945 15.37796l0 47.29921" fill-rule="nonzero"></path><path stroke="#000000" stroke-width="2.0" stroke-linejoin="round" stroke-linecap="butt" d="m196.26181 179.70998l15.37796 -15.37796l46.13385 0l0 47.299225l-15.377945 15.377945l-46.133865 0zm0 0l46.133865 0l15.377945 -15.37796m-15.377945 15.37796l0 47.29921" fill-rule="nonzero"></path><path fill="#fff2cc" d="m181.1204 194.25853l46.13385 0l0 47.29921l-46.13385 0z" fill-rule="nonzero"></path><path fill="#cbc1a3" d="m227.25426 194.25853l15.37796 -15.377945l0 47.29921l-15.37796 15.377945z" fill-rule="nonzero"></path><path fill="#fff4d6" d="m181.1204 194.25853l15.377945 -15.377945l46.133865 0l-15.37796 15.377945z" fill-rule="nonzero"></path><path fill="#000000" fill-opacity="0.0" d="m181.1204 194.25853l15.377945 -15.377945l46.133865 0l0 47.29921l-15.37796 15.377945l-46.13385 0zm0 0l46.13385 0l15.37796 -15.377945m-15.37796 15.377945l0 47.29921" fill-rule="nonzero"></path><path stroke="#000000" stroke-width="2.0" stroke-linejoin="round" stroke-linecap="butt" d="m181.1204 194.25853l15.377945 -15.377945l46.133865 0l0 47.29921l-15.37796 15.377945l-46.13385 0zm0 0l46.13385 0l15.37796 -15.377945m-15.37796 15.377945l0 47.29921" fill-rule="nonzero"></path><path fill="#fff2cc" d="m195.96161 132.42389l46.133865 0l0 47.29921l-46.133865 0z" fill-rule="nonzero"></path><path fill="#cbc1a3" d="m242.09547 132.42389l15.377945 -15.37796l0 47.29921l-15.377945 15.37796z" fill-rule="nonzero"></path><path fill="#fff4d6" d="m195.96161 132.42389l15.37796 -15.37796l46.13385 0l-15.377945 15.37796z" fill-rule="nonzero"></path><path fill="#000000" fill-opacity="0.0" d="m195.96161 132.42389l15.37796 -15.37796l46.13385 0l0 47.29921l-15.377945 15.37796l-46.133865 0zm0 0l46.133865 0l15.377945 -15.37796m-15.377945 15.37796l0 47.29921" fill-rule="nonzero"></path><path stroke="#000000" stroke-width="2.0" stroke-linejoin="round" stroke-linecap="butt" d="m195.96161 132.42389l15.37796 -15.37796l46.13385 0l0 47.29921l-15.377945 15.37796l-46.133865 0zm0 0l46.133865 0l15.377945 -15.37796m-15.377945 15.37796l0 47.29921" fill-rule="nonzero"></path><path fill="#fff2cc" d="m180.8202 147.15617l46.133865 0l0 47.29921l-46.133865 0z" fill-rule="nonzero"></path><path fill="#cbc1a3" d="m226.95407 147.15617l15.377945 -15.37796l0 47.29921l-15.377945 15.37796z" fill-rule="nonzero"></path><path fill="#fff4d6" d="m180.8202 147.15617l15.37796 -15.37796l46.13385 0l-15.377945 15.37796z" fill-rule="nonzero"></path><path fill="#000000" fill-opacity="0.0" d="m180.8202 147.15617l15.37796 -15.37796l46.13385 0l0 47.29921l-15.377945 15.37796l-46.133865 0zm0 0l46.133865 0l15.377945 -15.37796m-15.377945 15.37796l0 47.29921" fill-rule="nonzero"></path><path stroke="#000000" stroke-width="2.0" stroke-linejoin="round" stroke-linecap="butt" d="m180.8202 147.15617l15.37796 -15.37796l46.13385 0l0 47.29921l-15.377945 15.37796l-46.133865 0zm0 0l46.133865 0l15.377945 -15.37796m-15.377945 15.37796l0 47.29921" fill-rule="nonzero"></path><path fill="#fff2cc" d="m165.44586 163.0433l46.133865 0l0 47.29921l-46.133865 0z" fill-rule="nonzero"></path><path fill="#cbc1a3" d="m211.57973 163.0433l15.377945 -15.377945l0 47.29921l-15.377945 15.377945z" fill-rule="nonzero"></path><path fill="#fff4d6" d="m165.44586 163.0433l15.37796 -15.377945l46.13385 0l-15.377945 15.377945z" fill-rule="nonzero"></path><path fill="#000000" fill-opacity="0.0" d="m165.44586 163.0433l15.37796 -15.377945l46.13385 0l0 47.29921l-15.377945 15.377945l-46.133865 0zm0 0l46.133865 0l15.377945 -15.377945m-15.377945 15.377945l0 47.29921" fill-rule="nonzero"></path><path stroke="#000000" stroke-width="2.0" stroke-linejoin="round" stroke-linecap="butt" d="m165.44586 163.0433l15.37796 -15.377945l46.13385 0l0 47.29921l-15.377945 15.377945l-46.133865 0zm0 0l46.133865 0l15.377945 -15.377945m-15.377945 15.377945l0 47.29921" fill-rule="nonzero"></path><path fill="#fff2cc" d="m284.8089 223.90158l46.13385 0l0 47.299194l-46.13385 0z" fill-rule="nonzero"></path><path fill="#cbc1a3" d="m330.94275 223.90158l15.37796 -15.37796l0 47.29921l-15.37796 15.377945z" fill-rule="nonzero"></path><path fill="#fff4d6" d="m284.8089 223.90158l15.37793 -15.37796l46.13388 0l-15.37796 15.37796z" fill-rule="nonzero"></path><path fill="#000000" fill-opacity="0.0" d="m284.8089 223.90158l15.37793 -15.37796l46.13388 0l0 47.29921l-15.37796 15.377945l-46.13385 0zm0 0l46.13385 0l15.37796 -15.37796m-15.37796 15.37796l0 47.299194" fill-rule="nonzero"></path><path stroke="#000000" stroke-width="2.0" stroke-linejoin="round" stroke-linecap="butt" d="m284.8089 223.90158l15.37793 -15.37796l46.13388 0l0 47.29921l-15.37796 15.377945l-46.13385 0zm0 0l46.13385 0l15.37796 -15.37796m-15.37796 15.37796l0 47.299194" fill-rule="nonzero"></path><path fill="#fff2cc" d="m285.1091 177.03018l46.13385 0l0 47.29921l-46.13385 0z" fill-rule="nonzero"></path><path fill="#cbc1a3" d="m331.24295 177.03018l15.37796 -15.377945l0 47.29921l-15.37796 15.377945z" fill-rule="nonzero"></path><path fill="#fff4d6" d="m285.1091 177.03018l15.37793 -15.377945l46.13388 0l-15.37796 15.377945z" fill-rule="nonzero"></path><path fill="#000000" fill-opacity="0.0" d="m285.1091 177.03018l15.37793 -15.377945l46.13388 0l0 47.29921l-15.37796 15.377945l-46.13385 0zm0 0l46.13385 0l15.37796 -15.377945m-15.37796 15.377945l0 47.29921" fill-rule="nonzero"></path><path stroke="#000000" stroke-width="2.0" stroke-linejoin="round" stroke-linecap="butt" d="m285.1091 177.03018l15.37793 -15.377945l46.13388 0l0 47.29921l-15.37796 15.377945l-46.13385 0zm0 0l46.13385 0l15.37796 -15.377945m-15.37796 15.377945l0 47.29921" fill-rule="nonzero"></path><path fill="#fff2cc" d="m269.96768 191.57874l46.13385 0l0 47.299225l-46.13385 0z" fill-rule="nonzero"></path><path fill="#cbc1a3" d="m316.10153 191.57874l15.37796 -15.377945l0 47.29921l-15.37796 15.37796z" fill-rule="nonzero"></path><path fill="#fff4d6" d="m269.96768 191.57874l15.37796 -15.377945l46.13385 0l-15.37796 15.377945z" fill-rule="nonzero"></path><path fill="#000000" fill-opacity="0.0" d="m269.96768 191.57874l15.37796 -15.377945l46.13385 0l0 47.29921l-15.37796 15.37796l-46.13385 0zm0 0l46.13385 0l15.37796 -15.377945m-15.37796 15.377945l0 47.299225" fill-rule="nonzero"></path><path stroke="#000000" stroke-width="2.0" stroke-linejoin="round" stroke-linecap="butt" d="m269.96768 191.57874l15.37796 -15.377945l46.13385 0l0 47.29921l-15.37796 15.37796l-46.13385 0zm0 0l46.13385 0l15.37796 -15.377945m-15.37796 15.377945l0 47.299225" fill-rule="nonzero"></path><path fill="#fff2cc" d="m354.0506 226.58136l46.13388 0l0 47.299225l-46.13388 0z" fill-rule="nonzero"></path><path fill="#cbc1a3" d="m400.18448 226.58136l15.37793 -15.377945l0 47.29921l-15.37793 15.37796z" fill-rule="nonzero"></path><path fill="#fff4d6" d="m354.0506 226.58136l15.37796 -15.377945l46.13385 0l-15.37793 15.377945z" fill-rule="nonzero"></path><path fill="#000000" fill-opacity="0.0" d="m354.0506 226.58136l15.37796 -15.377945l46.13385 0l0 47.29921l-15.37793 15.37796l-46.13388 0zm0 0l46.13388 0l15.37793 -15.377945m-15.37793 15.377945l0 47.299225" fill-rule="nonzero"></path><path stroke="#000000" stroke-width="2.0" stroke-linejoin="round" stroke-linecap="butt" d="m354.0506 226.58136l15.37796 -15.377945l46.13385 0l0 47.29921l-15.37793 15.37796l-46.13388 0zm0 0l46.13388 0l15.37793 -15.377945m-15.37793 15.377945l0 47.299225" fill-rule="nonzero"></path><path fill="#f3f3f3" d="m582.0236 377.90683l20.556396 24.826752l-12.413391 0l0 0c-16.497437 47.18213 -76.91724 78.55435 -142.62527 74.056366l0 0c56.488617 -3.8668823 103.615814 -33.494293 117.79849 -74.056366l-12.413391 0z" fill-rule="nonzero"></path><path fill="#c2c2c2" d="m435.12796 477.2139c-74.27252 0 -134.4823 -44.461273 -134.4823 -99.30707l24.826782 0l0 0c0 54.845795 60.209778 99.30707 134.48227 99.30707z" fill-rule="nonzero"></path><path fill="#000000" fill-opacity="0.0" d="m447.54135 476.78995l0 0c56.488617 -3.8668823 103.615814 -33.494293 117.79849 -74.056366l-12.413391 0l29.097168 -24.826752l20.556396 24.826752l-12.413391 0l0 0c-15.330933 43.845917 -68.88818 74.480316 -130.21191 74.480316l-24.826752 0c-74.27252 0 -134.4823 -44.461273 -134.4823 -99.30707l24.826782 0l0 0c0 54.845795 60.209778 99.30707 134.48227 99.30707" fill-rule="nonzero"></path><path stroke="#000000" stroke-width="2.0" stroke-linejoin="round" stroke-linecap="butt" d="m447.54135 476.78995l0 0c56.488617 -3.8668823 103.615814 -33.494293 117.79849 -74.056366l-12.413391 0l29.097168 -24.826752l20.556396 24.826752l-12.413391 0l0 0c-15.330933 43.845917 -68.88818 74.480316 -130.21191 74.480316l-24.826752 0c-74.27252 0 -134.4823 -44.461273 -134.4823 -99.30707l24.826782 0l0 0c0 54.845795 60.209778 99.30707 134.48227 99.30707" fill-rule="nonzero"></path><path fill="#000000" fill-opacity="0.0" d="m239.95276 492.0735l427.59058 0l0 93.921265l-427.59058 0z" fill-rule="nonzero"></path><path fill="#000000" d="m250.39026 522.68286l2.859375 -0.25q0.203125 1.71875 0.9375 2.828125q0.75 1.09375 2.3125 1.78125q1.5625 0.671875 3.515625 0.671875q1.734375 0 3.0625 -0.515625q1.328125 -0.515625 1.96875 -1.40625q0.65625 -0.90625 0.65625 -1.96875q0 -1.078125 -0.625 -1.875q-0.625 -0.8125 -2.0625 -1.359375q-0.921875 -0.359375 -4.078125 -1.109375q-3.15625 -0.765625 -4.421875 -1.4375q-1.640625 -0.859375 -2.453125 -2.125q-0.796875 -1.28125 -0.796875 -2.859375q0 -1.734375 0.984375 -3.234375q0.984375 -1.515625 2.875 -2.296875q1.890625 -0.78125 4.203125 -0.78125q2.546875 0 4.484375 0.828125q1.953125 0.8125 3.0 2.40625q1.046875 1.59375 1.125 3.609375l-2.90625 0.21875q-0.234375 -2.171875 -1.59375 -3.28125q-1.34375 -1.109375 -3.984375 -1.109375q-2.75 0 -4.015625 1.015625q-1.25 1.0 -1.25 2.421875q0 1.234375 0.890625 2.03125q0.875 0.796875 4.5625 1.640625q3.703125 0.828125 5.078125 1.453125q2.0 0.921875 2.953125 2.34375q0.953125 1.40625 0.953125 3.25q0 1.828125 -1.046875 3.453125q-1.046875 1.609375 -3.015625 2.515625q-1.953125 0.890625 -4.40625 0.890625q-3.109375 0 -5.21875 -0.90625q-2.09375 -0.90625 -3.296875 -2.71875q-1.1875 -1.828125 -1.25 -4.125zm32.84375 5.3125q-1.5625 1.328125 -3.015625 1.875q-1.4375 0.546875 -3.09375 0.546875q-2.734375 0 -4.203125 -1.328125q-1.46875 -1.34375 -1.46875 -3.421875q0 -1.21875 0.546875 -2.21875q0.5625 -1.015625 1.453125 -1.625q0.90625 -0.609375 2.03125 -0.921875q0.828125 -0.21875 2.5 -0.421875q3.40625 -0.40625 5.015625 -0.96875q0.015625 -0.578125 0.015625 -0.734375q0 -1.71875 -0.796875 -2.421875q-1.078125 -0.953125 -3.203125 -0.953125q-1.984375 0 -2.9375 0.703125q-0.9375 0.6875 -1.390625 2.453125l-2.75 -0.375q0.375 -1.765625 1.234375 -2.84375q0.859375 -1.09375 2.484375 -1.671875q1.625 -0.59375 3.765625 -0.59375q2.125 0 3.453125 0.5q1.328125 0.5 1.953125 1.265625q0.625 0.75 0.875 1.90625q0.140625 0.71875 0.140625 2.59375l0 3.75q0 3.921875 0.171875 4.96875q0.1875 1.03125 0.71875 1.984375l-2.9375 0q-0.4375 -0.875 -0.5625 -2.046875zm-0.234375 -6.28125q-1.53125 0.625 -4.59375 1.0625q-1.734375 0.25 -2.453125 0.5625q-0.71875 0.3125 -1.109375 0.921875q-0.390625 0.59375 -0.390625 1.328125q0 1.125 0.84375 1.875q0.859375 0.75 2.5 0.75q1.625 0 2.890625 -0.703125q1.265625 -0.71875 1.859375 -1.953125q0.453125 -0.953125 0.453125 -2.8125l0 -1.03125zm7.203125 8.328125l0 -16.59375l2.515625 0l0 2.328125q0.78125 -1.21875 2.078125 -1.953125q1.296875 -0.75 2.953125 -0.75q1.84375 0 3.015625 0.765625q1.1875 0.765625 1.671875 2.140625q1.96875 -2.90625 5.125 -2.90625q2.46875 0 3.796875 1.375q1.328125 1.359375 1.328125 4.203125l0 11.390625l-2.796875 0l0 -10.453125q0 -1.6875 -0.28125 -2.421875q-0.265625 -0.75 -0.984375 -1.203125q-0.71875 -0.453125 -1.6875 -0.453125q-1.75 0 -2.90625 1.171875q-1.15625 1.15625 -1.15625 3.71875l0 9.640625l-2.8125 0l0 -10.78125q0 -1.875 -0.6875 -2.8125q-0.6875 -0.9375 -2.25 -0.9375q-1.1875 0 -2.203125 0.625q-1.0 0.625 -1.453125 1.828125q-0.453125 1.203125 -0.453125 3.46875l0 8.609375l-2.8125 0zm38.015625 -5.34375l2.90625 0.359375q-0.6875 2.546875 -2.546875 3.953125q-1.859375 1.40625 -4.75 1.40625q-3.640625 0 -5.78125 -2.234375q-2.125 -2.25 -2.125 -6.296875q0 -4.1875 2.15625 -6.5q2.15625 -2.3125 5.59375 -2.3125q3.328125 0 5.4375 2.265625q2.109375 2.265625 2.109375 6.375q0 0.25 -0.015625 0.75l-12.375 0q0.15625 2.734375 1.546875 4.1875q1.390625 1.453125 3.46875 1.453125q1.546875 0 2.640625 -0.8125q1.09375 -0.8125 1.734375 -2.59375zm-9.234375 -4.546875l9.265625 0q-0.1875 -2.09375 -1.0625 -3.140625q-1.34375 -1.625 -3.484375 -1.625q-1.9375 0 -3.265625 1.296875q-1.3125 1.296875 -1.453125 3.46875zm30.703125 7.375l0.40625 2.484375q-1.1875 0.25 -2.125 0.25q-1.53125 0 -2.375 -0.484375q-0.84375 -0.484375 -1.1875 -1.265625q-0.34375 -0.796875 -0.34375 -3.328125l0 -9.546875l-2.0625 0l0 -2.1875l2.0625 0l0 -4.109375l2.796875 -1.6875l0 5.796875l2.828125 0l0 2.1875l-2.828125 0l0 9.703125q0 1.203125 0.140625 1.546875q0.15625 0.34375 0.484375 0.546875q0.34375 0.203125 0.96875 0.203125q0.46875 0 1.234375 -0.109375zm2.75 2.515625l0 -22.90625l2.8125 0l0 8.21875q1.96875 -2.28125 4.96875 -2.28125q1.84375 0 3.203125 0.734375q1.359375 0.71875 1.9375 2.0q0.59375 1.28125 0.59375 3.71875l0 10.515625l-2.8125 0l0 -10.515625q0 -2.109375 -0.921875 -3.0625q-0.90625 -0.96875 -2.578125 -0.96875q-1.25 0 -2.359375 0.65625q-1.09375 0.640625 -1.5625 1.75q-0.46875 1.109375 -0.46875 3.0625l0 9.078125l-2.8125 0zm17.8125 -19.671875l0 -3.234375l2.8125 0l0 3.234375l-2.8125 0zm0 19.671875l0 -16.59375l2.8125 0l0 16.59375l-2.8125 0zm7.09375 0l0 -16.59375l2.53125 0l0 2.359375q1.828125 -2.734375 5.28125 -2.734375q1.5 0 2.75 0.546875q1.265625 0.53125 1.890625 1.40625q0.625 0.875 0.875 2.078125q0.15625 0.78125 0.15625 2.734375l0 10.203125l-2.8125 0l0 -10.09375q0 -1.71875 -0.328125 -2.5625q-0.328125 -0.859375 -1.171875 -1.359375q-0.828125 -0.515625 -1.953125 -0.515625q-1.796875 0 -3.109375 1.140625q-1.296875 1.140625 -1.296875 4.328125l0 9.0625l-2.8125 0zm17.28125 1.375l2.734375 0.40625q0.171875 1.265625 0.953125 1.84375q1.046875 0.78125 2.859375 0.78125q1.953125 0 3.015625 -0.78125q1.0625 -0.78125 1.4375 -2.1875q0.21875 -0.859375 0.203125 -3.609375q-1.84375 2.171875 -4.59375 2.171875q-3.421875 0 -5.296875 -2.46875q-1.875 -2.46875 -1.875 -5.921875q0 -2.375 0.859375 -4.375q0.859375 -2.015625 2.484375 -3.109375q1.640625 -1.09375 3.84375 -1.09375q2.9375 0 4.84375 2.375l0 -2.0l2.59375 0l0 14.34375q0 3.875 -0.796875 5.484375q-0.78125 1.625 -2.5 2.5625q-1.703125 0.9375 -4.203125 0.9375q-2.96875 0 -4.796875 -1.34375q-1.828125 -1.328125 -1.765625 -4.015625zm2.328125 -9.96875q0 3.265625 1.296875 4.765625q1.296875 1.5 3.25 1.5q1.9375 0 3.25 -1.484375q1.3125 -1.5 1.3125 -4.6875q0 -3.046875 -1.359375 -4.59375q-1.34375 -1.546875 -3.25 -1.546875q-1.875 0 -3.1875 1.53125q-1.3125 1.515625 -1.3125 4.515625zm23.828125 0.296875q0 -4.609375 2.5625 -6.828125q2.140625 -1.84375 5.21875 -1.84375q3.421875 0 5.59375 2.25q2.171875 2.234375 2.171875 6.1875q0 3.203125 -0.96875 5.046875q-0.953125 1.828125 -2.796875 2.84375q-1.828125 1.015625 -4.0 1.015625q-3.484375 0 -5.640625 -2.234375q-2.140625 -2.234375 -2.140625 -6.4375zm2.890625 0q0 3.1875 1.390625 4.78125q1.390625 1.578125 3.5 1.578125q2.09375 0 3.484375 -1.59375q1.390625 -1.59375 1.390625 -4.859375q0 -3.078125 -1.40625 -4.65625q-1.390625 -1.59375 -3.46875 -1.59375q-2.109375 0 -3.5 1.578125q-1.390625 1.578125 -1.390625 4.765625zm15.953125 8.296875l0 -16.59375l2.53125 0l0 2.359375q1.828125 -2.734375 5.28125 -2.734375q1.5 0 2.75 0.546875q1.265625 0.53125 1.890625 1.40625q0.625 0.875 0.875 2.078125q0.15625 0.78125 0.15625 2.734375l0 10.203125l-2.8125 0l0 -10.09375q0 -1.71875 -0.328125 -2.5625q-0.328125 -0.859375 -1.171875 -1.359375q-0.828125 -0.515625 -1.953125 -0.515625q-1.796875 0 -3.109375 1.140625q-1.296875 1.140625 -1.296875 4.328125l0 9.0625l-2.8125 0zm32.828125 -2.515625l0.40625 2.484375q-1.1875 0.25 -2.125 0.25q-1.53125 0 -2.375 -0.484375q-0.84375 -0.484375 -1.1875 -1.265625q-0.34375 -0.796875 -0.34375 -3.328125l0 -9.546875l-2.0625 0l0 -2.1875l2.0625 0l0 -4.109375l2.796875 -1.6875l0 5.796875l2.828125 0l0 2.1875l-2.828125 0l0 9.703125q0 1.203125 0.140625 1.546875q0.15625 0.34375 0.484375 0.546875q0.34375 0.203125 0.96875 0.203125q0.46875 0 1.234375 -0.109375zm2.75 2.515625l0 -22.90625l2.8125 0l0 8.21875q1.96875 -2.28125 4.96875 -2.28125q1.84375 0 3.203125 0.734375q1.359375 0.71875 1.9375 2.0q0.59375 1.28125 0.59375 3.71875l0 10.515625l-2.8125 0l0 -10.515625q0 -2.109375 -0.921875 -3.0625q-0.90625 -0.96875 -2.578125 -0.96875q-1.25 0 -2.359375 0.65625q-1.09375 0.640625 -1.5625 1.75q-0.46875 1.109375 -0.46875 3.0625l0 9.078125l-2.8125 0zm17.8125 -19.671875l0 -3.234375l2.8125 0l0 3.234375l-2.8125 0zm0 19.671875l0 -16.59375l2.8125 0l0 16.59375l-2.8125 0zm5.96875 -4.953125l2.78125 -0.4375q0.234375 1.671875 1.296875 2.5625q1.078125 0.890625 3.0 0.890625q1.9375 0 2.875 -0.78125q0.9375 -0.796875 0.9375 -1.859375q0 -0.953125 -0.828125 -1.5q-0.578125 -0.375 -2.875 -0.953125q-3.09375 -0.78125 -4.296875 -1.34375q-1.1875 -0.578125 -1.8125 -1.578125q-0.609375 -1.015625 -0.609375 -2.234375q0 -1.109375 0.5 -2.046875q0.515625 -0.953125 1.390625 -1.578125q0.65625 -0.484375 1.78125 -0.8125q1.140625 -0.34375 2.4375 -0.34375q1.953125 0 3.421875 0.5625q1.484375 0.5625 2.1875 1.53125q0.703125 0.953125 0.96875 2.5625l-2.75 0.375q-0.1875 -1.28125 -1.09375 -2.0q-0.890625 -0.71875 -2.53125 -0.71875q-1.9375 0 -2.765625 0.640625q-0.828125 0.640625 -0.828125 1.5q0 0.546875 0.34375 0.984375q0.34375 0.453125 1.078125 0.75q0.421875 0.15625 2.484375 0.71875q2.984375 0.796875 4.15625 1.3125q1.1875 0.5 1.859375 1.46875q0.671875 0.96875 0.671875 2.40625q0 1.40625 -0.828125 2.65625q-0.8125 1.234375 -2.359375 1.921875q-1.546875 0.671875 -3.5 0.671875q-3.234375 0 -4.9375 -1.34375q-1.6875 -1.34375 -2.15625 -3.984375zm24.890625 0l2.78125 -0.4375q0.234375 1.671875 1.296875 2.5625q1.078125 0.890625 3.0 0.890625q1.9375 0 2.875 -0.78125q0.9375 -0.796875 0.9375 -1.859375q0 -0.953125 -0.828125 -1.5q-0.578125 -0.375 -2.875 -0.953125q-3.09375 -0.78125 -4.296875 -1.34375q-1.1875 -0.578125 -1.8125 -1.578125q-0.609375 -1.015625 -0.609375 -2.234375q0 -1.109375 0.5 -2.046875q0.515625 -0.953125 1.390625 -1.578125q0.65625 -0.484375 1.78125 -0.8125q1.140625 -0.34375 2.4375 -0.34375q1.953125 0 3.421875 0.5625q1.484375 0.5625 2.1875 1.53125q0.703125 0.953125 0.96875 2.5625l-2.75 0.375q-0.1875 -1.28125 -1.09375 -2.0q-0.890625 -0.71875 -2.53125 -0.71875q-1.9375 0 -2.765625 0.640625q-0.828125 0.640625 -0.828125 1.5q0 0.546875 0.34375 0.984375q0.34375 0.453125 1.078125 0.75q0.421875 0.15625 2.484375 0.71875q2.984375 0.796875 4.15625 1.3125q1.1875 0.5 1.859375 1.46875q0.671875 0.96875 0.671875 2.40625q0 1.40625 -0.828125 2.65625q-0.8125 1.234375 -2.359375 1.921875q-1.546875 0.671875 -3.5 0.671875q-3.234375 0 -4.9375 -1.34375q-1.6875 -1.34375 -2.15625 -3.984375zm17.140625 -14.71875l0 -3.234375l2.8125 0l0 3.234375l-2.8125 0zm0 19.671875l0 -16.59375l2.8125 0l0 16.59375l-2.8125 0zm17.859375 0l0 -2.09375q-1.578125 2.46875 -4.640625 2.46875q-1.984375 0 -3.65625 -1.09375q-1.65625 -1.09375 -2.578125 -3.046875q-0.90625 -1.96875 -0.90625 -4.515625q0 -2.484375 0.828125 -4.5q0.828125 -2.03125 2.484375 -3.109375q1.65625 -1.078125 3.703125 -1.078125q1.5 0 2.671875 0.640625q1.171875 0.625 1.90625 1.640625l0 -8.21875l2.796875 0l0 22.90625l-2.609375 0zm-8.890625 -8.28125q0 3.1875 1.34375 4.765625q1.34375 1.578125 3.171875 1.578125q1.84375 0 3.125 -1.5q1.296875 -1.515625 1.296875 -4.609375q0 -3.40625 -1.3125 -5.0q-1.3125 -1.59375 -3.234375 -1.59375q-1.875 0 -3.140625 1.53125q-1.25 1.53125 -1.25 4.828125zm27.28125 2.9375l2.90625 0.359375q-0.6875 2.546875 -2.546875 3.953125q-1.859375 1.40625 -4.75 1.40625q-3.640625 0 -5.78125 -2.234375q-2.125 -2.25 -2.125 -6.296875q0 -4.1875 2.15625 -6.5q2.15625 -2.3125 5.59375 -2.3125q3.328125 0 5.4375 2.265625q2.109375 2.265625 2.109375 6.375q0 0.25 -0.015625 0.75l-12.375 0q0.15625 2.734375 1.546875 4.1875q1.390625 1.453125 3.46875 1.453125q1.546875 0 2.640625 -0.8125q1.09375 -0.8125 1.734375 -2.59375zm-9.234375 -4.546875l9.265625 0q-0.1875 -2.09375 -1.0625 -3.140625q-1.34375 -1.625 -3.484375 -1.625q-1.9375 0 -3.265625 1.296875q-1.3125 1.296875 -1.453125 3.46875zm30.703125 7.375l0.40625 2.484375q-1.1875 0.25 -2.125 0.25q-1.53125 0 -2.375 -0.484375q-0.84375 -0.484375 -1.1875 -1.265625q-0.34375 -0.796875 -0.34375 -3.328125l0 -9.546875l-2.0625 0l0 -2.1875l2.0625 0l0 -4.109375l2.796875 -1.6875l0 5.796875l2.828125 0l0 2.1875l-2.828125 0l0 9.703125q0 1.203125 0.140625 1.546875q0.15625 0.34375 0.484375 0.546875q0.34375 0.203125 0.96875 0.203125q0.46875 0 1.234375 -0.109375zm1.703125 -5.78125q0 -4.609375 2.5625 -6.828125q2.140625 -1.84375 5.21875 -1.84375q3.421875 0 5.59375 2.25q2.171875 2.234375 2.171875 6.1875q0 3.203125 -0.96875 5.046875q-0.953125 1.828125 -2.796875 2.84375q-1.828125 1.015625 -4.0 1.015625q-3.484375 0 -5.640625 -2.234375q-2.140625 -2.234375 -2.140625 -6.4375zm2.890625 0q0 3.1875 1.390625 4.78125q1.390625 1.578125 3.5 1.578125q2.09375 0 3.484375 -1.59375q1.390625 -1.59375 1.390625 -4.859375q0 -3.078125 -1.40625 -4.65625q-1.390625 -1.59375 -3.46875 -1.59375q-2.109375 0 -3.5 1.578125q-1.390625 1.578125 -1.390625 4.765625zm14.90625 0q0 -4.609375 2.5625 -6.828125q2.140625 -1.84375 5.21875 -1.84375q3.421875 0 5.59375 2.25q2.171875 2.234375 2.171875 6.1875q0 3.203125 -0.96875 5.046875q-0.953125 1.828125 -2.796875 2.84375q-1.828125 1.015625 -4.0 1.015625q-3.484375 0 -5.640625 -2.234375q-2.140625 -2.234375 -2.140625 -6.4375zm2.890625 0q0 3.1875 1.390625 4.78125q1.390625 1.578125 3.5 1.578125q2.09375 0 3.484375 -1.59375q1.390625 -1.59375 1.390625 -4.859375q0 -3.078125 -1.40625 -4.65625q-1.390625 -1.59375 -3.46875 -1.59375q-2.109375 0 -3.5 1.578125q-1.390625 1.578125 -1.390625 4.765625z" fill-rule="nonzero"></path><path fill="#000000" d="m256.43713 573.5735q-2.328125 -2.9375 -3.9375 -6.875q-1.609375 -3.9375 -1.609375 -8.15625q0 -3.71875 1.203125 -7.125q1.40625 -3.953125 4.34375 -7.875l2.015625 0q-1.890625 3.25 -2.5 4.640625q-0.953125 2.15625 -1.5 4.5q-0.671875 2.921875 -0.671875 5.875q0 7.515625 4.671875 15.015625l-2.015625 0zm19.28125 -9.4375l0 2.703125l-15.140625 0q-0.03125 -1.015625 0.328125 -1.953125q0.578125 -1.546875 1.84375 -3.046875q1.28125 -1.5 3.6875 -3.46875q3.734375 -3.0625 5.046875 -4.84375q1.3125 -1.796875 1.3125 -3.390625q0 -1.671875 -1.203125 -2.8125q-1.1875 -1.15625 -3.109375 -1.15625q-2.03125 0 -3.25 1.21875q-1.21875 1.21875 -1.234375 3.375l-2.890625 -0.296875q0.296875 -3.234375 2.234375 -4.921875q1.9375 -1.703125 5.203125 -1.703125q3.296875 0 5.21875 1.828125q1.921875 1.828125 1.921875 4.53125q0 1.375 -0.5625 2.703125q-0.5625 1.328125 -1.875 2.796875q-1.296875 1.46875 -4.328125 4.03125q-2.53125 2.125 -3.25 2.890625q-0.71875 0.75 -1.1875 1.515625l11.234375 0zm11.640625 -5.59375q0 -4.609375 2.5625 -6.828125q2.140625 -1.84375 5.21875 -1.84375q3.421875 0 5.59375 2.25q2.171875 2.234375 2.171875 6.1875q0 3.203125 -0.96875 5.046875q-0.953125 1.828125 -2.796875 2.84375q-1.828125 1.015625 -4.0 1.015625q-3.484375 0 -5.640625 -2.234375q-2.140625 -2.234375 -2.140625 -6.4375zm2.890625 0q0 3.1875 1.390625 4.78125q1.390625 1.578125 3.5 1.578125q2.09375 0 3.484375 -1.59375q1.390625 -1.59375 1.390625 -4.859375q0 -3.078125 -1.40625 -4.65625q-1.390625 -1.59375 -3.46875 -1.59375q-2.109375 0 -3.5 1.578125q-1.390625 1.578125 -1.390625 4.765625zm16.625 8.296875l0 -14.40625l-2.484375 0l0 -2.1875l2.484375 0l0 -1.765625q0 -1.671875 0.296875 -2.484375q0.40625 -1.09375 1.421875 -1.765625q1.03125 -0.6875 2.875 -0.6875q1.1875 0 2.625 0.28125l-0.421875 2.453125q-0.875 -0.15625 -1.65625 -0.15625q-1.28125 0 -1.8125 0.546875q-0.53125 0.546875 -0.53125 2.046875l0 1.53125l3.234375 0l0 2.1875l-3.234375 0l0 14.40625l-2.796875 0zm23.25 -2.515625l0.40625 2.484375q-1.1875 0.25 -2.125 0.25q-1.53125 0 -2.375 -0.484375q-0.84375 -0.484375 -1.1875 -1.265625q-0.34375 -0.796875 -0.34375 -3.328125l0 -9.546875l-2.0625 0l0 -2.1875l2.0625 0l0 -4.109375l2.796875 -1.6875l0 5.796875l2.828125 0l0 2.1875l-2.828125 0l0 9.703125q0 1.203125 0.140625 1.546875q0.15625 0.34375 0.484375 0.546875q0.34375 0.203125 0.96875 0.203125q0.46875 0 1.234375 -0.109375zm2.75 2.515625l0 -22.90625l2.8125 0l0 8.21875q1.96875 -2.28125 4.96875 -2.28125q1.84375 0 3.203125 0.734375q1.359375 0.71875 1.9375 2.0q0.59375 1.28125 0.59375 3.71875l0 10.515625l-2.8125 0l0 -10.515625q0 -2.109375 -0.921875 -3.0625q-0.90625 -0.96875 -2.578125 -0.96875q-1.25 0 -2.359375 0.65625q-1.09375 0.640625 -1.5625 1.75q-0.46875 1.109375 -0.46875 3.0625l0 9.078125l-2.8125 0zm29.15625 -5.34375l2.90625 0.359375q-0.6875 2.546875 -2.546875 3.953125q-1.859375 1.40625 -4.75 1.40625q-3.640625 0 -5.78125 -2.234375q-2.125 -2.25 -2.125 -6.296875q0 -4.1875 2.15625 -6.5q2.15625 -2.3125 5.59375 -2.3125q3.328125 0 5.4375 2.265625q2.109375 2.265625 2.109375 6.375q0 0.25 -0.015625 0.75l-12.375 0q0.15625 2.734375 1.546875 4.1875q1.390625 1.453125 3.46875 1.453125q1.546875 0 2.640625 -0.8125q1.09375 -0.8125 1.734375 -2.59375zm-9.234375 -4.546875l9.265625 0q-0.1875 -2.09375 -1.0625 -3.140625q-1.34375 -1.625 -3.484375 -1.625q-1.9375 0 -3.265625 1.296875q-1.3125 1.296875 -1.453125 3.46875zm15.671875 9.890625l0 -16.59375l2.515625 0l0 2.328125q0.78125 -1.21875 2.078125 -1.953125q1.296875 -0.75 2.953125 -0.75q1.84375 0 3.015625 0.765625q1.1875 0.765625 1.671875 2.140625q1.96875 -2.90625 5.125 -2.90625q2.46875 0 3.796875 1.375q1.328125 1.359375 1.328125 4.203125l0 11.390625l-2.796875 0l0 -10.453125q0 -1.6875 -0.28125 -2.421875q-0.265625 -0.75 -0.984375 -1.203125q-0.71875 -0.453125 -1.6875 -0.453125q-1.75 0 -2.90625 1.171875q-1.15625 1.15625 -1.15625 3.71875l0 9.640625l-2.8125 0l0 -10.78125q0 -1.875 -0.6875 -2.8125q-0.6875 -0.9375 -2.25 -0.9375q-1.1875 0 -2.203125 0.625q-1.0 0.625 -1.453125 1.828125q-0.453125 1.203125 -0.453125 3.46875l0 8.609375l-2.8125 0zm28.5 6.734375l-2.015625 0q4.671875 -7.5 4.671875 -15.015625q0 -2.9375 -0.671875 -5.828125q-0.53125 -2.34375 -1.484375 -4.5q-0.609375 -1.40625 -2.515625 -4.6875l2.015625 0q2.9375 3.921875 4.34375 7.875q1.203125 3.40625 1.203125 7.125q0 4.21875 -1.625 8.15625q-1.609375 3.9375 -3.921875 6.875z" fill-rule="nonzero"></path></g></svg>

