<?xml version="1.0" standalone="yes"?>

<svg version="1.1" viewBox="0.0 0.0 960.0 720.0" fill="none" stroke="none" stroke-linecap="square" stroke-miterlimit="10" xmlns="http://www.w3.org/2000/svg" xmlns:xlink="http://www.w3.org/1999/xlink"><clipPath id="p.0"><path d="m0 0l960.0 0l0 720.0l-960.0 0l0 -720.0z" clip-rule="nonzero"></path></clipPath><g clip-path="url(#p.0)"><path fill="#000000" fill-opacity="0.0" d="m0 0l960.0 0l0 720.0l-960.0 0z" fill-rule="nonzero"></path><path fill="#cfe2f3" d="m93.75638 71.485565l244.59842 0l0 241.41733l-244.59842 0z" fill-rule="nonzero"></path><path stroke="#000000" stroke-width="2.0" stroke-linejoin="round" stroke-linecap="butt" d="m93.75638 71.485565l244.59842 0l0 241.41733l-244.59842 0z" fill-rule="nonzero"></path><path fill="#b6d7a8" d="m156.76425 205.26689l-63.02362 106.80315l244.62991 0.3779602z" fill-rule="nonzero"></path><path stroke="#000000" stroke-width="2.0" stroke-linejoin="round" stroke-linecap="butt" d="m156.76425 205.26689l-63.02362 106.80315l244.62991 0.3779602z" fill-rule="nonzero"></path><path fill="#b6d7a8" d="m275.34692 179.43488l63.02362 -106.80315l-244.62991 -0.37795258z" fill-rule="nonzero"></path><path stroke="#000000" stroke-width="2.0" stroke-linejoin="round" stroke-linecap="butt" d="m275.34692 179.43488l63.02362 -106.80315l-244.62991 -0.37795258z" fill-rule="nonzero"></path><path fill="#b6d7a8" d="m232.66527 250.10114l106.80315 63.02362l-2.3306885 -240.0315z" fill-rule="nonzero"></path><path stroke="#000000" stroke-width="2.0" stroke-linejoin="round" stroke-linecap="butt" d="m232.66527 250.10114l106.80315 63.02362l-2.3306885 -240.0315z" fill-rule="nonzero"></path><path fill="#b6d7a8" d="m198.84375 134.50919l-106.80315 -63.02362l2.3307037 240.0315z" fill-rule="nonzero"></path><path stroke="#000000" stroke-width="2.0" stroke-linejoin="round" stroke-linecap="butt" d="m198.84375 134.50919l-106.80315 -63.02362l2.3307037 240.0315z" fill-rule="nonzero"></path><path fill="#000000" fill-opacity="0.0" d="m323.22913 159.54347l32.06299 17.291336l-22.803162 42.23622l-32.06299 -17.291336z" fill-rule="nonzero"></path><path fill="#ff9900" d="m326.19583 189.17433q-1.2037354 0.25621033 -2.1160278 0.13702393q-0.9048462 -0.13293457 -1.7712402 -0.6001892q-1.4165344 -0.763916 -1.8155212 -1.8666992q-0.39157104 -1.1165466 0.19485474 -2.2027283q0.34887695 -0.6462097 0.9197693 -1.0129242q0.57089233 -0.36671448 1.209198 -0.43077087q0.6383362 -0.064071655 1.3187561 0.08985901q0.506897 0.113586426 1.4252625 0.48460388q1.9066162 0.74417114 2.9013977 0.90786743q0.16333008 -0.30249023 0.20785522 -0.38497925q0.48251343 -0.893692 0.27035522 -1.4874268q-0.29663086 -0.79904175 -1.4105835 -1.3997955q-1.0314636 -0.55625916 -1.7195435 -0.46577454q-0.68811035 0.09046936 -1.4266663 0.89933777l-1.3326721 -0.98498535q0.7036438 -0.8099518 1.4480591 -1.136322q0.7581787 -0.31896973 1.7604065 -0.16903687q1.0233765 0.14360046 2.1510925 0.75177q1.1139832 0.6007538 1.660553 1.2328186q0.54660034 0.6320648 0.66137695 1.208786q0.11480713 0.57673645 -0.08804321 1.2484436q-0.117889404 0.4157257 -0.644928 1.3919067l-1.0615234 1.9661255q-1.1060181 2.0486298 -1.3204346 2.643097q-0.1932373 0.5881195 -0.17166138 1.2388458l-1.5402832 -0.8306732q0.011169434 -0.57980347 0.29019165 -1.2281799zm1.6429138 -3.339035q-0.9683838 -0.11393738 -2.7036133 -0.7479553q-0.9744873 -0.36575317 -1.4348755 -0.40101624q-0.4604187 -0.03526306 -0.83743286 0.16972351q-0.37701416 0.20497131 -0.5848694 0.58995056q-0.31918335 0.59121704 -0.09436035 1.2272644q0.24597168 0.6297302 1.0986328 1.0895691q0.85266113 0.4598236 1.7132263 0.44459534q0.86795044 -0.02897644 1.5257263 -0.49084473q0.50845337 -0.3826294 1.0280762 -1.3450775l0.28948975 -0.5362091z" fill-rule="nonzero"></path><path fill="#000000" fill-opacity="0.0" d="m345.68713 79.61079l0 0c5.801178 3.4702606 10.035187 7.0672836 9.45694 8.034172l-49.968994 83.55371c-0.5782471 0.9668884 3.6557617 4.563904 9.45694 8.034164l0 0c-5.801178 -3.4702606 -10.972687 -5.499649 -11.550934 -4.5327606l-49.968994 83.55371c-0.5782471 0.9668884 -5.749771 -1.0625 -11.550934 -4.5327606z" fill-rule="nonzero"></path><path fill="#000000" fill-opacity="0.0" d="m345.68713 79.61079l0 0c5.801178 3.4702606 10.035187 7.0672836 9.45694 8.034172l-49.968994 83.55371c-0.5782471 0.9668884 3.6557617 4.563904 9.45694 8.034164l0 0c-5.801178 -3.4702606 -10.972687 -5.499649 -11.550934 -4.5327606l-49.968994 83.55371c-0.5782471 0.9668884 -5.749771 -1.0625 -11.550934 -4.5327606" fill-rule="nonzero"></path><path stroke="#ff9900" stroke-width="2.0" stroke-linejoin="round" stroke-linecap="butt" d="m345.68713 79.61079l0 0c5.801178 3.4702606 10.035187 7.0672836 9.45694 8.034172l-49.968994 83.55371c-0.5782471 0.9668884 3.6557617 4.563904 9.45694 8.034164l0 0c-5.801178 -3.4702606 -10.972687 -5.499649 -11.550934 -4.5327606l-49.968994 83.55371c-0.5782471 0.9668884 -5.749771 -1.0625 -11.550934 -4.5327606" fill-rule="nonzero"></path><path fill="#000000" fill-opacity="0.0" d="m267.93134 173.12476l0 0c-4.966217 -2.9397125 -8.992065 -5.322891 -8.992035 -5.322983l32.081818 -54.163048c3.0517578E-5 -8.392334E-5 -4.025818 -2.3832626 -8.992035 -5.322983l0 0c2.3848572 1.411705 4.6720276 2.7655716 6.3583984 3.763771c1.6863708 0.99819183 2.633789 1.5589523 2.6338196 1.5589142l31.067535 -52.450676c3.0517578E-5 -8.392334E-5 4.026001 2.382965 8.9921875 5.3226852z" fill-rule="nonzero"></path><path fill="#000000" fill-opacity="0.0" d="m267.93134 173.12476l0 0c-4.966217 -2.9397125 -8.992065 -5.322891 -8.992035 -5.322983l32.081818 -54.163048c3.0517578E-5 -8.392334E-5 -4.025818 -2.3832626 -8.992035 -5.322983l0 0c2.3848572 1.411705 4.6720276 2.7655716 6.3583984 3.763771c1.6863708 0.99819183 2.633789 1.5589523 2.6338196 1.5589142l31.067535 -52.450676c3.0517578E-5 -8.392334E-5 4.026001 2.382965 8.9921875 5.3226852" fill-rule="nonzero"></path><path stroke="#4a86e8" stroke-width="2.0" stroke-linejoin="round" stroke-linecap="butt" d="m267.93134 173.12476l0 0c-4.966217 -2.9397125 -8.992065 -5.322891 -8.992035 -5.322983l32.081818 -54.163048c3.0517578E-5 -8.392334E-5 -4.025818 -2.3832626 -8.992035 -5.322983l0 0c2.3848572 1.411705 4.6720276 2.7655716 6.3583984 3.763771c1.6863708 0.99819183 2.633789 1.5589523 2.6338196 1.5589142l31.067535 -52.450676c3.0517578E-5 -8.392334E-5 4.026001 2.382965 8.9921875 5.3226852" fill-rule="nonzero"></path><path fill="#000000" fill-opacity="0.0" d="m264.3643 71.485565l32.06302 17.291336l-22.803162 42.23622l-32.06299 -17.291336z" fill-rule="nonzero"></path><path fill="#4a86e8" d="m262.44745 99.86745l-1.3615112 -0.7342529l6.4580994 -11.961731l1.4577637 0.78616333l-2.3011475 4.26223q1.5661316 -0.6643448 3.0101624 0.1144104q0.79763794 0.43016052 1.3346252 1.145813q0.5444031 0.70189667 0.67904663 1.537857q0.15582275 0.829628 -0.028289795 1.7954941q-0.18408203 0.9658661 -0.6888428 1.9008026q-1.2025452 2.227356 -2.9634094 2.8576965q-1.7534485 0.6165924 -3.2937317 -0.21408081q-1.5402832 -0.8306656 -1.7163391 -2.5765839l-0.5864258 1.0861816zm2.3616333 -4.407135q-0.83880615 1.5536499 -0.8048096 2.477356q0.092681885 1.5056763 1.2754211 2.143509q0.962677 0.51917267 2.109436 0.07247162q1.1541748 -0.46044922 2.0523987 -2.124092q0.9130249 -1.6911392 0.677124 -2.8657532q-0.2359314 -1.174614 -1.184845 -1.6863632q-0.962677 -0.51917267 -2.1168823 -0.05872345q-1.1542053 0.46044922 -2.007843 2.0415955z" fill-rule="nonzero"></path><path fill="#000000" fill-opacity="0.0" d="m232.43002 241.13525l0 0c-4.966202 -2.9397125 -8.992081 -5.322891 -8.992035 -5.322983l18.289001 -30.865677c4.5776367E-5 -7.6293945E-5 -4.025833 -2.383255 -8.99205 -5.322983l0 0c2.3848724 1.4117126 4.672058 2.7655792 6.358429 3.7637787c1.6863708 0.99819946 2.6337738 1.5589447 2.633789 1.5589142l17.71074 -29.889786c6.1035156E-5 -7.6293945E-5 4.026001 2.382965 8.992218 5.3226776z" fill-rule="nonzero"></path><path fill="#000000" fill-opacity="0.0" d="m232.43002 241.13525l0 0c-4.966202 -2.9397125 -8.992081 -5.322891 -8.992035 -5.322983l18.289001 -30.865677c4.5776367E-5 -7.6293945E-5 -4.025833 -2.383255 -8.99205 -5.322983l0 0c2.3848724 1.4117126 4.672058 2.7655792 6.358429 3.7637787c1.6863708 0.99819946 2.6337738 1.5589447 2.633789 1.5589142l17.71074 -29.889786c6.1035156E-5 -7.6293945E-5 4.026001 2.382965 8.992218 5.3226776" fill-rule="nonzero"></path><path stroke="#ff0000" stroke-width="2.0" stroke-linejoin="round" stroke-linecap="butt" d="m232.43002 241.13525l0 0c-4.966202 -2.9397125 -8.992081 -5.322891 -8.992035 -5.322983l18.289001 -30.865677c4.5776367E-5 -7.6293945E-5 -4.025833 -2.383255 -8.99205 -5.322983l0 0c2.3848724 1.4117126 4.672058 2.7655792 6.358429 3.7637787c1.6863708 0.99819946 2.6337738 1.5589447 2.633789 1.5589142l17.71074 -29.889786c6.1035156E-5 -7.6293945E-5 4.026001 2.382965 8.992218 5.3226776" fill-rule="nonzero"></path><path fill="#000000" fill-opacity="0.0" d="m194.94972 205.45407l25.259842 -42.23622l26.236221 15.716537l-25.259842 42.23622z" fill-rule="nonzero"></path><path fill="#ff0000" d="m224.67987 203.81105q0.20240784 1.2140961 0.042800903 2.1202545q-0.17300415 0.89811707 -0.67826843 1.7429352q-0.82603455 1.3812103 -1.9453583 1.7306824q-1.132721 0.34144592 -2.1916351 -0.29289246q-0.6299896 -0.37738037 -0.97091675 -0.9641113q-0.34094238 -0.58673096 -0.3765564 -1.2273407q-0.035614014 -0.64060974 0.14839172 -1.3135834q0.13600159 -0.50138855 0.5474243 -1.4024048q0.828125 -1.8717499 1.0358429 -2.858368q-0.2948761 -0.176651 -0.37530518 -0.224823q-0.8712616 -0.5219116 -1.4737701 -0.33642578q-0.8113556 0.2607422 -1.460968 1.3469391q-0.6014862 1.005722 -0.5417023 1.6972504q0.059799194 0.69151306 0.8349304 1.4654999l-1.0431519 1.2875824q-0.777771 -0.73913574 -1.070694 -1.4974518q-0.2849121 -0.7717285 -0.09059143 -1.7663879q0.18894958 -1.0160828 0.8465729 -2.1156769q0.6496124 -1.0861969 1.3052826 -1.604126q0.65567017 -0.5179291 1.2368622 -0.6069031q0.581192 -0.08898926 1.2431488 0.14363098q0.41001892 0.13633728 1.3617096 0.70643616l1.9167786 1.1482239q1.9971924 1.1963959 2.5814667 1.4371185q0.5789032 0.21928406 1.2298584 0.2267456l-0.8982239 1.5018921q-0.5786743 -0.037002563 -1.2139282 -0.34469604zm-3.262329 -1.7903442q-0.15686035 0.9624481 -0.8673248 2.6678925q-0.40867615 0.95732117 -0.46435547 1.4157257q-0.05569458 0.4584198 0.1322937 0.84425354q0.18800354 0.38581848 0.5633087 0.61065674q0.57637024 0.34526062 1.2217255 0.14900208q0.6399689 -0.21769714 1.137207 -1.0491028q0.4972229 -0.83140564 0.52027893 -1.691864q0.009643555 -0.86849976 -0.42248535 -1.5462799q-0.35961914 -0.5250702 -1.2978973 -1.0871277l-0.52275085 -0.31315613zm2.5019531 -2.50914l-1.4476318 -0.8671875l2.6305237 -4.398407l1.4476318 0.8671875l-2.6305237 4.398407zm7.810028 -5.1135406l-0.79397583 1.3275604l-11.661484 -6.9856873l0.8501129 -1.4214325l4.1552277 2.489151q-0.5939789 -1.5943756 0.24810791 -3.002411q0.46514893 -0.77775574 1.2038727 -1.2823639q0.72532654 -0.5126343 1.5663605 -0.60987854q0.8356476 -0.11869812 1.7922668 0.108291626q0.95661926 0.22698975 1.8680878 0.772995q2.1714478 1.3007812 2.7228088 3.0881958q0.53796387 1.7793732 -0.36026 3.2812805q-0.8982239 1.5018921 -2.650055 1.5999603l1.0589294 0.6343384zm-4.2973022 -2.5560455q1.5146484 0.9073334 2.4388428 0.9145508q1.5081482 -0.025482178 2.1978607 -1.1787262q0.5613861 -0.9386749 0.16615295 -2.1043549q-0.40863037 -1.1736908 -2.0305176 -2.1452637q-1.6486816 -0.9876404 -2.832489 -0.80430603q-1.1838226 0.18334961 -1.7371826 1.1086121q-0.56140137 0.9386902 -0.152771 2.1123962q0.40863037 1.1736908 1.9501038 2.0970917z" fill-rule="nonzero"></path><path fill="#000000" fill-opacity="0.0" d="m202.19382 19.853018l37.007874 0l0 48.0l-37.007874 0z" fill-rule="nonzero"></path><path fill="#000000" d="m218.88132 42.13427l1.640625 0.21875q-0.265625 1.6875 -1.375 2.65625q-1.109375 0.953125 -2.734375 0.953125q-2.015625 0 -3.25 -1.3125q-1.21875 -1.328125 -1.21875 -3.796875q0 -1.59375 0.515625 -2.78125q0.53125 -1.203125 1.609375 -1.796875q1.09375 -0.609375 2.359375 -0.609375q1.609375 0 2.625 0.8125q1.015625 0.8125 1.3125 2.3125l-1.625 0.25q-0.234375 -1.0 -0.828125 -1.5q-0.59375 -0.5 -1.421875 -0.5q-1.265625 0 -2.0625 0.90625q-0.78125 0.90625 -0.78125 2.859375q0 1.984375 0.765625 2.890625q0.765625 0.890625 1.984375 0.890625q0.984375 0 1.640625 -0.59375q0.65625 -0.609375 0.84375 -1.859375z" fill-rule="nonzero"></path></g></svg>

