<?xml version="1.0" standalone="yes"?>

<svg version="1.1" viewBox="0.0 0.0 960.0 720.0" fill="none" stroke="none" stroke-linecap="square" stroke-miterlimit="10" xmlns="http://www.w3.org/2000/svg" xmlns:xlink="http://www.w3.org/1999/xlink"><clipPath id="p.0"><path d="m0 0l960.0 0l0 720.0l-960.0 0l0 -720.0z" clip-rule="nonzero"></path></clipPath><g clip-path="url(#p.0)"><path fill="#000000" fill-opacity="0.0" d="m0 0l960.0 0l0 720.0l-960.0 0z" fill-rule="nonzero"></path><path fill="#000000" fill-opacity="0.0" d="m513.9685 99.600945l0 0c64.57916 0 126.51337 25.132996 172.17773 69.87002c45.664368 44.73703 71.3183 105.41347 71.3183 168.68117l-243.49603 0z" fill-rule="nonzero"></path><path stroke="#000000" stroke-width="2.0" stroke-linejoin="round" stroke-linecap="butt" d="m513.9685 99.600945l0 0c64.57916 0 126.51337 25.132996 172.17773 69.87002c45.664368 44.73703 71.3183 105.41347 71.3183 168.68117l-243.49603 0z" fill-rule="nonzero"></path><path fill="#cfe2f3" d="m735.1744 337.36652l0 -93.98425l-219.9685 93.98425z" fill-rule="nonzero"></path><path stroke="#000000" stroke-width="2.0" stroke-linejoin="round" stroke-linecap="butt" d="m735.1744 337.36652l0 -93.98425l-219.9685 93.98425z" fill-rule="nonzero"></path><path fill="#cfe2f3" d="m717.4439 249.4295l-37.543335 -86.14172l-164.09448 174.07874z" fill-rule="nonzero"></path><path stroke="#000000" stroke-width="2.0" stroke-linejoin="round" stroke-linecap="butt" d="m717.4439 249.4295l-37.543335 -86.14172l-164.09448 174.07874z" fill-rule="nonzero"></path><path fill="#000000" fill-opacity="0.0" d="m679.9006 163.28778l-3.3700562 175.68503" fill-rule="nonzero"></path><path stroke="#000000" stroke-width="2.0" stroke-linejoin="round" stroke-linecap="butt" d="m679.9006 163.28778l-3.3700562 175.68503" fill-rule="nonzero"></path><path fill="#000000" fill-opacity="0.0" d="m648.42896 284.34186l37.259827 0l0 41.385834l-37.259827 0z" fill-rule="nonzero"></path><path fill="#000000" d="m665.11646 309.01373q-0.9375 0.796875 -1.796875 1.125q-0.859375 0.3125 -1.84375 0.3125q-1.609375 0 -2.484375 -0.78125q-0.875 -0.796875 -0.875 -2.03125q0 -0.734375 0.328125 -1.328125q0.328125 -0.59375 0.859375 -0.953125q0.53125 -0.359375 1.203125 -0.546875q0.5 -0.140625 1.484375 -0.25q2.03125 -0.25 2.984375 -0.578125q0 -0.34375 0 -0.4375q0 -1.015625 -0.46875 -1.4375q-0.640625 -0.5625 -1.90625 -0.5625q-1.171875 0 -1.734375 0.40625q-0.5625 0.40625 -0.828125 1.46875l-1.640625 -0.234375q0.234375 -1.046875 0.734375 -1.6875q0.515625 -0.640625 1.46875 -0.984375q0.96875 -0.359375 2.25 -0.359375q1.265625 0 2.046875 0.296875q0.78125 0.296875 1.15625 0.75q0.375 0.453125 0.515625 1.140625q0.09375 0.421875 0.09375 1.53125l0 2.234375q0 2.328125 0.09375 2.953125q0.109375 0.609375 0.4375 1.171875l-1.75 0q-0.265625 -0.515625 -0.328125 -1.21875zm-0.140625 -3.71875q-0.90625 0.359375 -2.734375 0.625q-1.03125 0.140625 -1.453125 0.328125q-0.421875 0.1875 -0.65625 0.546875q-0.234375 0.359375 -0.234375 0.796875q0 0.671875 0.5 1.125q0.515625 0.4375 1.484375 0.4375q0.96875 0 1.71875 -0.421875q0.75 -0.4375 1.109375 -1.15625q0.265625 -0.578125 0.265625 -1.671875l0 -0.609375z" fill-rule="nonzero"></path><path fill="#000000" d="m672.27344 317.23248l-1.046875 0l0 -6.71875q-0.390625 0.359375 -1.015625 0.734375q-0.609375 0.359375 -1.09375 0.53125l0 -1.015625q0.875 -0.421875 1.53125 -1.0q0.671875 -0.59375 0.953125 -1.15625l0.671875 0l0 8.625z" fill-rule="nonzero"></path><path fill="#000000" fill-opacity="0.0" d="m650.93024 201.99644l37.259888 0l0 41.38582l-37.259888 0z" fill-rule="nonzero"></path><path fill="#000000" d="m662.7271 227.88707l-1.546875 0l0 -13.59375l1.65625 0l0 4.84375q1.0625 -1.328125 2.703125 -1.328125q0.90625 0 1.71875 0.375q0.8125 0.359375 1.328125 1.03125q0.53125 0.65625 0.828125 1.59375q0.296875 0.9375 0.296875 2.0q0 2.53125 -1.25 3.921875q-1.25 1.375 -3.0 1.375q-1.75 0 -2.734375 -1.453125l0 1.234375zm-0.015625 -5.0q0 1.765625 0.46875 2.5625q0.796875 1.28125 2.140625 1.28125q1.09375 0 1.890625 -0.9375q0.796875 -0.953125 0.796875 -2.84375q0 -1.921875 -0.765625 -2.84375q-0.765625 -0.921875 -1.84375 -0.921875q-1.09375 0 -1.890625 0.953125q-0.796875 0.953125 -0.796875 2.75z" fill-rule="nonzero"></path><path fill="#000000" d="m674.7747 234.88707l-1.046875 0l0 -6.71875q-0.390625 0.359375 -1.015625 0.734375q-0.609375 0.359375 -1.09375 0.53125l0 -1.015625q0.875 -0.421875 1.53125 -1.0q0.671875 -0.59375 0.953125 -1.15625l0.671875 0l0 8.625z" fill-rule="nonzero"></path><path fill="#000000" fill-opacity="0.0" d="m729.42896 269.6815l37.259827 0l0 41.385803l-37.259827 0z" fill-rule="nonzero"></path><path fill="#000000" d="m746.11646 294.35336q-0.9375 0.796875 -1.796875 1.125q-0.859375 0.3125 -1.84375 0.3125q-1.609375 0 -2.484375 -0.78125q-0.875 -0.796875 -0.875 -2.03125q0 -0.734375 0.328125 -1.328125q0.328125 -0.59375 0.859375 -0.953125q0.53125 -0.359375 1.203125 -0.546875q0.5 -0.140625 1.484375 -0.25q2.03125 -0.25 2.984375 -0.578125q0 -0.34375 0 -0.4375q0 -1.015625 -0.46875 -1.4375q-0.640625 -0.5625 -1.90625 -0.5625q-1.171875 0 -1.734375 0.40625q-0.5625 0.40625 -0.828125 1.46875l-1.640625 -0.234375q0.234375 -1.046875 0.734375 -1.6875q0.515625 -0.640625 1.46875 -0.984375q0.96875 -0.359375 2.25 -0.359375q1.265625 0 2.046875 0.296875q0.78125 0.296875 1.15625 0.75q0.375 0.453125 0.515625 1.140625q0.09375 0.421875 0.09375 1.53125l0 2.234375q0 2.328125 0.09375 2.953125q0.109375 0.609375 0.4375 1.171875l-1.75 0q-0.265625 -0.515625 -0.328125 -1.21875zm-0.140625 -3.71875q-0.90625 0.359375 -2.734375 0.625q-1.03125 0.140625 -1.453125 0.328125q-0.421875 0.1875 -0.65625 0.546875q-0.234375 0.359375 -0.234375 0.796875q0 0.671875 0.5 1.125q0.515625 0.4375 1.484375 0.4375q0.96875 0 1.71875 -0.421875q0.75 -0.4375 1.109375 -1.15625q0.265625 -0.578125 0.265625 -1.671875l0 -0.609375z" fill-rule="nonzero"></path><path fill="#000000" d="m754.85156 301.5565l0 1.015625l-5.6875 0q0 -0.375 0.125 -0.734375q0.21875 -0.578125 0.6875 -1.140625q0.484375 -0.5625 1.390625 -1.296875q1.40625 -1.15625 1.890625 -1.828125q0.5 -0.671875 0.5 -1.265625q0 -0.625 -0.453125 -1.046875q-0.453125 -0.4375 -1.171875 -0.4375q-0.765625 0 -1.21875 0.453125q-0.453125 0.453125 -0.46875 1.265625l-1.078125 -0.109375q0.109375 -1.21875 0.828125 -1.84375q0.734375 -0.640625 1.96875 -0.640625q1.234375 0 1.953125 0.6875q0.71875 0.6875 0.71875 1.703125q0 0.515625 -0.21875 1.015625q-0.203125 0.484375 -0.703125 1.046875q-0.484375 0.546875 -1.609375 1.5q-0.953125 0.796875 -1.234375 1.09375q-0.265625 0.28125 -0.4375 0.5625l4.21875 0z" fill-rule="nonzero"></path><path fill="#000000" fill-opacity="0.0" d="m697.616 187.42805l33.29138 -16.755905l18.614136 36.976364l-33.29132 16.75592z" fill-rule="nonzero"></path><path fill="#000000" d="m719.79517 205.2501l-1.3817749 0.6954346l-6.1123657 -12.142014l1.4794312 -0.74461365l2.1779785 4.326462q0.35186768 -1.663971 1.8173218 -2.4015503q0.8095093 -0.4074402 1.7039185 -0.4377594q0.8873291 -0.044296265 1.6500244 0.3240204q0.7695923 0.34732056 1.4563599 1.051239q0.68670654 0.70391846 1.1644287 1.6529388q1.1381836 2.2609406 0.6469116 4.0650177q-0.49829102 1.7901306 -2.0614624 2.5769043q-1.5631714 0.7867584 -3.0958252 -0.06863403l0.5550537 1.1025543zm-2.262207 -4.459015q0.7938843 1.5770721 1.5709229 2.0781097q1.2879028 0.78616333 2.4882202 0.18203735q0.9769287 -0.49171448 1.2672119 -1.6873627q0.28326416 -1.2095947 -0.56689453 -2.8983154q-0.86413574 -1.716629 -1.9625244 -2.1958466q-1.0984497 -0.47921753 -2.0614624 0.005493164q-0.97698975 0.49171448 -1.2601929 1.7013092q-0.28326416 1.2095947 0.52471924 2.8145752z" fill-rule="nonzero"></path><path fill="#000000" d="m734.65704 204.46956l0.45666504 0.9071655l-5.0803223 2.5569763q-0.1685791 -0.33494568 -0.2185669 -0.71214294q-0.06451416 -0.61473083 0.101257324 -1.3278961q0.17974854 -0.7201996 0.6589966 -1.7835693q0.7362671 -1.6649933 0.8668213 -2.4828796q0.14447021 -0.82492065 -0.12249756 -1.3552551q-0.28100586 -0.55825806 -0.8754883 -0.731369q-0.6014404 -0.1870575 -1.2434692 0.13607788q-0.6838989 0.34420776 -0.8848877 0.952652q-0.20098877 0.6084595 0.15039062 1.341217l-1.012207 0.3869934q-0.45031738 -1.1377563 -0.08929443 -2.0191498q0.3678589 -0.90237427 1.470459 -1.4573212q1.1026001 -0.5549469 2.053772 -0.2639923q0.9511719 0.29093933 1.4078369 1.1981049q0.23181152 0.46055603 0.26123047 1.0055084q0.036376953 0.5239563 -0.1572876 1.2511749q-0.18676758 0.7062378 -0.76312256 2.0633545q-0.493042 1.140274 -0.6107788 1.5318909q-0.110839844 0.370636 -0.13787842 0.6991272l3.7683716 -1.8966675z" fill-rule="nonzero"></path><path fill="#000000" fill-opacity="0.0" d="m669.86633 229.15936l34.236206 -14.708664l16.314941 38.015762l-34.236206 14.708649z" fill-rule="nonzero"></path><path fill="#000000" d="m693.98596 243.04753l1.593689 -0.44659424q0.42144775 1.6555786 -0.21582031 2.9837189q-0.6433716 1.3137817 -2.1364136 1.9552307q-1.8519287 0.79563904 -3.5037231 0.07676697q-1.6435547 -0.73939514 -2.6171875 -3.0080414q-0.62854004 -1.4645844 -0.6231079 -2.759369q0.01361084 -1.3153076 0.77008057 -2.286499q0.7645874 -0.99172974 1.9274292 -1.4913177q1.4786987 -0.6352844 2.7322388 -0.28953552q1.2536011 0.3457489 2.11792 1.6069794l-1.3944092 0.8711853q-0.6097412 -0.8264313 -1.352478 -1.0515442q-0.7426758 -0.22509766 -1.5036011 0.10179138q-1.1628418 0.499588 -1.5375977 1.6469421q-0.3604126 1.1411896 0.4099121 2.9360046q0.7825928 1.8235321 1.8434448 2.3541107q1.0546875 0.5162201 2.1744385 0.03514099q0.90448 -0.38856506 1.2732544 -1.1932373q0.36260986 -0.81903076 0.041931152 -2.0417328z" fill-rule="nonzero"></path><path fill="#000000" d="m704.83276 248.82916l0.40057373 0.93330383l-5.225647 2.2450562q-0.14788818 -0.3446045 -0.17480469 -0.7241821q-0.026977539 -0.61761475 0.18182373 -1.3195648q0.22320557 -0.70809937 0.76623535 -1.7406921q0.8360596 -1.61763 1.0161133 -2.426239q0.19445801 -0.8147888 -0.039733887 -1.3604126q-0.24645996 -0.5743408 -0.8291626 -0.78315735q-0.5888672 -0.22317505 -1.2492676 0.060531616q-0.7034302 0.30223083 -0.94104004 0.89749146q-0.2376709 0.5952606 0.06842041 1.3480682l-1.0336914 0.32507324q-0.380188 -1.163147 0.03375244 -2.0212097q0.4220581 -0.8785858 1.5562134 -1.3658295q1.1340942 -0.4872589 2.0656128 -0.13919067q0.93151855 0.34805298 1.3320923 1.2813568q0.20336914 0.47384644 0.19952393 1.0196686q0.0043945312 0.5252838 -0.2331543 1.239563q-0.22937012 0.6937561 -0.88708496 2.0137024q-0.5614624 1.1085205 -0.7028198 1.4923553q-0.13311768 0.3632965 -0.18011475 0.6896057l3.8761597 -1.6652985z" fill-rule="nonzero"></path><path fill="#000000" fill-opacity="0.0" d="m573.01355 222.16966l25.448792 -27.2126l30.236206 28.251968l-25.448792 27.2126z" fill-rule="nonzero"></path><path fill="#000000" d="m599.1031 232.17685l-9.932617 -9.280792l4.119629 -4.4051056q1.2379761 -1.3238068 2.1409302 -1.7631836q0.91363525 -0.4507904 1.9828491 -0.22157288q1.0578003 0.21853638 1.8798218 0.9866028q1.0617065 0.99209595 1.1520386 2.3595428q0.08959961 1.3453827 -1.0610352 2.9646606q0.7420654 -0.29026794 1.2379761 -0.34014893q1.0702515 -0.069229126 2.3382568 0.1532898l4.328003 0.79356384l-1.5475464 1.6547699l-3.2937622 -0.6184387q-1.4348145 -0.25004578 -2.2664795 -0.32148743q-0.8210449 -0.082839966 -1.281189 0.04319763q-0.47155762 0.115356445 -0.8175659 0.34806824q-0.27056885 0.1749115 -0.75079346 0.6884613l-1.4194336 1.5178223l4.418274 4.128357l-1.227356 1.3123932zm-4.321228 -6.4968414l2.6361084 -2.8188171q0.84313965 -0.90156555 1.1300659 -1.5743713q0.28619385 -0.6949005 0.120666504 -1.3414154q-0.15490723 -0.65792847 -0.6343994 -1.105957q-0.7078247 -0.6613922 -1.6333618 -0.56388855q-0.9369507 0.08685303 -1.972168 1.1938324l-2.9349365 3.1383514l3.288025 3.0722656z" fill-rule="nonzero"></path><path fill="#000000" fill-opacity="0.0" d="m569.9276 304.34186l37.259888 0l0 41.385834l-37.259888 0z" fill-rule="nonzero"></path><path fill="#000000" d="m586.63074 330.23248l0 -1.453125q-1.140625 1.671875 -3.125 1.671875q-0.859375 0 -1.625 -0.328125q-0.75 -0.34375 -1.125 -0.84375q-0.359375 -0.5 -0.515625 -1.234375q-0.09375 -0.5 -0.09375 -1.5625l0 -6.109375l1.671875 0l0 5.46875q0 1.3125 0.09375 1.765625q0.15625 0.65625 0.671875 1.03125q0.515625 0.375 1.265625 0.375q0.75 0 1.40625 -0.375q0.65625 -0.390625 0.921875 -1.046875q0.28125 -0.671875 0.28125 -1.9375l0 -5.28125l1.671875 0l0 9.859375l-1.5 0z" fill-rule="nonzero"></path><path fill="#000000" fill-opacity="0.0" d="m550.9276 274.34186l37.259888 0l0 41.385834l-37.259888 0z" fill-rule="nonzero"></path><path fill="#000000" d="m567.63074 300.23248l0 -1.453125q-1.140625 1.671875 -3.125 1.671875q-0.859375 0 -1.625 -0.328125q-0.75 -0.34375 -1.125 -0.84375q-0.359375 -0.5 -0.515625 -1.234375q-0.09375 -0.5 -0.09375 -1.5625l0 -6.109375l1.671875 0l0 5.46875q0 1.3125 0.09375 1.765625q0.15625 0.65625 0.671875 1.03125q0.515625 0.375 1.265625 0.375q0.75 0 1.40625 -0.375q0.65625 -0.390625 0.921875 -1.046875q0.28125 -0.671875 0.28125 -1.9375l0 -5.28125l1.671875 0l0 9.859375l-1.5 0z" fill-rule="nonzero"></path><path fill="#000000" fill-opacity="0.0" d="m671.3676 176.84537l37.259888 0l0 41.385834l-37.259888 0z" fill-rule="nonzero"></path><path fill="#000000" d="m688.07074 202.736l0 -1.453125q-1.140625 1.671875 -3.125 1.671875q-0.859375 0 -1.625 -0.328125q-0.75 -0.34375 -1.125 -0.84375q-0.359375 -0.5 -0.515625 -1.234375q-0.09375 -0.5 -0.09375 -1.5625l0 -6.109375l1.671875 0l0 5.46875q0 1.3125 0.09375 1.765625q0.15625 0.65625 0.671875 1.03125q0.515625 0.375 1.265625 0.375q0.75 0 1.40625 -0.375q0.65625 -0.390625 0.921875 -1.046875q0.28125 -0.671875 0.28125 -1.9375l0 -5.28125l1.671875 0l0 9.859375l-1.5 0z" fill-rule="nonzero"></path></g></svg>

