<?xml version="1.0" standalone="yes"?>

<svg version="1.1" viewBox="0.0 0.0 960.0 720.0" fill="none" stroke="none" stroke-linecap="square" stroke-miterlimit="10" xmlns="http://www.w3.org/2000/svg" xmlns:xlink="http://www.w3.org/1999/xlink"><clipPath id="p.0"><path d="m0 0l960.0 0l0 720.0l-960.0 0l0 -720.0z" clip-rule="nonzero"></path></clipPath><g clip-path="url(#p.0)"><path fill="#000000" fill-opacity="0.0" d="m0 0l960.0 0l0 720.0l-960.0 0z" fill-rule="nonzero"></path><path fill="#cfe2f3" d="m253.8549 238.33727l0 0c0 -69.135605 57.49791 -125.1811 128.42519 -125.1811l0 0c34.060486 0 66.72595 13.188683 90.81033 36.664696c24.084412 23.476013 37.61487 55.316315 37.61487 88.5164l0 0c0 69.135605 -57.497925 125.18111 -128.4252 125.18111l0 0c-70.92728 0 -128.42519 -56.0455 -128.42519 -125.18111z" fill-rule="nonzero"></path><path stroke="#000000" stroke-width="2.0" stroke-linejoin="round" stroke-linecap="butt" d="m253.8549 238.33727l0 0c0 -69.135605 57.49791 -125.1811 128.42519 -125.1811l0 0c34.060486 0 66.72595 13.188683 90.81033 36.664696c24.084412 23.476013 37.61487 55.316315 37.61487 88.5164l0 0c0 69.135605 -57.497925 125.18111 -128.4252 125.18111l0 0c-70.92728 0 -128.42519 -56.0455 -128.42519 -125.18111z" fill-rule="nonzero"></path><path fill="#efefef" d="m260.48242 199.31786l121.30682 -86.16169l121.30682 86.16169l-46.335083 139.41255l-149.94348 0z" fill-rule="nonzero"></path><path stroke="#000000" stroke-width="2.0" stroke-linejoin="round" stroke-linecap="butt" d="m260.48242 199.31786l121.30682 -86.16169l121.30682 86.16169l-46.335083 139.41255l-149.94348 0z" fill-rule="nonzero"></path><path fill="#000000" fill-opacity="0.0" d="m382.1987 239.48688l-0.40945435 -126.33071" fill-rule="nonzero"></path><path stroke="#000000" stroke-width="2.0" stroke-linejoin="round" stroke-linecap="butt" d="m382.1987 239.48688l-0.40945435 -126.33071" fill-rule="nonzero"></path><path fill="#000000" fill-opacity="0.0" d="m383.19107 239.50684l-122.70865 -40.18898" fill-rule="nonzero"></path><path stroke="#000000" stroke-width="2.0" stroke-linejoin="round" stroke-linecap="butt" d="m383.19107 239.50684l-122.70865 -40.18898" fill-rule="nonzero"></path><path fill="#000000" fill-opacity="0.0" d="m383.19543 237.50204l-76.37793 101.22836" fill-rule="nonzero"></path><path stroke="#000000" stroke-width="2.0" stroke-linejoin="round" stroke-linecap="butt" d="m383.19543 237.50204l-76.37793 101.22836" fill-rule="nonzero"></path><path fill="#000000" fill-opacity="0.0" d="m383.21768 238.50992l73.543304 100.22049" fill-rule="nonzero"></path><path stroke="#000000" stroke-width="2.0" stroke-linejoin="round" stroke-linecap="butt" d="m383.21768 238.50992l73.543304 100.22049" fill-rule="nonzero"></path><path fill="#000000" fill-opacity="0.0" d="m385.2063 238.49896l117.88977 -39.181107" fill-rule="nonzero"></path><path stroke="#000000" stroke-width="2.0" stroke-linejoin="round" stroke-linecap="butt" d="m385.2063 238.49896l117.88977 -39.181107" fill-rule="nonzero"></path><path fill="#000000" fill-opacity="0.0" d="m415.5266 196.11334l43.24411 -15.338593l9.826752 27.779526l-43.24408 15.338593z" fill-rule="nonzero"></path><path fill="#000000" d="m434.05685 217.01175l-4.5334167 -12.815552l5.6842957 -2.0162048q1.7082214 -0.605896 2.7116394 -0.5804901q1.0181274 0.02017212 1.8609009 0.7159729q0.83758545 0.6810608 1.2127686 1.7416534q0.48458862 1.3699341 -0.065460205 2.6260986q-0.54055786 1.2361908 -2.3074646 2.1447449q0.7920227 0.08380127 1.2548828 0.26779175q0.9812012 0.4311676 2.003418 1.2125244l3.4733276 2.6971893l-2.1352844 0.75737l-2.6366577 -2.0655365q-1.1574707 -0.8825989 -1.8622742 -1.3289032q-0.690094 -0.4515381 -1.1563416 -0.5514221q-0.47146606 -0.114608765 -0.8855896 -0.06718445q-0.32058716 0.030807495 -0.98327637 0.26585388l-1.9585571 0.69470215l2.016571 5.700714l-1.6934814 0.6006775zm-0.83895874 -7.7597046l3.6373596 -1.2901611q1.1633606 -0.41264343 1.7279358 -0.87815857q0.57406616 -0.48547363 0.7251892 -1.13591q0.16583252 -0.6556549 -0.053009033 -1.2743378q-0.3230896 -0.9132843 -1.1889648 -1.2527313q-0.87112427 -0.35417175 -2.29953 0.15249634l-4.0496826 1.4364014l1.5007019 4.242401z" fill-rule="nonzero"></path><path fill="#000000" fill-opacity="0.0" d="m366.4376 244.49081l31.685028 0l0 33.921265l-31.685028 0z" fill-rule="nonzero"></path><path fill="#000000" d="m376.29697 263.58456q0 -7.03125 4.421875 -7.03125q4.4375 0 4.4375 7.03125q0 7.015625 -4.4375 7.015625q-4.421875 0 -4.421875 -7.015625zm1.71875 -0.6875l5.421875 0q-0.09375 -2.890625 -0.84375 -3.921875q-0.734375 -1.046875 -1.890625 -1.046875q-2.578125 0 -2.6875 4.96875zm5.421875 1.359375l-5.421875 0q0.109375 4.96875 2.703125 4.96875q2.625 0 2.71875 -4.96875z" fill-rule="nonzero"></path><path fill="#000000" fill-opacity="0.0" d="m381.70602 238.00525l99.275604 27.937012" fill-rule="nonzero"></path><path stroke="#000000" stroke-width="2.0" stroke-linejoin="round" stroke-linecap="butt" stroke-dasharray="8.0,6.0" d="m381.70602 238.00525l99.275604 27.937012" fill-rule="nonzero"></path><path fill="#000000" fill-opacity="0.0" d="m401.06036 218.41602l52.314972 -8.850403l8.251953 48.6929l-52.31494 8.850403z" fill-rule="nonzero"></path><path fill="#000000" d="m416.42886 242.61334l7.6763 -15.862045l1.4327698 -0.24238586l-7.660919 15.859436l-1.4481506 0.24499512zm-0.2692566 -7.386688l-0.85894775 -5.0683594q-0.8144531 0.8984375 -1.8740845 1.3787994l-0.19058228 -1.124588q0.5232849 -0.27870178 1.1356201 -0.8735504q0.6251526 -0.612854 0.9625244 -1.2404327l0.98599243 -0.16680908l1.1643982 6.8707886l-1.3249207 0.22415161zm7.745636 5.8683167q-0.039916992 -0.5161896 0.25646973 -1.105133q0.43685913 -0.8821106 1.5845337 -2.0587769q1.1630554 -1.1792755 1.3625488 -1.4982758q0.27368164 -0.44247437 0.20840454 -0.8276062q-0.07571411 -0.44674683 -0.44622803 -0.6693115q-0.35513306 -0.22517395 -0.9867859 -0.11831665q-0.6008301 0.10165405 -0.872406 0.3694458q-0.25616455 0.26519775 -0.33920288 0.8972931l-1.4100647 0.09591675q0.10501099 -1.0636749 0.6711426 -1.6506958q0.57891846 -0.6050415 1.79599 -0.8109436q1.3865662 -0.23457336 2.1121826 0.21316528q0.73843384 0.42971802 0.86898804 1.1999817q0.13052368 0.7702637 -0.29382324 1.5393219q-0.3117981 0.59155273 -1.5952148 1.9021149q-0.67633057 0.68492126 -0.92962646 1.0605469l3.5279846 -0.59684753l0.18536377 1.0937805l-5.7002563 0.9643402zm5.407715 -8.093552q-1.1748047 -6.9324036 3.1851196 -7.669983q4.375305 -0.74020386 5.5501404 6.1921997q1.1722412 6.9170074 -3.2030945 7.657196q-4.3599243 0.7375946 -5.5321655 -6.179413zm1.5798035 -0.9645233l5.3459167 -0.9044037q-0.57540894 -2.8343506 -1.4872131 -3.725998q-0.89901733 -0.9096527 -2.0390625 -0.7167816q-2.5419922 0.43003845 -1.8196411 5.347183zm5.573059 0.4358673l-5.3459167 0.9043884q0.9380493 4.880661 3.495453 4.4480133q2.5882263 -0.4378662 1.8504639 -5.3524017z" fill-rule="nonzero"></path></g></svg>

