<?xml version="1.0" standalone="yes"?>

<svg version="1.1" viewBox="0.0 0.0 960.0 720.0" fill="none" stroke="none" stroke-linecap="square" stroke-miterlimit="10" xmlns="http://www.w3.org/2000/svg" xmlns:xlink="http://www.w3.org/1999/xlink"><clipPath id="p.0"><path d="m0 0l960.0 0l0 720.0l-960.0 0l0 -720.0z" clip-rule="nonzero"></path></clipPath><g clip-path="url(#p.0)"><path fill="#000000" fill-opacity="0.0" d="m0 0l960.0 0l0 720.0l-960.0 0z" fill-rule="nonzero"></path><path fill="#cfe2f3" d="m127.173225 110.14173l204.25198 0l0 203.93701l-204.25198 0z" fill-rule="nonzero"></path><path stroke="#000000" stroke-width="2.0" stroke-linejoin="round" stroke-linecap="butt" d="m127.173225 110.14173l204.25198 0l0 203.93701l-204.25198 0z" fill-rule="nonzero"></path><path fill="#b6d7a8" d="m127.47769 110.14173l119.30708 0l0 84.62992l-119.30708 0z" fill-rule="nonzero"></path><path stroke="#000000" stroke-width="2.0" stroke-linejoin="round" stroke-linecap="butt" d="m127.47769 110.14173l119.30708 0l0 84.62992l-119.30708 0z" fill-rule="nonzero"></path><path fill="#b6d7a8" d="m331.4147 194.77165l0 119.30708l-84.62993 0l0 -119.30708z" fill-rule="nonzero"></path><path stroke="#000000" stroke-width="2.0" stroke-linejoin="round" stroke-linecap="butt" d="m331.4147 194.77165l0 119.30708l-84.62993 0l0 -119.30708z" fill-rule="nonzero"></path><path fill="#000000" fill-opacity="0.0" d="m346.79266 111.85827l0 0c5.540222 0 10.031494 0.74851227 10.031494 1.6718445l0 37.254738c0 0.9233246 4.4912415 1.6718445 10.031494 1.6718445l0 0c-5.5402527 0 -10.031494 0.74850464 -10.031494 1.6718445l0 37.25473c0 0.92333984 -4.491272 1.6718445 -10.031494 1.6718445z" fill-rule="nonzero"></path><path fill="#000000" fill-opacity="0.0" d="m346.79266 111.85827l0 0c5.540222 0 10.031494 0.74851227 10.031494 1.6718445l0 37.254738c0 0.9233246 4.4912415 1.6718445 10.031494 1.6718445l0 0c-5.5402527 0 -10.031494 0.74850464 -10.031494 1.6718445l0 37.25473c0 0.92333984 -4.491272 1.6718445 -10.031494 1.6718445" fill-rule="nonzero"></path><path stroke="#000000" stroke-width="2.0" stroke-linejoin="round" stroke-linecap="butt" d="m346.79266 111.85827l0 0c5.540222 0 10.031494 0.74851227 10.031494 1.6718445l0 37.254738c0 0.9233246 4.4912415 1.6718445 10.031494 1.6718445l0 0c-5.5402527 0 -10.031494 0.74850464 -10.031494 1.6718445l0 37.25473c0 0.92333984 -4.491272 1.6718445 -10.031494 1.6718445" fill-rule="nonzero"></path><path fill="#000000" fill-opacity="0.0" d="m347.28348 197.60892l0 0c5.131439 0 9.291321 0.69329834 9.291321 1.5485077l0 55.107727c0 0.85520935 4.1598816 1.5484924 9.291351 1.5484924l0 0c-5.1314697 0 -9.291351 0.6932831 -9.291351 1.5485077l0 55.107727c0 0.8551941 -4.1598816 1.5484924 -9.291321 1.5484924z" fill-rule="nonzero"></path><path fill="#000000" fill-opacity="0.0" d="m347.28348 197.60892l0 0c5.131439 0 9.291321 0.69329834 9.291321 1.5485077l0 55.107727c0 0.85520935 4.1598816 1.5484924 9.291351 1.5484924l0 0c-5.1314697 0 -9.291351 0.6932831 -9.291351 1.5485077l0 55.107727c0 0.8551941 -4.1598816 1.5484924 -9.291321 1.5484924" fill-rule="nonzero"></path><path stroke="#000000" stroke-width="2.0" stroke-linejoin="round" stroke-linecap="butt" d="m347.28348 197.60892l0 0c5.131439 0 9.291321 0.69329834 9.291321 1.5485077l0 55.107727c0 0.85520935 4.1598816 1.5484924 9.291351 1.5484924l0 0c-5.1314697 0 -9.291351 0.6932831 -9.291351 1.5485077l0 55.107727c0 0.8551941 -4.1598816 1.5484924 -9.291321 1.5484924" fill-rule="nonzero"></path><path fill="#000000" fill-opacity="0.0" d="m250.22835 98.761154l0 0c0 -5.540245 0.74850464 -10.031494 1.6718445 -10.031494l37.254745 0c0.9233093 0 1.6718445 -4.4912567 1.6718445 -10.031494l0 0c0 5.5402374 0.74850464 10.031494 1.6718445 10.031494l37.25473 0c0.92333984 0 1.6718445 4.491249 1.6718445 10.031494z" fill-rule="nonzero"></path><path fill="#000000" fill-opacity="0.0" d="m250.22835 98.761154l0 0c0 -5.540245 0.74850464 -10.031494 1.6718445 -10.031494l37.254745 0c0.9233093 0 1.6718445 -4.4912567 1.6718445 -10.031494l0 0c0 5.5402374 0.74850464 10.031494 1.6718445 10.031494l37.25473 0c0.92333984 0 1.6718445 4.491249 1.6718445 10.031494" fill-rule="nonzero"></path><path stroke="#000000" stroke-width="2.0" stroke-linejoin="round" stroke-linecap="butt" d="m250.22835 98.761154l0 0c0 -5.540245 0.74850464 -10.031494 1.6718445 -10.031494l37.254745 0c0.9233093 0 1.6718445 -4.4912567 1.6718445 -10.031494l0 0c0 5.5402374 0.74850464 10.031494 1.6718445 10.031494l37.25473 0c0.92333984 0 1.6718445 4.491249 1.6718445 10.031494" fill-rule="nonzero"></path><path fill="#000000" fill-opacity="0.0" d="m128.92651 98.020996l0 0c0 -5.131462 0.6932831 -9.291336 1.5484924 -9.291336l55.107727 0c0.85520935 0 1.5485077 -4.159874 1.5485077 -9.291344l0 0c0 5.1314697 0.6932831 9.291344 1.5484924 9.291344l55.107727 0c0.85520935 0 1.5484924 4.159874 1.5484924 9.291336z" fill-rule="nonzero"></path><path fill="#000000" fill-opacity="0.0" d="m128.92651 98.020996l0 0c0 -5.131462 0.6932831 -9.291336 1.5484924 -9.291336l55.107727 0c0.85520935 0 1.5485077 -4.159874 1.5485077 -9.291344l0 0c0 5.1314697 0.6932831 9.291344 1.5484924 9.291344l55.107727 0c0.85520935 0 1.5484924 4.159874 1.5484924 9.291336" fill-rule="nonzero"></path><path stroke="#000000" stroke-width="2.0" stroke-linejoin="round" stroke-linecap="butt" d="m128.92651 98.020996l0 0c0 -5.131462 0.6932831 -9.291336 1.5484924 -9.291336l55.107727 0c0.85520935 0 1.5485077 -4.159874 1.5485077 -9.291344l0 0c0 5.1314697 0.6932831 9.291344 1.5484924 9.291344l55.107727 0c0.85520935 0 1.5484924 4.159874 1.5484924 9.291336" fill-rule="nonzero"></path><path fill="#000000" fill-opacity="0.0" d="m274.8924 38.154854l23.46457 0l0 33.448822l-23.46457 0z" fill-rule="nonzero"></path><path fill="#000000" d="m291.5799 62.82673q-0.9375 0.796875 -1.796875 1.125q-0.859375 0.3125 -1.84375 0.3125q-1.609375 0 -2.484375 -0.78125q-0.875 -0.796875 -0.875 -2.03125q0 -0.734375 0.328125 -1.328125q0.328125 -0.59375 0.859375 -0.953125q0.53125 -0.359375 1.203125 -0.546875q0.5 -0.140625 1.484375 -0.25q2.03125 -0.25 2.984375 -0.578125q0 -0.34375 0 -0.4375q0 -1.015625 -0.46875 -1.4375q-0.640625 -0.5625 -1.90625 -0.5625q-1.171875 0 -1.734375 0.40625q-0.5625 0.40625 -0.828125 1.46875l-1.640625 -0.234375q0.234375 -1.046875 0.734375 -1.6875q0.515625 -0.640625 1.46875 -0.984375q0.96875 -0.359375 2.25 -0.359375q1.265625 0 2.046875 0.296875q0.78125 0.296875 1.15625 0.75q0.375 0.453125 0.515625 1.140625q0.09375 0.421875 0.09375 1.53125l0 2.234375q0 2.328125 0.09375 2.953125q0.109375 0.609375 0.4375 1.171875l-1.75 0q-0.265625 -0.515625 -0.328125 -1.21875zm-0.140625 -3.71875q-0.90625 0.359375 -2.734375 0.625q-1.03125 0.140625 -1.453125 0.328125q-0.421875 0.1875 -0.65625 0.546875q-0.234375 0.359375 -0.234375 0.796875q0 0.671875 0.5 1.125q0.515625 0.4375 1.484375 0.4375q0.96875 0 1.71875 -0.421875q0.75 -0.4375 1.109375 -1.15625q0.265625 -0.578125 0.265625 -1.671875l0 -0.609375z" fill-rule="nonzero"></path><path fill="#000000" fill-opacity="0.0" d="m376.979 135.73228l23.46457 0l0 33.448822l-23.46457 0z" fill-rule="nonzero"></path><path fill="#000000" d="m393.6665 160.40416q-0.9375 0.796875 -1.796875 1.125q-0.859375 0.3125 -1.84375 0.3125q-1.609375 0 -2.484375 -0.78125q-0.875 -0.796875 -0.875 -2.03125q0 -0.734375 0.328125 -1.328125q0.328125 -0.59375 0.859375 -0.953125q0.53125 -0.359375 1.203125 -0.546875q0.5 -0.140625 1.484375 -0.25q2.03125 -0.25 2.984375 -0.578125q0 -0.34375 0 -0.4375q0 -1.015625 -0.46875 -1.4375q-0.640625 -0.5625 -1.90625 -0.5625q-1.171875 0 -1.734375 0.40625q-0.5625 0.40625 -0.828125 1.46875l-1.640625 -0.234375q0.234375 -1.046875 0.734375 -1.6875q0.515625 -0.640625 1.46875 -0.984375q0.96875 -0.359375 2.25 -0.359375q1.265625 0 2.046875 0.296875q0.78125 0.296875 1.15625 0.75q0.375 0.453125 0.515625 1.140625q0.09375 0.421875 0.09375 1.53125l0 2.234375q0 2.328125 0.09375 2.953125q0.109375 0.609375 0.4375 1.171875l-1.75 0q-0.265625 -0.515625 -0.328125 -1.21875zm-0.140625 -3.71875q-0.90625 0.359375 -2.734375 0.625q-1.03125 0.140625 -1.453125 0.328125q-0.421875 0.1875 -0.65625 0.546875q-0.234375 0.359375 -0.234375 0.796875q0 0.671875 0.5 1.125q0.515625 0.4375 1.484375 0.4375q0.96875 0 1.71875 -0.421875q0.75 -0.4375 1.109375 -1.15625q0.265625 -0.578125 0.265625 -1.671875l0 -0.609375z" fill-rule="nonzero"></path><path fill="#000000" fill-opacity="0.0" d="m376.979 242.2231l23.46457 0l0 33.448807l-23.46457 0z" fill-rule="nonzero"></path><path fill="#000000" d="m388.77588 268.1137l-1.546875 0l0 -13.593735l1.65625 0l0 4.8437347q1.0625 -1.328125 2.703125 -1.328125q0.90625 0 1.71875 0.375q0.8125 0.359375 1.328125 1.03125q0.53125 0.65625 0.828125 1.59375q0.296875 0.9375 0.296875 2.0q0 2.53125 -1.25 3.921875q-1.25 1.375 -3.0 1.375q-1.75 0 -2.734375 -1.453125l0 1.234375zm-0.015625 -5.0q0 1.765625 0.46875 2.5625q0.796875 1.28125 2.140625 1.28125q1.09375 0 1.890625 -0.9375q0.796875 -0.953125 0.796875 -2.84375q0 -1.921875 -0.765625 -2.84375q-0.765625 -0.921875 -1.84375 -0.921875q-1.09375 0 -1.890625 0.953125q-0.796875 0.953125 -0.796875 2.75z" fill-rule="nonzero"></path><path fill="#000000" fill-opacity="0.0" d="m175.39896 38.154854l23.464554 0l0 33.448822l-23.464554 0z" fill-rule="nonzero"></path><path fill="#000000" d="m187.19583 64.04548l-1.546875 0l0 -13.59375l1.65625 0l0 4.84375q1.0625 -1.328125 2.703125 -1.328125q0.90625 0 1.71875 0.375q0.8125 0.359375 1.328125 1.03125q0.53125 0.65625 0.828125 1.59375q0.296875 0.9375 0.296875 2.0q0 2.53125 -1.25 3.921875q-1.25 1.375 -3.0 1.375q-1.75 0 -2.734375 -1.453125l0 1.234375zm-0.015625 -5.0q0 1.765625 0.46875 2.5625q0.796875 1.28125 2.140625 1.28125q1.09375 0 1.890625 -0.9375q0.796875 -0.953125 0.796875 -2.84375q0 -1.921875 -0.765625 -2.84375q-0.765625 -0.921875 -1.84375 -0.921875q-1.09375 0 -1.890625 0.953125q-0.796875 0.953125 -0.796875 2.75z" fill-rule="nonzero"></path></g></svg>

