<?xml version="1.0" standalone="yes"?>

<svg version="1.1" viewBox="0.0 0.0 960.0 720.0" fill="none" stroke="none" stroke-linecap="square" stroke-miterlimit="10" xmlns="http://www.w3.org/2000/svg" xmlns:xlink="http://www.w3.org/1999/xlink"><clipPath id="p.0"><path d="m0 0l960.0 0l0 720.0l-960.0 0l0 -720.0z" clip-rule="nonzero"></path></clipPath><g clip-path="url(#p.0)"><path fill="#000000" fill-opacity="0.0" d="m0 0l960.0 0l0 720.0l-960.0 0z" fill-rule="nonzero"></path><path fill="#000000" fill-opacity="0.0" d="m195.09082 56.55679l-1.2598419 188.44093" fill-rule="nonzero"></path><path stroke="#000000" stroke-width="2.0" stroke-linejoin="round" stroke-linecap="butt" d="m195.09082 56.55679l-1.2598419 188.44093" fill-rule="nonzero"></path><path fill="#000000" fill-opacity="0.0" d="m193.34645 243.99213l212.66142 -0.81889343" fill-rule="nonzero"></path><path stroke="#000000" stroke-width="2.0" stroke-linejoin="round" stroke-linecap="butt" d="m193.34645 243.99213l212.66142 -0.81889343" fill-rule="nonzero"></path><path fill="#000000" fill-opacity="0.0" d="m193.84514 243.99213l139.96852 -79.842514" fill-rule="nonzero"></path><path stroke="#000000" stroke-width="2.0" stroke-linejoin="round" stroke-linecap="butt" d="m193.84514 243.99213l139.96852 -79.842514" fill-rule="nonzero"></path><path fill="#000000" fill-opacity="0.0" d="m333.30447 164.65617l-0.50393677 78.3307" fill-rule="nonzero"></path><path stroke="#000000" stroke-width="2.0" stroke-linejoin="round" stroke-linecap="butt" stroke-dasharray="2.0,6.0" d="m333.30447 164.65617l-0.50393677 78.3307" fill-rule="nonzero"></path><path fill="#000000" fill-opacity="0.0" d="m333.8058 163.6588l-138.70868 0.50393677" fill-rule="nonzero"></path><path stroke="#000000" stroke-width="2.0" stroke-linejoin="round" stroke-linecap="butt" stroke-dasharray="2.0,6.0" d="m333.8058 163.6588l-138.70868 0.50393677" fill-rule="nonzero"></path><path fill="#000000" fill-opacity="0.0" d="m248.08136 126.77726l38.456696 0l0 48.000008l-38.456696 0z" fill-rule="nonzero"></path><path fill="#000000" d="m257.222 152.6679l3.59375 -5.125l-3.328125 -4.734375l2.09375 0l1.515625 2.3125q0.421875 0.65625 0.671875 1.109375q0.421875 -0.609375 0.765625 -1.09375l1.65625 -2.328125l1.984375 0l-3.390625 4.640625l3.65625 5.21875l-2.046875 0l-2.03125 -3.0625l-0.53125 -0.828125l-2.59375 3.890625l-2.015625 0z" fill-rule="nonzero"></path><path fill="#000000" fill-opacity="0.0" d="m343.78217 190.59317l32.944855 0l0 26.456696l-32.944855 0z" fill-rule="nonzero"></path><path fill="#000000" d="m353.95404 220.28067l-0.171875 -1.5625q0.546875 0.140625 0.953125 0.140625q0.546875 0 0.875 -0.1875q0.34375 -0.1875 0.5625 -0.515625q0.15625 -0.25 0.5 -1.25q0.046875 -0.140625 0.15625 -0.40625l-3.734375 -9.875l1.796875 0l2.046875 5.71875q0.40625 1.078125 0.71875 2.28125q0.28125 -1.15625 0.6875 -2.25l2.09375 -5.75l1.671875 0l-3.75 10.03125q-0.59375 1.625 -0.9375 2.234375q-0.4375 0.828125 -1.015625 1.203125q-0.578125 0.390625 -1.375 0.390625q-0.484375 0 -1.078125 -0.203125z" fill-rule="nonzero"></path><path fill="#000000" fill-opacity="0.0" d="m200.11446 334.51218l-1.2598572 188.44095" fill-rule="nonzero"></path><path stroke="#4a86e8" stroke-width="2.0" stroke-linejoin="round" stroke-linecap="butt" d="m200.11446 334.51218l-1.2598572 188.44095" fill-rule="nonzero"></path><path fill="#000000" fill-opacity="0.0" d="m198.37007 521.9475l212.66142 -0.8189087" fill-rule="nonzero"></path><path stroke="#4a86e8" stroke-width="2.0" stroke-linejoin="round" stroke-linecap="butt" d="m198.37007 521.9475l212.66142 -0.8189087" fill-rule="nonzero"></path><path fill="#000000" fill-opacity="0.0" d="m253.10498 404.73264l38.456696 0l0 48.0l-38.456696 0z" fill-rule="nonzero"></path><path fill="#000000" fill-opacity="0.0" d="m348.8058 468.54855l32.944885 0l0 26.456696l-32.944885 0z" fill-rule="nonzero"></path><path fill="#000000" fill-opacity="0.0" d="m235.61154 206.51706l38.456696 0l0 48.0l-38.456696 0z" fill-rule="nonzero"></path><path fill="#000000" d="m251.29904 218.39206l1.796875 0l0 1.6875q2.859375 0.171875 4.375 1.671875q1.515625 1.484375 1.515625 3.703125q0 2.484375 -1.640625 3.921875q-1.640625 1.4375 -4.25 1.53125l0 1.984375l-1.796875 0l0 -1.984375q-2.6875 -0.09375 -4.296875 -1.578125q-1.609375 -1.484375 -1.609375 -3.78125q0 -1.515625 0.703125 -2.734375q0.703125 -1.234375 1.96875 -1.9375q1.265625 -0.703125 3.234375 -0.796875l0 -1.6875zm0 3.25q-1.921875 0.046875 -2.984375 1.046875q-1.046875 0.984375 -1.046875 2.84375q0 1.875 1.15625 2.859375q1.15625 0.96875 2.875 0.984375l0 -7.734375zm1.796875 7.734375q1.890625 -0.046875 2.96875 -1.0625q1.078125 -1.015625 1.078125 -2.8125q0 -1.703125 -1.03125 -2.78125q-1.03125 -1.078125 -3.015625 -1.078125l0 7.734375z" fill-rule="nonzero"></path><path fill="#000000" fill-opacity="0.0" d="m144.76735 342.23697l53.89534 180.5745" fill-rule="nonzero"></path><path stroke="#000000" stroke-width="2.0" stroke-linejoin="round" stroke-linecap="butt" d="m144.76735 342.23697l53.89534 180.5745" fill-rule="nonzero"></path><path fill="#000000" fill-opacity="0.0" d="m197.9053 521.99146l203.12866 -62.9653" fill-rule="nonzero"></path><path stroke="#000000" stroke-width="2.0" stroke-linejoin="round" stroke-linecap="butt" d="m197.9053 521.99146l203.12866 -62.9653" fill-rule="nonzero"></path><path fill="#000000" fill-opacity="0.0" d="m198.3822 521.84564l110.50592 -117.28021" fill-rule="nonzero"></path><path stroke="#000000" stroke-width="2.0" stroke-linejoin="round" stroke-linecap="butt" d="m198.3822 521.84564l110.50592 -117.28021" fill-rule="nonzero"></path><path fill="#000000" fill-opacity="0.0" d="m308.54932 405.19876l22.421967 75.05499" fill-rule="nonzero"></path><path stroke="#000000" stroke-width="2.0" stroke-linejoin="round" stroke-linecap="butt" stroke-dasharray="2.0,6.0" d="m308.54932 405.19876l22.421967 75.05499" fill-rule="nonzero"></path><path fill="#000000" fill-opacity="0.0" d="m308.7371 404.0984l-132.49976 41.040314" fill-rule="nonzero"></path><path stroke="#000000" stroke-width="2.0" stroke-linejoin="round" stroke-linecap="butt" stroke-dasharray="2.0,6.0" d="m308.7371 404.0984l-132.49976 41.040314" fill-rule="nonzero"></path><path fill="#000000" fill-opacity="0.0" d="m215.97467 393.89438l36.77614 -11.24472l14.035202 45.902405l-36.77614 11.24472z" fill-rule="nonzero"></path><path fill="#000000" d="m232.28621 415.9808l1.9381409 -5.9518433l-4.5670013 -3.5543213l2.002243 -0.61221313l2.1255646 1.76828q0.59532166 0.5042114 0.9668884 0.8644409q0.2252655 -0.7061157 0.41235352 -1.2698364l0.90312195 -2.7106628l1.8976593 -0.5802307l-1.8855286 5.4292297l5.022415 3.9216003l-1.957428 0.59851074l-2.8379364 -2.3347473l-0.7501831 -0.6365967l-1.3427734 4.479004l-1.927536 0.589386zm7.42865 -11.4539795l-1.1630707 -2.3076477l-0.6624756 -2.1665955l1.822937 -0.55737305l0.6624756 2.1665955l0.32632446 2.5634766l-0.9861908 0.3015442z" fill-rule="nonzero"></path><path fill="#000000" fill-opacity="0.0" d="m326.1531 426.93863l31.505188 -9.633087l7.7359314 25.300537l-31.505188 9.633087z" fill-rule="nonzero"></path><path fill="#000000" d="m344.56104 452.35443l-0.62124634 -1.4439392q0.5640869 -0.025421143 0.9525757 -0.14422607q0.52297974 -0.15991211 0.7819519 -0.43515015q0.27389526 -0.27981567 0.387146 -0.65756226q0.07632446 -0.28475952 0.11264038 -1.3415833q0.0037231445 -0.14816284 0.030639648 -0.43417358l-6.458618 -8.351501l1.7183533 -0.5253906l3.6295776 4.8703003q0.70373535 0.91223145 1.3543701 1.971405q-0.069122314 -1.1879578 -4.272461E-4 -2.3526917l0.32095337 -6.1109314l1.5987854 -0.48883057l-0.6529846 10.689331q-0.09265137 1.7276001 -0.24319458 2.4108582q-0.17623901 0.91986084 -0.6194458 1.4475098q-0.43862915 0.54260254 -1.2006836 0.77560425q-0.4631958 0.14163208 -1.0903931 0.12097168zm5.3322754 -14.783356l-1.1630859 -2.3076477l-0.6624756 -2.1665955l1.822937 -0.55737305l0.6624756 2.1665955l0.32632446 2.5634766l-0.98617554 0.3015442z" fill-rule="nonzero"></path><path fill="#000000" fill-opacity="0.0" d="m399.9339 460.38605l0 0c6.058655 19.778198 9.162781 40.342773 9.211914 61.028076l-210.06241 0.49865723z" fill-rule="nonzero"></path><path fill="#000000" fill-opacity="0.0" d="m399.9339 460.38605l0 0c6.058655 19.778198 9.162781 40.342773 9.211914 61.028076" fill-rule="nonzero"></path><path stroke="#ff0000" stroke-width="2.0" stroke-linejoin="round" stroke-linecap="butt" d="m399.9339 460.38605l0 0c6.058655 19.778198 9.162781 40.342773 9.211914 61.028076" fill-rule="nonzero"></path><path fill="#000000" fill-opacity="0.0" d="m233.6661 472.8957l39.811005 -21.858246l21.763794 39.62204l-39.81102 21.858276z" fill-rule="nonzero"></path><path fill="#000000" d="m253.13431 475.75385l1.5750885 -0.8648071l0.8124237 1.479065q2.5891724 -1.2255249 4.6398926 -0.6402283q2.0431824 0.5715637 3.1113586 2.5162659q1.1960754 2.1775208 0.4500122 4.227051q-0.7460327 2.04953 -2.9881897 3.3875427l0.9553528 1.7392578l-1.5751038 0.8648071l-0.9553528 -1.7392578q-2.4009094 1.2112732 -4.5262604 0.68481445q-2.125351 -0.52648926 -3.2311554 -2.5396423q-0.7296753 -1.3284302 -0.7000885 -2.7350159q0.022064209 -1.4203186 0.7929535 -2.6457214q0.7708893 -1.2254028 2.4515076 -2.255066l-0.81243896 -1.479065zm1.564682 2.8485413q-1.6620941 0.96606445 -2.1119995 2.3539124q-0.44374084 1.3666077 0.45143127 2.9963074q0.9026947 1.6434021 2.3901367 1.949707q1.4799194 0.29263306 2.994049 -0.520874l-3.7236176 -6.7790527zm5.298691 5.9142456q1.6347046 -0.9510193 2.0907898 -2.360077q0.4560852 -1.4090271 -0.40899658 -2.9839783q-0.8199463 -1.4927368 -2.2429504 -1.9413757q-1.4230042 -0.44863892 -3.162445 0.5064087l3.7236023 6.779022z" fill-rule="nonzero"></path><path fill="#000000" fill-opacity="0.0" d="m255.23177 488.3363l38.45668 0l0 53.57483l-38.45668 0z" fill-rule="nonzero"></path><path fill="#ff0000" d="m265.09113 507.43005q0 -7.03125 4.421875 -7.03125q4.4375 0 4.4375 7.03125q0 7.015625 -4.4375 7.015625q-4.421875 0 -4.421875 -7.015625zm1.71875 -0.6875l5.421875 0q-0.09375 -2.890625 -0.84375 -3.921875q-0.734375 -1.046875 -1.890625 -1.046875q-2.578125 0 -2.6875 4.96875zm5.421875 1.359375l-5.421875 0q0.109375 4.96875 2.703125 4.96875q2.625 0 2.71875 -4.96875z" fill-rule="nonzero"></path><path fill="#000000" fill-opacity="0.0" d="m307.85828 404.65616l-108.28348 0.25198364" fill-rule="nonzero"></path><path stroke="#ff0000" stroke-width="2.0" stroke-linejoin="round" stroke-linecap="butt" stroke-dasharray="2.0,6.0" d="m307.85828 404.65616l-108.28348 0.25198364" fill-rule="nonzero"></path><path fill="#000000" fill-opacity="0.0" d="m308.6063 404.90552l0 116.75592" fill-rule="nonzero"></path><path stroke="#ff0000" stroke-width="2.0" stroke-linejoin="round" stroke-linecap="butt" stroke-dasharray="2.0,6.0" d="m308.6063 404.90552l0 116.75592" fill-rule="nonzero"></path><path fill="#000000" fill-opacity="0.0" d="m244.9895 510.937l23.968506 0l0 37.543274l-23.968506 0z" fill-rule="nonzero"></path><path fill="#ff0000" d="m254.13013 536.82764l3.59375 -5.125l-3.328125 -4.734375l2.09375 0l1.515625 2.3125q0.421875 0.65625 0.671875 1.109375q0.421875 -0.609375 0.765625 -1.09375l1.65625 -2.328125l1.984375 0l-3.390625 4.640625l3.65625 5.21875l-2.046875 0l-2.03125 -3.0625l-0.53125 -0.828125l-2.59375 3.890625l-2.015625 0z" fill-rule="nonzero"></path><path fill="#000000" fill-opacity="0.0" d="m175.6063 419.1601l23.968506 0l0 37.543304l-23.968506 0z" fill-rule="nonzero"></path><path fill="#ff0000" d="m185.77817 448.8476l-0.171875 -1.5625q0.546875 0.140625 0.953125 0.140625q0.546875 0 0.875 -0.1875q0.34375 -0.1875 0.5625 -0.515625q0.15625 -0.25 0.5 -1.25q0.046875 -0.140625 0.15625 -0.40625l-3.734375 -9.875l1.796875 0l2.046875 5.71875q0.40625 1.078125 0.71875 2.28125q0.28125 -1.15625 0.6875 -2.25l2.09375 -5.75l1.671875 0l-3.75 10.03125q-0.59375 1.625 -0.9375 2.234375q-0.4375 0.828125 -1.015625 1.203125q-0.578125 0.390625 -1.375 0.390625q-0.484375 0 -1.078125 -0.203125z" fill-rule="nonzero"></path></g></svg>

