<?xml version="1.0" standalone="yes"?>

<svg version="1.1" viewBox="0.0 0.0 960.0 720.0" fill="none" stroke="none" stroke-linecap="square" stroke-miterlimit="10" xmlns="http://www.w3.org/2000/svg" xmlns:xlink="http://www.w3.org/1999/xlink"><clipPath id="p.0"><path d="m0 0l960.0 0l0 720.0l-960.0 0l0 -720.0z" clip-rule="nonzero"></path></clipPath><g clip-path="url(#p.0)"><path fill="#000000" fill-opacity="0.0" d="m0 0l960.0 0l0 720.0l-960.0 0z" fill-rule="nonzero"></path><path fill="#f4cccc" d="m143.36745 58.115486l0 0c0 -10.749985 8.9331665 -19.46457 19.952759 -19.46457l0 0c5.291809 0 10.366867 2.0507278 14.108734 5.701042c3.741867 3.6503143 5.8440247 8.601204 5.8440247 13.763527l0 0c0 10.749985 -8.933151 19.46457 -19.952759 19.46457l0 0c-11.019592 0 -19.952759 -8.714584 -19.952759 -19.46457z" fill-rule="nonzero"></path><path stroke="#000000" stroke-width="2.0" stroke-linejoin="round" stroke-linecap="butt" d="m143.36745 58.115486l0 0c0 -10.749985 8.9331665 -19.46457 19.952759 -19.46457l0 0c5.291809 0 10.366867 2.0507278 14.108734 5.701042c3.741867 3.6503143 5.8440247 8.601204 5.8440247 13.763527l0 0c0 10.749985 -8.933151 19.46457 -19.952759 19.46457l0 0c-11.019592 0 -19.952759 -8.714584 -19.952759 -19.46457z" fill-rule="nonzero"></path><path fill="#000000" d="m158.18024 64.27955l5.234375 -13.59375l1.9375 0l5.5625 13.59375l-2.046875 0l-1.59375 -4.125l-5.6875 0l-1.484375 4.125l-1.921875 0zm3.921875 -5.578125l4.609375 0l-1.40625 -3.78125q-0.65625 -1.703125 -0.96875 -2.8125q-0.265625 1.3125 -0.734375 2.59375l-1.5 4.0z" fill-rule="nonzero"></path><path fill="#fff2cc" d="m368.63516 58.115486l0 0c0 -10.749985 8.9331665 -19.46457 19.952759 -19.46457l0 0c5.291809 0 10.366852 2.0507278 14.108734 5.701042c3.7418823 3.6503143 5.8440247 8.601204 5.8440247 13.763527l0 0c0 10.749985 -8.933136 19.46457 -19.952759 19.46457l0 0c-11.019592 0 -19.952759 -8.714584 -19.952759 -19.46457z" fill-rule="nonzero"></path><path stroke="#000000" stroke-width="2.0" stroke-linejoin="round" stroke-linecap="butt" d="m368.63516 58.115486l0 0c0 -10.749985 8.9331665 -19.46457 19.952759 -19.46457l0 0c5.291809 0 10.366852 2.0507278 14.108734 5.701042c3.7418823 3.6503143 5.8440247 8.601204 5.8440247 13.763527l0 0c0 10.749985 -8.933136 19.46457 -19.952759 19.46457l0 0c-11.019592 0 -19.952759 -8.714584 -19.952759 -19.46457z" fill-rule="nonzero"></path><path fill="#000000" d="m384.8698 64.27955l0 -13.59375l5.109375 0q1.546875 0 2.484375 0.40625q0.953125 0.40625 1.484375 1.265625q0.53125 0.859375 0.53125 1.796875q0 0.875 -0.46875 1.65625q-0.46875 0.765625 -1.4375 1.234375q1.234375 0.359375 1.890625 1.234375q0.671875 0.875 0.671875 2.0625q0 0.953125 -0.40625 1.78125q-0.390625 0.8125 -0.984375 1.265625q-0.59375 0.4375 -1.5 0.671875q-0.890625 0.21875 -2.1875 0.21875l-5.1875 0zm1.796875 -7.890625l2.9375 0q1.203125 0 1.71875 -0.15625q0.6875 -0.203125 1.03125 -0.671875q0.359375 -0.46875 0.359375 -1.1875q0 -0.671875 -0.328125 -1.1875q-0.328125 -0.515625 -0.9375 -0.703125q-0.59375 -0.203125 -2.0625 -0.203125l-2.71875 0l0 4.109375zm0 6.28125l3.390625 0q0.875 0 1.21875 -0.0625q0.625 -0.109375 1.046875 -0.359375q0.421875 -0.265625 0.6875 -0.765625q0.265625 -0.5 0.265625 -1.140625q0 -0.765625 -0.390625 -1.328125q-0.390625 -0.5625 -1.078125 -0.78125q-0.6875 -0.234375 -1.984375 -0.234375l-3.15625 0l0 4.671875z" fill-rule="nonzero"></path><path fill="#d9ead3" d="m599.9344 58.115486l0 0c0 -10.749985 8.9331665 -19.46457 19.952759 -19.46457l0 0c5.291809 0 10.366882 2.0507278 14.108704 5.701042c3.7418823 3.6503143 5.844055 8.601204 5.844055 13.763527l0 0c0 10.749985 -8.9331665 19.46457 -19.952759 19.46457l0 0c-11.019592 0 -19.952759 -8.714584 -19.952759 -19.46457z" fill-rule="nonzero"></path><path stroke="#000000" stroke-width="2.0" stroke-linejoin="round" stroke-linecap="butt" d="m599.9344 58.115486l0 0c0 -10.749985 8.9331665 -19.46457 19.952759 -19.46457l0 0c5.291809 0 10.366882 2.0507278 14.108704 5.701042c3.7418823 3.6503143 5.844055 8.601204 5.844055 13.763527l0 0c0 10.749985 -8.9331665 19.46457 -19.952759 19.46457l0 0c-11.019592 0 -19.952759 -8.714584 -19.952759 -19.46457z" fill-rule="nonzero"></path><path fill="#000000" d="m625.95026 59.513924l1.796875 0.453125q-0.5625 2.21875 -2.03125 3.390625q-1.46875 1.15625 -3.59375 1.15625q-2.203125 0 -3.578125 -0.890625q-1.375 -0.90625 -2.09375 -2.59375q-0.71875 -1.703125 -0.71875 -3.65625q0 -2.125 0.796875 -3.703125q0.8125 -1.578125 2.3125 -2.390625q1.5 -0.828125 3.296875 -0.828125q2.046875 0 3.4375 1.046875q1.390625 1.03125 1.9375 2.90625l-1.765625 0.421875q-0.46875 -1.484375 -1.375 -2.15625q-0.90625 -0.6875 -2.265625 -0.6875q-1.5625 0 -2.625 0.75q-1.046875 0.75 -1.484375 2.03125q-0.421875 1.265625 -0.421875 2.609375q0 1.734375 0.5 3.03125q0.515625 1.28125 1.578125 1.921875q1.078125 0.640625 2.3125 0.640625q1.515625 0 2.5625 -0.859375q1.046875 -0.875 1.421875 -2.59375z" fill-rule="nonzero"></path><path fill="#c9daf8" d="m742.1312 58.115486l0 0c0 -10.749985 8.9331665 -19.46457 19.952759 -19.46457l0 0c5.291809 0 10.366882 2.0507278 14.108704 5.701042c3.7418823 3.6503143 5.844055 8.601204 5.844055 13.763527l0 0c0 10.749985 -8.9331665 19.46457 -19.952759 19.46457l0 0c-11.019592 0 -19.952759 -8.714584 -19.952759 -19.46457z" fill-rule="nonzero"></path><path stroke="#000000" stroke-width="2.0" stroke-linejoin="round" stroke-linecap="butt" d="m742.1312 58.115486l0 0c0 -10.749985 8.9331665 -19.46457 19.952759 -19.46457l0 0c5.291809 0 10.366882 2.0507278 14.108704 5.701042c3.7418823 3.6503143 5.844055 8.601204 5.844055 13.763527l0 0c0 10.749985 -8.9331665 19.46457 -19.952759 19.46457l0 0c-11.019592 0 -19.952759 -8.714584 -19.952759 -19.46457z" fill-rule="nonzero"></path><path fill="#000000" d="m757.3503 64.27955l0 -1.671875l6.96875 -8.703125q0.75 -0.9375 1.421875 -1.625l-7.59375 0l0 -1.59375l9.734375 0l0 1.59375l-7.625 9.4375l-0.828125 0.953125l8.6875 0l0 1.609375l-10.765625 0z" fill-rule="nonzero"></path><path fill="#f4cccc" d="m56.225723 167.2441l0 0c0 -10.749985 8.933151 -19.46457 19.952751 -19.46457l0 0c5.2918015 0 10.366867 2.0507202 14.108734 5.7010345c3.741867 3.6503143 5.8440247 8.601212 5.8440247 13.763535l0 0c0 10.749985 -8.933151 19.46457 -19.952759 19.46457l0 0c-11.0196 0 -19.952751 -8.714584 -19.952751 -19.46457z" fill-rule="nonzero"></path><path stroke="#000000" stroke-width="2.0" stroke-linejoin="round" stroke-linecap="butt" d="m56.225723 167.2441l0 0c0 -10.749985 8.933151 -19.46457 19.952751 -19.46457l0 0c5.2918015 0 10.366867 2.0507202 14.108734 5.7010345c3.741867 3.6503143 5.8440247 8.601212 5.8440247 13.763535l0 0c0 10.749985 -8.933151 19.46457 -19.952759 19.46457l0 0c-11.0196 0 -19.952751 -8.714584 -19.952751 -19.46457z" fill-rule="nonzero"></path><path fill="#000000" d="m71.0385 173.40816l5.234375 -13.59375l1.9375 0l5.5625 13.59375l-2.046875 0l-1.59375 -4.125l-5.6875 0l-1.484375 4.125l-1.921875 0zm3.921875 -5.578125l4.609375 0l-1.40625 -3.78125q-0.65625 -1.703125 -0.96875 -2.8125q-0.265625 1.3125 -0.734375 2.59375l-1.5 4.0z" fill-rule="nonzero"></path><path fill="#fff2cc" d="m110.25459 167.2441l0 0c0 -10.749985 8.933151 -19.46457 19.952759 -19.46457l0 0c5.291794 0 10.366852 2.0507202 14.108719 5.7010345c3.7418823 3.6503143 5.84404 8.601212 5.84404 13.763535l0 0c0 10.749985 -8.933151 19.46457 -19.952759 19.46457l0 0c-11.019608 0 -19.952759 -8.714584 -19.952759 -19.46457z" fill-rule="nonzero"></path><path stroke="#000000" stroke-width="2.0" stroke-linejoin="round" stroke-linecap="butt" d="m110.25459 167.2441l0 0c0 -10.749985 8.933151 -19.46457 19.952759 -19.46457l0 0c5.291794 0 10.366852 2.0507202 14.108719 5.7010345c3.7418823 3.6503143 5.84404 8.601212 5.84404 13.763535l0 0c0 10.749985 -8.933151 19.46457 -19.952759 19.46457l0 0c-11.019608 0 -19.952759 -8.714584 -19.952759 -19.46457z" fill-rule="nonzero"></path><path fill="#000000" d="m126.48924 173.40816l0 -13.59375l5.109375 0q1.546875 0 2.484375 0.40625q0.953125 0.40625 1.484375 1.265625q0.53125 0.859375 0.53125 1.796875q0 0.875 -0.46875 1.65625q-0.46875 0.765625 -1.4375 1.234375q1.234375 0.359375 1.890625 1.234375q0.671875 0.875 0.671875 2.0625q0 0.953125 -0.40625 1.78125q-0.390625 0.8125 -0.984375 1.265625q-0.59375 0.4375 -1.5 0.671875q-0.890625 0.21875 -2.1875 0.21875l-5.1875 0zm1.796875 -7.890625l2.9375 0q1.203125 0 1.71875 -0.15625q0.6875 -0.203125 1.03125 -0.671875q0.359375 -0.46875 0.359375 -1.1875q0 -0.671875 -0.328125 -1.1875q-0.328125 -0.515625 -0.9375 -0.703125q-0.59375 -0.203125 -2.0625 -0.203125l-2.71875 0l0 4.109375zm0 6.28125l3.390625 0q0.875 0 1.21875 -0.0625q0.625 -0.109375 1.046875 -0.359375q0.421875 -0.265625 0.6875 -0.765625q0.265625 -0.5 0.265625 -1.140625q0 -0.765625 -0.390625 -1.328125q-0.390625 -0.5625 -1.078125 -0.78125q-0.6875 -0.234375 -1.984375 -0.234375l-3.15625 0l0 4.671875z" fill-rule="nonzero"></path><path fill="#d9ead3" d="m164.28346 167.2441l0 0c0 -10.749985 8.933151 -19.46457 19.952759 -19.46457l0 0c5.291794 0 10.366867 2.0507202 14.108734 5.7010345c3.741867 3.6503143 5.8440247 8.601212 5.8440247 13.763535l0 0c0 10.749985 -8.933151 19.46457 -19.952759 19.46457l0 0c-11.019608 0 -19.952759 -8.714584 -19.952759 -19.46457z" fill-rule="nonzero"></path><path stroke="#000000" stroke-width="2.0" stroke-linejoin="round" stroke-linecap="butt" d="m164.28346 167.2441l0 0c0 -10.749985 8.933151 -19.46457 19.952759 -19.46457l0 0c5.291794 0 10.366867 2.0507202 14.108734 5.7010345c3.741867 3.6503143 5.8440247 8.601212 5.8440247 13.763535l0 0c0 10.749985 -8.933151 19.46457 -19.952759 19.46457l0 0c-11.019608 0 -19.952759 -8.714584 -19.952759 -19.46457z" fill-rule="nonzero"></path><path fill="#000000" d="m190.29936 168.64253l1.796875 0.453125q-0.5625 2.21875 -2.03125 3.390625q-1.46875 1.15625 -3.59375 1.15625q-2.203125 0 -3.578125 -0.890625q-1.375 -0.90625 -2.09375 -2.59375q-0.71875 -1.703125 -0.71875 -3.65625q0 -2.125 0.796875 -3.703125q0.8125 -1.578125 2.3125 -2.390625q1.5 -0.828125 3.296875 -0.828125q2.046875 0 3.4375 1.046875q1.390625 1.03125 1.9375 2.90625l-1.765625 0.421875q-0.46875 -1.484375 -1.375 -2.15625q-0.90625 -0.6875 -2.265625 -0.6875q-1.5625 0 -2.625 0.75q-1.046875 0.75 -1.484375 2.03125q-0.421875 1.265625 -0.421875 2.609375q0 1.734375 0.5 3.03125q0.515625 1.28125 1.578125 1.921875q1.078125 0.640625 2.3125 0.640625q1.515625 0 2.5625 -0.859375q1.046875 -0.875 1.421875 -2.59375z" fill-rule="nonzero"></path><path fill="#c9daf8" d="m218.31233 167.2441l0 0c0 -10.749985 8.933151 -19.46457 19.952759 -19.46457l0 0c5.291794 0 10.366867 2.0507202 14.108734 5.7010345c3.741867 3.6503143 5.8440094 8.601212 5.8440094 13.763535l0 0c0 10.749985 -8.933136 19.46457 -19.952744 19.46457l0 0c-11.019608 0 -19.952759 -8.714584 -19.952759 -19.46457z" fill-rule="nonzero"></path><path stroke="#000000" stroke-width="2.0" stroke-linejoin="round" stroke-linecap="butt" d="m218.31233 167.2441l0 0c0 -10.749985 8.933151 -19.46457 19.952759 -19.46457l0 0c5.291794 0 10.366867 2.0507202 14.108734 5.7010345c3.741867 3.6503143 5.8440094 8.601212 5.8440094 13.763535l0 0c0 10.749985 -8.933136 19.46457 -19.952744 19.46457l0 0c-11.019608 0 -19.952759 -8.714584 -19.952759 -19.46457z" fill-rule="nonzero"></path><path fill="#000000" d="m233.53136 173.40816l0 -1.671875l6.96875 -8.703125q0.75 -0.9375 1.421875 -1.625l-7.59375 0l0 -1.59375l9.734375 0l0 1.59375l-7.625 9.4375l-0.828125 0.953125l8.6875 0l0 1.609375l-10.765625 0z" fill-rule="nonzero"></path><path fill="#f4cccc" d="m287.5584 167.2441l0 0c0 -10.749985 8.933136 -19.46457 19.952759 -19.46457l0 0c5.2917786 0 10.366852 2.0507202 14.108704 5.7010345c3.7418823 3.6503143 5.8440247 8.601212 5.8440247 13.763535l0 0c0 10.749985 -8.933136 19.46457 -19.952728 19.46457l0 0c-11.019623 0 -19.952759 -8.714584 -19.952759 -19.46457z" fill-rule="nonzero"></path><path stroke="#000000" stroke-width="2.0" stroke-linejoin="round" stroke-linecap="butt" d="m287.5584 167.2441l0 0c0 -10.749985 8.933136 -19.46457 19.952759 -19.46457l0 0c5.2917786 0 10.366852 2.0507202 14.108704 5.7010345c3.7418823 3.6503143 5.8440247 8.601212 5.8440247 13.763535l0 0c0 10.749985 -8.933136 19.46457 -19.952728 19.46457l0 0c-11.019623 0 -19.952759 -8.714584 -19.952759 -19.46457z" fill-rule="nonzero"></path><path fill="#000000" d="m302.3712 173.40816l5.234375 -13.59375l1.9375 0l5.5625 13.59375l-2.046875 0l-1.59375 -4.125l-5.6875 0l-1.484375 4.125l-1.921875 0zm3.921875 -5.578125l4.609375 0l-1.40625 -3.78125q-0.65625 -1.703125 -0.96875 -2.8125q-0.265625 1.3125 -0.734375 2.59375l-1.5 4.0z" fill-rule="nonzero"></path><path fill="#fff2cc" d="m341.58728 167.2441l0 0c0 -10.749985 8.933136 -19.46457 19.952759 -19.46457l0 0c5.2917786 0 10.366852 2.0507202 14.108704 5.7010345c3.7418823 3.6503143 5.8440247 8.601212 5.8440247 13.763535l0 0c0 10.749985 -8.933136 19.46457 -19.952728 19.46457l0 0c-11.019623 0 -19.952759 -8.714584 -19.952759 -19.46457z" fill-rule="nonzero"></path><path stroke="#000000" stroke-width="2.0" stroke-linejoin="round" stroke-linecap="butt" d="m341.58728 167.2441l0 0c0 -10.749985 8.933136 -19.46457 19.952759 -19.46457l0 0c5.2917786 0 10.366852 2.0507202 14.108704 5.7010345c3.7418823 3.6503143 5.8440247 8.601212 5.8440247 13.763535l0 0c0 10.749985 -8.933136 19.46457 -19.952728 19.46457l0 0c-11.019623 0 -19.952759 -8.714584 -19.952759 -19.46457z" fill-rule="nonzero"></path><path fill="#000000" d="m357.82193 173.40816l0 -13.59375l5.109375 0q1.546875 0 2.484375 0.40625q0.953125 0.40625 1.484375 1.265625q0.53125 0.859375 0.53125 1.796875q0 0.875 -0.46875 1.65625q-0.46875 0.765625 -1.4375 1.234375q1.234375 0.359375 1.890625 1.234375q0.671875 0.875 0.671875 2.0625q0 0.953125 -0.40625 1.78125q-0.390625 0.8125 -0.984375 1.265625q-0.59375 0.4375 -1.5 0.671875q-0.890625 0.21875 -2.1875 0.21875l-5.1875 0zm1.796875 -7.890625l2.9375 0q1.203125 0 1.71875 -0.15625q0.6875 -0.203125 1.03125 -0.671875q0.359375 -0.46875 0.359375 -1.1875q0 -0.671875 -0.328125 -1.1875q-0.328125 -0.515625 -0.9375 -0.703125q-0.59375 -0.203125 -2.0625 -0.203125l-2.71875 0l0 4.109375zm0 6.28125l3.390625 0q0.875 0 1.21875 -0.0625q0.625 -0.109375 1.046875 -0.359375q0.421875 -0.265625 0.6875 -0.765625q0.265625 -0.5 0.265625 -1.140625q0 -0.765625 -0.390625 -1.328125q-0.390625 -0.5625 -1.078125 -0.78125q-0.6875 -0.234375 -1.984375 -0.234375l-3.15625 0l0 4.671875z" fill-rule="nonzero"></path><path fill="#d9ead3" d="m395.61615 167.2441l0 0c0 -10.749985 8.933136 -19.46457 19.952759 -19.46457l0 0c5.2917786 0 10.366852 2.0507202 14.108704 5.7010345c3.7418823 3.6503143 5.844055 8.601212 5.844055 13.763535l0 0c0 10.749985 -8.9331665 19.46457 -19.952759 19.46457l0 0c-11.019623 0 -19.952759 -8.714584 -19.952759 -19.46457z" fill-rule="nonzero"></path><path stroke="#000000" stroke-width="2.0" stroke-linejoin="round" stroke-linecap="butt" d="m395.61615 167.2441l0 0c0 -10.749985 8.933136 -19.46457 19.952759 -19.46457l0 0c5.2917786 0 10.366852 2.0507202 14.108704 5.7010345c3.7418823 3.6503143 5.844055 8.601212 5.844055 13.763535l0 0c0 10.749985 -8.9331665 19.46457 -19.952759 19.46457l0 0c-11.019623 0 -19.952759 -8.714584 -19.952759 -19.46457z" fill-rule="nonzero"></path><path fill="#000000" d="m421.63205 168.64253l1.796875 0.453125q-0.5625 2.21875 -2.03125 3.390625q-1.46875 1.15625 -3.59375 1.15625q-2.203125 0 -3.578125 -0.890625q-1.375 -0.90625 -2.09375 -2.59375q-0.71875 -1.703125 -0.71875 -3.65625q0 -2.125 0.796875 -3.703125q0.8125 -1.578125 2.3125 -2.390625q1.5 -0.828125 3.296875 -0.828125q2.046875 0 3.4375 1.046875q1.390625 1.03125 1.9375 2.90625l-1.765625 0.421875q-0.46875 -1.484375 -1.375 -2.15625q-0.90625 -0.6875 -2.265625 -0.6875q-1.5625 0 -2.625 0.75q-1.046875 0.75 -1.484375 2.03125q-0.421875 1.265625 -0.421875 2.609375q0 1.734375 0.5 3.03125q0.515625 1.28125 1.578125 1.921875q1.078125 0.640625 2.3125 0.640625q1.515625 0 2.5625 -0.859375q1.046875 -0.875 1.421875 -2.59375z" fill-rule="nonzero"></path><path fill="#c9daf8" d="m449.64502 167.2441l0 0c0 -10.749985 8.933136 -19.46457 19.952759 -19.46457l0 0c5.2917786 0 10.366852 2.0507202 14.108734 5.7010345c3.7418518 3.6503143 5.8440247 8.601212 5.8440247 13.763535l0 0c0 10.749985 -8.9331665 19.46457 -19.952759 19.46457l0 0c-11.019623 0 -19.952759 -8.714584 -19.952759 -19.46457z" fill-rule="nonzero"></path><path stroke="#000000" stroke-width="2.0" stroke-linejoin="round" stroke-linecap="butt" d="m449.64502 167.2441l0 0c0 -10.749985 8.933136 -19.46457 19.952759 -19.46457l0 0c5.2917786 0 10.366852 2.0507202 14.108734 5.7010345c3.7418518 3.6503143 5.8440247 8.601212 5.8440247 13.763535l0 0c0 10.749985 -8.9331665 19.46457 -19.952759 19.46457l0 0c-11.019623 0 -19.952759 -8.714584 -19.952759 -19.46457z" fill-rule="nonzero"></path><path fill="#000000" d="m464.86404 173.40816l0 -1.671875l6.96875 -8.703125q0.75 -0.9375 1.421875 -1.625l-7.59375 0l0 -1.59375l9.734375 0l0 1.59375l-7.625 9.4375l-0.828125 0.953125l8.6875 0l0 1.609375l-10.765625 0z" fill-rule="nonzero"></path><path fill="#f4cccc" d="m518.89105 167.2441l0 0c0 -10.749985 8.9331665 -19.46457 19.952759 -19.46457l0 0c5.291809 0 10.366882 2.0507202 14.108765 5.7010345c3.7418823 3.6503143 5.843994 8.601212 5.843994 13.763535l0 0c0 10.749985 -8.933105 19.46457 -19.952759 19.46457l0 0c-11.019592 0 -19.952759 -8.714584 -19.952759 -19.46457z" fill-rule="nonzero"></path><path stroke="#000000" stroke-width="2.0" stroke-linejoin="round" stroke-linecap="butt" d="m518.89105 167.2441l0 0c0 -10.749985 8.9331665 -19.46457 19.952759 -19.46457l0 0c5.291809 0 10.366882 2.0507202 14.108765 5.7010345c3.7418823 3.6503143 5.843994 8.601212 5.843994 13.763535l0 0c0 10.749985 -8.933105 19.46457 -19.952759 19.46457l0 0c-11.019592 0 -19.952759 -8.714584 -19.952759 -19.46457z" fill-rule="nonzero"></path><path fill="#000000" d="m533.70386 173.40816l5.234375 -13.59375l1.9375 0l5.5625 13.59375l-2.046875 0l-1.59375 -4.125l-5.6875 0l-1.484375 4.125l-1.921875 0zm3.921875 -5.578125l4.609375 0l-1.40625 -3.78125q-0.65625 -1.703125 -0.96875 -2.8125q-0.265625 1.3125 -0.734375 2.59375l-1.5 4.0z" fill-rule="nonzero"></path><path fill="#fff2cc" d="m572.9199 167.2441l0 0c0 -10.749985 8.9331665 -19.46457 19.952759 -19.46457l0 0c5.291809 0 10.366882 2.0507202 14.108765 5.7010345c3.7418823 3.6503143 5.843994 8.601212 5.843994 13.763535l0 0c0 10.749985 -8.933105 19.46457 -19.952759 19.46457l0 0c-11.019592 0 -19.952759 -8.714584 -19.952759 -19.46457z" fill-rule="nonzero"></path><path stroke="#000000" stroke-width="2.0" stroke-linejoin="round" stroke-linecap="butt" d="m572.9199 167.2441l0 0c0 -10.749985 8.9331665 -19.46457 19.952759 -19.46457l0 0c5.291809 0 10.366882 2.0507202 14.108765 5.7010345c3.7418823 3.6503143 5.843994 8.601212 5.843994 13.763535l0 0c0 10.749985 -8.933105 19.46457 -19.952759 19.46457l0 0c-11.019592 0 -19.952759 -8.714584 -19.952759 -19.46457z" fill-rule="nonzero"></path><path fill="#000000" d="m589.1546 173.40816l0 -13.59375l5.109375 0q1.546875 0 2.484375 0.40625q0.953125 0.40625 1.484375 1.265625q0.53125 0.859375 0.53125 1.796875q0 0.875 -0.46875 1.65625q-0.46875 0.765625 -1.4375 1.234375q1.234375 0.359375 1.890625 1.234375q0.671875 0.875 0.671875 2.0625q0 0.953125 -0.40625 1.78125q-0.390625 0.8125 -0.984375 1.265625q-0.59375 0.4375 -1.5 0.671875q-0.890625 0.21875 -2.1875 0.21875l-5.1875 0zm1.796875 -7.890625l2.9375 0q1.203125 0 1.71875 -0.15625q0.6875 -0.203125 1.03125 -0.671875q0.359375 -0.46875 0.359375 -1.1875q0 -0.671875 -0.328125 -1.1875q-0.328125 -0.515625 -0.9375 -0.703125q-0.59375 -0.203125 -2.0625 -0.203125l-2.71875 0l0 4.109375zm0 6.28125l3.390625 0q0.875 0 1.21875 -0.0625q0.625 -0.109375 1.046875 -0.359375q0.421875 -0.265625 0.6875 -0.765625q0.265625 -0.5 0.265625 -1.140625q0 -0.765625 -0.390625 -1.328125q-0.390625 -0.5625 -1.078125 -0.78125q-0.6875 -0.234375 -1.984375 -0.234375l-3.15625 0l0 4.671875z" fill-rule="nonzero"></path><path fill="#d9ead3" d="m626.9488 167.2441l0 0c0 -10.749985 8.9331665 -19.46457 19.952759 -19.46457l0 0c5.291809 0 10.366882 2.0507202 14.108765 5.7010345c3.7418823 3.6503143 5.843994 8.601212 5.843994 13.763535l0 0c0 10.749985 -8.933105 19.46457 -19.952759 19.46457l0 0c-11.019592 0 -19.952759 -8.714584 -19.952759 -19.46457z" fill-rule="nonzero"></path><path stroke="#000000" stroke-width="2.0" stroke-linejoin="round" stroke-linecap="butt" d="m626.9488 167.2441l0 0c0 -10.749985 8.9331665 -19.46457 19.952759 -19.46457l0 0c5.291809 0 10.366882 2.0507202 14.108765 5.7010345c3.7418823 3.6503143 5.843994 8.601212 5.843994 13.763535l0 0c0 10.749985 -8.933105 19.46457 -19.952759 19.46457l0 0c-11.019592 0 -19.952759 -8.714584 -19.952759 -19.46457z" fill-rule="nonzero"></path><path fill="#000000" d="m652.9647 168.64253l1.796875 0.453125q-0.5625 2.21875 -2.03125 3.390625q-1.46875 1.15625 -3.59375 1.15625q-2.203125 0 -3.578125 -0.890625q-1.375 -0.90625 -2.09375 -2.59375q-0.71875 -1.703125 -0.71875 -3.65625q0 -2.125 0.796875 -3.703125q0.8125 -1.578125 2.3125 -2.390625q1.5 -0.828125 3.296875 -0.828125q2.046875 0 3.4375 1.046875q1.390625 1.03125 1.9375 2.90625l-1.765625 0.421875q-0.46875 -1.484375 -1.375 -2.15625q-0.90625 -0.6875 -2.265625 -0.6875q-1.5625 0 -2.625 0.75q-1.046875 0.75 -1.484375 2.03125q-0.421875 1.265625 -0.421875 2.609375q0 1.734375 0.5 3.03125q0.515625 1.28125 1.578125 1.921875q1.078125 0.640625 2.3125 0.640625q1.515625 0 2.5625 -0.859375q1.046875 -0.875 1.421875 -2.59375z" fill-rule="nonzero"></path><path fill="#c9daf8" d="m680.97766 167.2441l0 0c0 -10.749985 8.9331665 -19.46457 19.952759 -19.46457l0 0c5.291809 0 10.366882 2.0507202 14.108765 5.7010345c3.7418823 3.6503143 5.843994 8.601212 5.843994 13.763535l0 0c0 10.749985 -8.933105 19.46457 -19.952759 19.46457l0 0c-11.019592 0 -19.952759 -8.714584 -19.952759 -19.46457z" fill-rule="nonzero"></path><path stroke="#000000" stroke-width="2.0" stroke-linejoin="round" stroke-linecap="butt" d="m680.97766 167.2441l0 0c0 -10.749985 8.9331665 -19.46457 19.952759 -19.46457l0 0c5.291809 0 10.366882 2.0507202 14.108765 5.7010345c3.7418823 3.6503143 5.843994 8.601212 5.843994 13.763535l0 0c0 10.749985 -8.933105 19.46457 -19.952759 19.46457l0 0c-11.019592 0 -19.952759 -8.714584 -19.952759 -19.46457z" fill-rule="nonzero"></path><path fill="#000000" d="m696.1967 173.40816l0 -1.671875l6.96875 -8.703125q0.75 -0.9375 1.421875 -1.625l-7.59375 0l0 -1.59375l9.734375 0l0 1.59375l-7.625 9.4375l-0.828125 0.953125l8.6875 0l0 1.609375l-10.765625 0z" fill-rule="nonzero"></path><path fill="#000000" fill-opacity="0.0" d="m163.3202 77.580055l-33.112854 70.19947" fill-rule="nonzero"></path><path stroke="#000000" stroke-width="2.0" stroke-linejoin="round" stroke-linecap="butt" d="m163.3202 77.580055l-33.112854 70.19947" fill-rule="nonzero"></path><path fill="#000000" fill-opacity="0.0" d="m162.66667 79.84252l-86.4882 67.937004" fill-rule="nonzero"></path><path stroke="#000000" stroke-width="2.0" stroke-linejoin="round" stroke-linecap="butt" d="m162.66667 79.84252l-86.4882 67.937004" fill-rule="nonzero"></path><path fill="#000000" fill-opacity="0.0" d="m163.3202 77.580055l20.916016 70.19947" fill-rule="nonzero"></path><path stroke="#000000" stroke-width="2.0" stroke-linejoin="round" stroke-linecap="butt" d="m163.3202 77.580055l20.916016 70.19947" fill-rule="nonzero"></path><path fill="#000000" fill-opacity="0.0" d="m163.65092 77.826775l74.61417 69.95275" fill-rule="nonzero"></path><path stroke="#000000" stroke-width="2.0" stroke-linejoin="round" stroke-linecap="butt" d="m163.65092 77.826775l74.61417 69.95275" fill-rule="nonzero"></path><path fill="#000000" fill-opacity="0.0" d="m388.58792 77.580055l-81.07675 70.19947" fill-rule="nonzero"></path><path stroke="#000000" stroke-width="2.0" stroke-linejoin="round" stroke-linecap="butt" d="m388.58792 77.580055l-81.07675 70.19947" fill-rule="nonzero"></path><path fill="#000000" fill-opacity="0.0" d="m388.58792 77.580055l-27.047882 70.19947" fill-rule="nonzero"></path><path stroke="#000000" stroke-width="2.0" stroke-linejoin="round" stroke-linecap="butt" d="m388.58792 77.580055l-27.047882 70.19947" fill-rule="nonzero"></path><path fill="#000000" fill-opacity="0.0" d="m390.18307 76.850395l25.385834 70.92913" fill-rule="nonzero"></path><path stroke="#000000" stroke-width="2.0" stroke-linejoin="round" stroke-linecap="butt" d="m390.18307 76.850395l25.385834 70.92913" fill-rule="nonzero"></path><path fill="#000000" fill-opacity="0.0" d="m390.1962 75.84252l79.40158 71.937004" fill-rule="nonzero"></path><path stroke="#000000" stroke-width="2.0" stroke-linejoin="round" stroke-linecap="butt" d="m390.1962 75.84252l79.40158 71.937004" fill-rule="nonzero"></path><path fill="#000000" fill-opacity="0.0" d="m619.88715 77.580055l-81.043335 70.19947" fill-rule="nonzero"></path><path stroke="#000000" stroke-width="2.0" stroke-linejoin="round" stroke-linecap="butt" d="m619.88715 77.580055l-81.043335 70.19947" fill-rule="nonzero"></path><path fill="#000000" fill-opacity="0.0" d="m619.88715 77.580055l-27.014465 70.19947" fill-rule="nonzero"></path><path stroke="#000000" stroke-width="2.0" stroke-linejoin="round" stroke-linecap="butt" d="m619.88715 77.580055l-27.014465 70.19947" fill-rule="nonzero"></path><path fill="#000000" fill-opacity="0.0" d="m619.88715 77.580055l27.014404 70.19947" fill-rule="nonzero"></path><path stroke="#000000" stroke-width="2.0" stroke-linejoin="round" stroke-linecap="butt" d="m619.88715 77.580055l27.014404 70.19947" fill-rule="nonzero"></path><path fill="#000000" fill-opacity="0.0" d="m620.70996 77.826775l80.22046 69.95275" fill-rule="nonzero"></path><path stroke="#000000" stroke-width="2.0" stroke-linejoin="round" stroke-linecap="butt" d="m620.70996 77.826775l80.22046 69.95275" fill-rule="nonzero"></path><path fill="#f4cccc" d="m260.54398 299.00262l0 0c0 -10.7499695 8.933136 -19.46457 19.952728 -19.46457l0 0c5.291809 0 10.366882 2.0507202 14.108734 5.70105c3.7418823 3.650299 5.8440247 8.601196 5.8440247 13.763519l0 0c0 10.7499695 -8.933136 19.46457 -19.952759 19.46457l0 0c-11.019592 0 -19.952728 -8.7146 -19.952728 -19.46457z" fill-rule="nonzero"></path><path stroke="#000000" stroke-width="2.0" stroke-linejoin="round" stroke-linecap="butt" d="m260.54398 299.00262l0 0c0 -10.7499695 8.933136 -19.46457 19.952728 -19.46457l0 0c5.291809 0 10.366882 2.0507202 14.108734 5.70105c3.7418823 3.650299 5.8440247 8.601196 5.8440247 13.763519l0 0c0 10.7499695 -8.933136 19.46457 -19.952759 19.46457l0 0c-11.019592 0 -19.952728 -8.7146 -19.952728 -19.46457z" fill-rule="nonzero"></path><path fill="#000000" d="m275.35675 305.1667l5.234375 -13.59375l1.9375 0l5.5625 13.59375l-2.046875 0l-1.59375 -4.125l-5.6875 0l-1.484375 4.125l-1.921875 0zm3.921875 -5.578125l4.609375 0l-1.40625 -3.78125q-0.65625 -1.703125 -0.96875 -2.8125q-0.265625 1.3125 -0.734375 2.59375l-1.5 4.0z" fill-rule="nonzero"></path><path fill="#fff2cc" d="m314.57285 299.00262l0 0c0 -10.7499695 8.933136 -19.46457 19.952759 -19.46457l0 0c5.2917786 0 10.366852 2.0507202 14.108704 5.70105c3.7418823 3.650299 5.8440247 8.601196 5.8440247 13.763519l0 0c0 10.7499695 -8.933136 19.46457 -19.952728 19.46457l0 0c-11.019623 0 -19.952759 -8.7146 -19.952759 -19.46457z" fill-rule="nonzero"></path><path stroke="#000000" stroke-width="2.0" stroke-linejoin="round" stroke-linecap="butt" d="m314.57285 299.00262l0 0c0 -10.7499695 8.933136 -19.46457 19.952759 -19.46457l0 0c5.2917786 0 10.366852 2.0507202 14.108704 5.70105c3.7418823 3.650299 5.8440247 8.601196 5.8440247 13.763519l0 0c0 10.7499695 -8.933136 19.46457 -19.952728 19.46457l0 0c-11.019623 0 -19.952759 -8.7146 -19.952759 -19.46457z" fill-rule="nonzero"></path><path fill="#000000" d="m330.8075 305.1667l0 -13.59375l5.109375 0q1.546875 0 2.484375 0.40625q0.953125 0.40625 1.484375 1.265625q0.53125 0.859375 0.53125 1.796875q0 0.875 -0.46875 1.65625q-0.46875 0.765625 -1.4375 1.234375q1.234375 0.359375 1.890625 1.234375q0.671875 0.875 0.671875 2.0625q0 0.953125 -0.40625 1.78125q-0.390625 0.8125 -0.984375 1.265625q-0.59375 0.4375 -1.5 0.671875q-0.890625 0.21875 -2.1875 0.21875l-5.1875 0zm1.796875 -7.890625l2.9375 0q1.203125 0 1.71875 -0.15625q0.6875 -0.203125 1.03125 -0.671875q0.359375 -0.46875 0.359375 -1.1875q0 -0.671875 -0.328125 -1.1875q-0.328125 -0.515625 -0.9375 -0.703125q-0.59375 -0.203125 -2.0625 -0.203125l-2.71875 0l0 4.109375zm0 6.28125l3.390625 0q0.875 0 1.21875 -0.0625q0.625 -0.109375 1.046875 -0.359375q0.421875 -0.265625 0.6875 -0.765625q0.265625 -0.5 0.265625 -1.140625q0 -0.765625 -0.390625 -1.328125q-0.390625 -0.5625 -1.078125 -0.78125q-0.6875 -0.234375 -1.984375 -0.234375l-3.15625 0l0 4.671875z" fill-rule="nonzero"></path><path fill="#d9ead3" d="m368.6017 299.00262l0 0c0 -10.7499695 8.933136 -19.46457 19.952759 -19.46457l0 0c5.2917786 0 10.366852 2.0507202 14.108704 5.70105c3.7418823 3.650299 5.844055 8.601196 5.844055 13.763519l0 0c0 10.7499695 -8.9331665 19.46457 -19.952759 19.46457l0 0c-11.019623 0 -19.952759 -8.7146 -19.952759 -19.46457z" fill-rule="nonzero"></path><path stroke="#000000" stroke-width="2.0" stroke-linejoin="round" stroke-linecap="butt" d="m368.6017 299.00262l0 0c0 -10.7499695 8.933136 -19.46457 19.952759 -19.46457l0 0c5.2917786 0 10.366852 2.0507202 14.108704 5.70105c3.7418823 3.650299 5.844055 8.601196 5.844055 13.763519l0 0c0 10.7499695 -8.9331665 19.46457 -19.952759 19.46457l0 0c-11.019623 0 -19.952759 -8.7146 -19.952759 -19.46457z" fill-rule="nonzero"></path><path fill="#000000" d="m394.6176 300.40106l1.796875 0.453125q-0.5625 2.21875 -2.03125 3.390625q-1.46875 1.15625 -3.59375 1.15625q-2.203125 0 -3.578125 -0.890625q-1.375 -0.90625 -2.09375 -2.59375q-0.71875 -1.703125 -0.71875 -3.65625q0 -2.125 0.796875 -3.703125q0.8125 -1.578125 2.3125 -2.390625q1.5 -0.828125 3.296875 -0.828125q2.046875 0 3.4375 1.046875q1.390625 1.03125 1.9375 2.90625l-1.765625 0.421875q-0.46875 -1.484375 -1.375 -2.15625q-0.90625 -0.6875 -2.265625 -0.6875q-1.5625 0 -2.625 0.75q-1.046875 0.75 -1.484375 2.03125q-0.421875 1.265625 -0.421875 2.609375q0 1.734375 0.5 3.03125q0.515625 1.28125 1.578125 1.921875q1.078125 0.640625 2.3125 0.640625q1.515625 0 2.5625 -0.859375q1.046875 -0.875 1.421875 -2.59375z" fill-rule="nonzero"></path><path fill="#c9daf8" d="m422.63058 299.00262l0 0c0 -10.7499695 8.933136 -19.46457 19.952759 -19.46457l0 0c5.2917786 0 10.366852 2.0507202 14.108704 5.70105c3.7418823 3.650299 5.844055 8.601196 5.844055 13.763519l0 0c0 10.7499695 -8.9331665 19.46457 -19.952759 19.46457l0 0c-11.019623 0 -19.952759 -8.7146 -19.952759 -19.46457z" fill-rule="nonzero"></path><path stroke="#000000" stroke-width="2.0" stroke-linejoin="round" stroke-linecap="butt" d="m422.63058 299.00262l0 0c0 -10.7499695 8.933136 -19.46457 19.952759 -19.46457l0 0c5.2917786 0 10.366852 2.0507202 14.108704 5.70105c3.7418823 3.650299 5.844055 8.601196 5.844055 13.763519l0 0c0 10.7499695 -8.9331665 19.46457 -19.952759 19.46457l0 0c-11.019623 0 -19.952759 -8.7146 -19.952759 -19.46457z" fill-rule="nonzero"></path><path fill="#000000" d="m437.8496 305.1667l0 -1.671875l6.96875 -8.703125q0.75 -0.9375 1.421875 -1.625l-7.59375 0l0 -1.59375l9.734375 0l0 1.59375l-7.625 9.4375l-0.828125 0.953125l8.6875 0l0 1.609375l-10.765625 0z" fill-rule="nonzero"></path><path fill="#000000" fill-opacity="0.0" d="m361.54004 186.70866l-81.043335 92.82939" fill-rule="nonzero"></path><path stroke="#000000" stroke-width="2.0" stroke-linejoin="round" stroke-linecap="butt" d="m361.54004 186.70866l-81.043335 92.82939" fill-rule="nonzero"></path><path fill="#000000" fill-opacity="0.0" d="m361.54004 186.70866l-27.014435 92.82939" fill-rule="nonzero"></path><path stroke="#000000" stroke-width="2.0" stroke-linejoin="round" stroke-linecap="butt" d="m361.54004 186.70866l-27.014435 92.82939" fill-rule="nonzero"></path><path fill="#000000" fill-opacity="0.0" d="m361.54004 186.70866l27.014435 92.82939" fill-rule="nonzero"></path><path stroke="#000000" stroke-width="2.0" stroke-linejoin="round" stroke-linecap="butt" d="m361.54004 186.70866l27.014435 92.82939" fill-rule="nonzero"></path><path fill="#000000" fill-opacity="0.0" d="m361.54004 186.70866l81.043304 92.82939" fill-rule="nonzero"></path><path stroke="#000000" stroke-width="2.0" stroke-linejoin="round" stroke-linecap="butt" d="m361.54004 186.70866l81.043304 92.82939" fill-rule="nonzero"></path><path fill="#000000" fill-opacity="0.0" d="m762.084 77.580055l50.236206 77.10236" fill-rule="nonzero"></path><path stroke="#000000" stroke-width="2.0" stroke-linejoin="round" stroke-linecap="butt" d="m762.084 77.580055l50.236206 77.10236" fill-rule="nonzero"></path><path fill="#000000" fill-opacity="0.0" d="m833.97766 154.68242l79.40161 0l0 48.0l-79.40161 0z" fill-rule="nonzero"></path><path fill="#000000" fill-opacity="0.0" d="m873.47375 255.37796l39.905518 0l0 48.0l-39.905518 0z" fill-rule="nonzero"></path><path fill="#000000" d="m883.9269 281.2686l0 -13.59375l1.84375 0l7.140625 10.671875l0 -10.671875l1.71875 0l0 13.59375l-1.84375 0l-7.140625 -10.6875l0 10.6875l-1.71875 0z" fill-rule="nonzero"></path><path fill="#000000" fill-opacity="0.0" d="m873.47375 143.2441l39.905518 0l0 48.0l-39.905518 0z" fill-rule="nonzero"></path><path fill="#000000" d="m883.9269 169.13472l0 -13.59375l1.84375 0l7.140625 10.671875l0 -10.671875l1.71875 0l0 13.59375l-1.84375 0l-7.140625 -10.6875l0 10.6875l-1.71875 0z" fill-rule="nonzero"></path><path fill="#000000" fill-opacity="0.0" d="m873.47375 34.115486l39.905518 0l0 48.0l-39.905518 0z" fill-rule="nonzero"></path><path fill="#000000" d="m883.9269 60.00611l0 -13.59375l1.84375 0l7.140625 10.671875l0 -10.671875l1.71875 0l0 13.59375l-1.84375 0l-7.140625 -10.6875l0 10.6875l-1.71875 0z" fill-rule="nonzero"></path><path fill="#f4cccc" d="m157.3727 429.37534l0 0c0 -10.75 8.9331665 -19.46457 19.952759 -19.46457l0 0c5.291809 0 10.366867 2.0507202 14.108734 5.7010193c3.741867 3.6503296 5.8440247 8.601227 5.8440247 13.76355l0 0c0 10.7499695 -8.933151 19.46457 -19.952759 19.46457l0 0c-11.019592 0 -19.952759 -8.7146 -19.952759 -19.46457z" fill-rule="nonzero"></path><path stroke="#000000" stroke-width="2.0" stroke-linejoin="round" stroke-linecap="butt" d="m157.3727 429.37534l0 0c0 -10.75 8.9331665 -19.46457 19.952759 -19.46457l0 0c5.291809 0 10.366867 2.0507202 14.108734 5.7010193c3.741867 3.6503296 5.8440247 8.601227 5.8440247 13.76355l0 0c0 10.7499695 -8.933151 19.46457 -19.952759 19.46457l0 0c-11.019592 0 -19.952759 -8.7146 -19.952759 -19.46457z" fill-rule="nonzero"></path><path fill="#000000" d="m172.18549 435.5394l5.234375 -13.59375l1.9375 0l5.5625 13.59375l-2.046875 0l-1.59375 -4.125l-5.6875 0l-1.484375 4.125l-1.921875 0zm3.921875 -5.578125l4.609375 0l-1.40625 -3.78125q-0.65625 -1.703125 -0.96875 -2.8125q-0.265625 1.3125 -0.734375 2.59375l-1.5 4.0z" fill-rule="nonzero"></path><path fill="#fff2cc" d="m382.6404 429.37534l0 0c0 -10.75 8.9331665 -19.46457 19.952759 -19.46457l0 0c5.291809 0 10.366882 2.0507202 14.108734 5.7010193c3.7418823 3.6503296 5.8440247 8.601227 5.8440247 13.76355l0 0c0 10.7499695 -8.933136 19.46457 -19.952759 19.46457l0 0c-11.019592 0 -19.952759 -8.7146 -19.952759 -19.46457z" fill-rule="nonzero"></path><path stroke="#000000" stroke-width="2.0" stroke-linejoin="round" stroke-linecap="butt" d="m382.6404 429.37534l0 0c0 -10.75 8.9331665 -19.46457 19.952759 -19.46457l0 0c5.291809 0 10.366882 2.0507202 14.108734 5.7010193c3.7418823 3.6503296 5.8440247 8.601227 5.8440247 13.76355l0 0c0 10.7499695 -8.933136 19.46457 -19.952759 19.46457l0 0c-11.019592 0 -19.952759 -8.7146 -19.952759 -19.46457z" fill-rule="nonzero"></path><path fill="#000000" d="m398.87506 435.5394l0 -13.59375l5.109375 0q1.546875 0 2.484375 0.40625q0.953125 0.40625 1.484375 1.265625q0.53125 0.859375 0.53125 1.796875q0 0.875 -0.46875 1.65625q-0.46875 0.765625 -1.4375 1.234375q1.234375 0.359375 1.890625 1.234375q0.671875 0.875 0.671875 2.0625q0 0.953125 -0.40625 1.78125q-0.390625 0.8125 -0.984375 1.265625q-0.59375 0.4375 -1.5 0.671875q-0.890625 0.21875 -2.1875 0.21875l-5.1875 0zm1.796875 -7.890625l2.9375 0q1.203125 0 1.71875 -0.15625q0.6875 -0.203125 1.03125 -0.671875q0.359375 -0.46875 0.359375 -1.1875q0 -0.671875 -0.328125 -1.1875q-0.328125 -0.515625 -0.9375 -0.703125q-0.59375 -0.203125 -2.0625 -0.203125l-2.71875 0l0 4.109375zm0 6.28125l3.390625 0q0.875 0 1.21875 -0.0625q0.625 -0.109375 1.046875 -0.359375q0.421875 -0.265625 0.6875 -0.765625q0.265625 -0.5 0.265625 -1.140625q0 -0.765625 -0.390625 -1.328125q-0.390625 -0.5625 -1.078125 -0.78125q-0.6875 -0.234375 -1.984375 -0.234375l-3.15625 0l0 4.671875z" fill-rule="nonzero"></path><path fill="#d9ead3" d="m613.93964 429.37534l0 0c0 -10.75 8.9331665 -19.46457 19.952759 -19.46457l0 0c5.291809 0 10.366882 2.0507202 14.108704 5.7010193c3.7418823 3.6503296 5.844055 8.601227 5.844055 13.76355l0 0c0 10.7499695 -8.9331665 19.46457 -19.952759 19.46457l0 0c-11.019592 0 -19.952759 -8.7146 -19.952759 -19.46457z" fill-rule="nonzero"></path><path stroke="#000000" stroke-width="2.0" stroke-linejoin="round" stroke-linecap="butt" d="m613.93964 429.37534l0 0c0 -10.75 8.9331665 -19.46457 19.952759 -19.46457l0 0c5.291809 0 10.366882 2.0507202 14.108704 5.7010193c3.7418823 3.6503296 5.844055 8.601227 5.844055 13.76355l0 0c0 10.7499695 -8.9331665 19.46457 -19.952759 19.46457l0 0c-11.019592 0 -19.952759 -8.7146 -19.952759 -19.46457z" fill-rule="nonzero"></path><path fill="#000000" d="m639.9555 430.77377l1.796875 0.453125q-0.5625 2.21875 -2.03125 3.390625q-1.46875 1.15625 -3.59375 1.15625q-2.203125 0 -3.578125 -0.890625q-1.375 -0.90625 -2.09375 -2.59375q-0.71875 -1.703125 -0.71875 -3.65625q0 -2.125 0.796875 -3.703125q0.8125 -1.578125 2.3125 -2.390625q1.5 -0.828125 3.296875 -0.828125q2.046875 0 3.4375 1.046875q1.390625 1.03125 1.9375 2.90625l-1.765625 0.421875q-0.46875 -1.484375 -1.375 -2.15625q-0.90625 -0.6875 -2.265625 -0.6875q-1.5625 0 -2.625 0.75q-1.046875 0.75 -1.484375 2.03125q-0.421875 1.265625 -0.421875 2.609375q0 1.734375 0.5 3.03125q0.515625 1.28125 1.578125 1.921875q1.078125 0.640625 2.3125 0.640625q1.515625 0 2.5625 -0.859375q1.046875 -0.875 1.421875 -2.59375z" fill-rule="nonzero"></path><path fill="#c9daf8" d="m756.1365 429.37534l0 0c0 -10.75 8.9331665 -19.46457 19.952759 -19.46457l0 0c5.291809 0 10.366882 2.0507202 14.108765 5.7010193c3.7418213 3.6503296 5.843994 8.601227 5.843994 13.76355l0 0c0 10.7499695 -8.9331665 19.46457 -19.952759 19.46457l0 0c-11.019592 0 -19.952759 -8.7146 -19.952759 -19.46457z" fill-rule="nonzero"></path><path stroke="#000000" stroke-width="2.0" stroke-linejoin="round" stroke-linecap="butt" d="m756.1365 429.37534l0 0c0 -10.75 8.9331665 -19.46457 19.952759 -19.46457l0 0c5.291809 0 10.366882 2.0507202 14.108765 5.7010193c3.7418213 3.6503296 5.843994 8.601227 5.843994 13.76355l0 0c0 10.7499695 -8.9331665 19.46457 -19.952759 19.46457l0 0c-11.019592 0 -19.952759 -8.7146 -19.952759 -19.46457z" fill-rule="nonzero"></path><path fill="#000000" d="m771.3555 435.5394l0 -1.671875l6.96875 -8.703125q0.75 -0.9375 1.421875 -1.625l-7.59375 0l0 -1.59375l9.734375 0l0 1.59375l-7.625 9.4375l-0.828125 0.953125l8.6875 0l0 1.609375l-10.765625 0z" fill-rule="nonzero"></path><path fill="#fff2cc" d="m124.25984 538.50397l0 0c0 -10.75 8.933151 -19.4646 19.952759 -19.4646l0 0c5.291794 0 10.366852 2.0507202 14.108734 5.70105c3.741867 3.6503296 5.8440247 8.601196 5.8440247 13.76355l0 0c0 10.749939 -8.933151 19.464539 -19.952759 19.464539l0 0c-11.019608 0 -19.952759 -8.7146 -19.952759 -19.464539z" fill-rule="nonzero"></path><path stroke="#000000" stroke-width="2.0" stroke-linejoin="round" stroke-linecap="butt" d="m124.25984 538.50397l0 0c0 -10.75 8.933151 -19.4646 19.952759 -19.4646l0 0c5.291794 0 10.366852 2.0507202 14.108734 5.70105c3.741867 3.6503296 5.8440247 8.601196 5.8440247 13.76355l0 0c0 10.749939 -8.933151 19.464539 -19.952759 19.464539l0 0c-11.019608 0 -19.952759 -8.7146 -19.952759 -19.464539z" fill-rule="nonzero"></path><path fill="#000000" d="m140.49449 544.66797l0 -13.59375l5.109375 0q1.546875 0 2.484375 0.40625q0.953125 0.40625 1.484375 1.265625q0.53125 0.859375 0.53125 1.796875q0 0.875 -0.46875 1.65625q-0.46875 0.765625 -1.4375 1.234375q1.234375 0.359375 1.890625 1.234375q0.671875 0.875 0.671875 2.0625q0 0.953125 -0.40625 1.78125q-0.390625 0.8125 -0.984375 1.265625q-0.59375 0.4375 -1.5 0.671875q-0.890625 0.21875 -2.1875 0.21875l-5.1875 0zm1.796875 -7.890625l2.9375 0q1.203125 0 1.71875 -0.15625q0.6875 -0.203125 1.03125 -0.671875q0.359375 -0.46875 0.359375 -1.1875q0 -0.671875 -0.328125 -1.1875q-0.328125 -0.515625 -0.9375 -0.703125q-0.59375 -0.203125 -2.0625 -0.203125l-2.71875 0l0 4.109375zm0 6.28125l3.390625 0q0.875 0 1.21875 -0.0625q0.625 -0.109375 1.046875 -0.359375q0.421875 -0.265625 0.6875 -0.765625q0.265625 -0.5 0.265625 -1.140625q0 -0.765625 -0.390625 -1.328125q-0.390625 -0.5625 -1.078125 -0.78125q-0.6875 -0.234375 -1.984375 -0.234375l-3.15625 0l0 4.671875z" fill-rule="nonzero"></path><path fill="#d9ead3" d="m178.28871 538.50397l0 0c0 -10.75 8.933151 -19.4646 19.952759 -19.4646l0 0c5.291794 0 10.366867 2.0507202 14.108734 5.70105c3.741867 3.6503296 5.8440247 8.601196 5.8440247 13.76355l0 0c0 10.749939 -8.933151 19.464539 -19.952759 19.464539l0 0c-11.019608 0 -19.952759 -8.7146 -19.952759 -19.464539z" fill-rule="nonzero"></path><path stroke="#000000" stroke-width="2.0" stroke-linejoin="round" stroke-linecap="butt" d="m178.28871 538.50397l0 0c0 -10.75 8.933151 -19.4646 19.952759 -19.4646l0 0c5.291794 0 10.366867 2.0507202 14.108734 5.70105c3.741867 3.6503296 5.8440247 8.601196 5.8440247 13.76355l0 0c0 10.749939 -8.933151 19.464539 -19.952759 19.464539l0 0c-11.019608 0 -19.952759 -8.7146 -19.952759 -19.464539z" fill-rule="nonzero"></path><path fill="#000000" d="m204.30461 539.90234l1.796875 0.453125q-0.5625 2.21875 -2.03125 3.390625q-1.46875 1.15625 -3.59375 1.15625q-2.203125 0 -3.578125 -0.890625q-1.375 -0.90625 -2.09375 -2.59375q-0.71875 -1.703125 -0.71875 -3.65625q0 -2.125 0.796875 -3.703125q0.8125 -1.578125 2.3125 -2.390625q1.5 -0.828125 3.296875 -0.828125q2.046875 0 3.4375 1.046875q1.390625 1.03125 1.9375 2.90625l-1.765625 0.421875q-0.46875 -1.484375 -1.375 -2.15625q-0.90625 -0.6875 -2.265625 -0.6875q-1.5625 0 -2.625 0.75q-1.046875 0.75 -1.484375 2.03125q-0.421875 1.265625 -0.421875 2.609375q0 1.734375 0.5 3.03125q0.515625 1.28125 1.578125 1.921875q1.078125 0.640625 2.3125 0.640625q1.515625 0 2.5625 -0.859375q1.046875 -0.875 1.421875 -2.59375z" fill-rule="nonzero"></path><path fill="#c9daf8" d="m232.31758 538.50397l0 0c0 -10.75 8.933151 -19.4646 19.952759 -19.4646l0 0c5.291794 0 10.366867 2.0507202 14.108719 5.70105c3.7418823 3.6503296 5.8440247 8.601196 5.8440247 13.76355l0 0c0 10.749939 -8.933136 19.464539 -19.952744 19.464539l0 0c-11.019608 0 -19.952759 -8.7146 -19.952759 -19.464539z" fill-rule="nonzero"></path><path stroke="#000000" stroke-width="2.0" stroke-linejoin="round" stroke-linecap="butt" d="m232.31758 538.50397l0 0c0 -10.75 8.933151 -19.4646 19.952759 -19.4646l0 0c5.291794 0 10.366867 2.0507202 14.108719 5.70105c3.7418823 3.6503296 5.8440247 8.601196 5.8440247 13.76355l0 0c0 10.749939 -8.933136 19.464539 -19.952744 19.464539l0 0c-11.019608 0 -19.952759 -8.7146 -19.952759 -19.464539z" fill-rule="nonzero"></path><path fill="#000000" d="m247.5366 544.66797l0 -1.671875l6.96875 -8.703125q0.75 -0.9375 1.421875 -1.625l-7.59375 0l0 -1.59375l9.73439 0l0 1.59375l-7.6250153 9.4375l-0.828125 0.953125l8.687515 0l0 1.609375l-10.76564 0z" fill-rule="nonzero"></path><path fill="#f4cccc" d="m301.56366 538.50397l0 0c0 -10.75 8.933136 -19.4646 19.952759 -19.4646l0 0c5.2917786 0 10.366852 2.0507202 14.108704 5.70105c3.7418823 3.6503296 5.8440247 8.601196 5.8440247 13.76355l0 0c0 10.749939 -8.933136 19.464539 -19.952728 19.464539l0 0c-11.019623 0 -19.952759 -8.7146 -19.952759 -19.464539z" fill-rule="nonzero"></path><path stroke="#000000" stroke-width="2.0" stroke-linejoin="round" stroke-linecap="butt" d="m301.56366 538.50397l0 0c0 -10.75 8.933136 -19.4646 19.952759 -19.4646l0 0c5.2917786 0 10.366852 2.0507202 14.108704 5.70105c3.7418823 3.6503296 5.8440247 8.601196 5.8440247 13.76355l0 0c0 10.749939 -8.933136 19.464539 -19.952728 19.464539l0 0c-11.019623 0 -19.952759 -8.7146 -19.952759 -19.464539z" fill-rule="nonzero"></path><path fill="#000000" d="m316.37643 544.66797l5.234375 -13.59375l1.9375 0l5.5625 13.59375l-2.046875 0l-1.59375 -4.125l-5.6875 0l-1.484375 4.125l-1.921875 0zm3.921875 -5.578125l4.609375 0l-1.40625 -3.78125q-0.65625 -1.703125 -0.96875 -2.8125q-0.265625 1.3125 -0.734375 2.59375l-1.5 4.0z" fill-rule="nonzero"></path><path fill="#d9ead3" d="m409.6214 538.50397l0 0c0 -10.75 8.933136 -19.4646 19.952759 -19.4646l0 0c5.2917786 0 10.366852 2.0507202 14.108704 5.70105c3.7418823 3.6503296 5.844055 8.601196 5.844055 13.76355l0 0c0 10.749939 -8.9331665 19.464539 -19.952759 19.464539l0 0c-11.019623 0 -19.952759 -8.7146 -19.952759 -19.464539z" fill-rule="nonzero"></path><path stroke="#000000" stroke-width="2.0" stroke-linejoin="round" stroke-linecap="butt" d="m409.6214 538.50397l0 0c0 -10.75 8.933136 -19.4646 19.952759 -19.4646l0 0c5.2917786 0 10.366852 2.0507202 14.108704 5.70105c3.7418823 3.6503296 5.844055 8.601196 5.844055 13.76355l0 0c0 10.749939 -8.9331665 19.464539 -19.952759 19.464539l0 0c-11.019623 0 -19.952759 -8.7146 -19.952759 -19.464539z" fill-rule="nonzero"></path><path fill="#000000" d="m435.6373 539.90234l1.796875 0.453125q-0.5625 2.21875 -2.03125 3.390625q-1.46875 1.15625 -3.59375 1.15625q-2.203125 0 -3.578125 -0.890625q-1.375 -0.90625 -2.09375 -2.59375q-0.71875 -1.703125 -0.71875 -3.65625q0 -2.125 0.796875 -3.703125q0.8125 -1.578125 2.3125 -2.390625q1.5 -0.828125 3.296875 -0.828125q2.046875 0 3.4375 1.046875q1.390625 1.03125 1.9375 2.90625l-1.765625 0.421875q-0.46875 -1.484375 -1.375 -2.15625q-0.90625 -0.6875 -2.265625 -0.6875q-1.5625 0 -2.625 0.75q-1.046875 0.75 -1.484375 2.03125q-0.421875 1.265625 -0.421875 2.609375q0 1.734375 0.5 3.03125q0.515625 1.28125 1.578125 1.921875q1.078125 0.640625 2.3125 0.640625q1.515625 0 2.5625 -0.859375q1.046875 -0.875 1.421875 -2.59375z" fill-rule="nonzero"></path><path fill="#c9daf8" d="m463.65027 538.50397l0 0c0 -10.75 8.933136 -19.4646 19.952759 -19.4646l0 0c5.2917786 0 10.366852 2.0507202 14.108734 5.70105c3.7418518 3.6503296 5.8440247 8.601196 5.8440247 13.76355l0 0c0 10.749939 -8.9331665 19.464539 -19.952759 19.464539l0 0c-11.019623 0 -19.952759 -8.7146 -19.952759 -19.464539z" fill-rule="nonzero"></path><path stroke="#000000" stroke-width="2.0" stroke-linejoin="round" stroke-linecap="butt" d="m463.65027 538.50397l0 0c0 -10.75 8.933136 -19.4646 19.952759 -19.4646l0 0c5.2917786 0 10.366852 2.0507202 14.108734 5.70105c3.7418518 3.6503296 5.8440247 8.601196 5.8440247 13.76355l0 0c0 10.749939 -8.9331665 19.464539 -19.952759 19.464539l0 0c-11.019623 0 -19.952759 -8.7146 -19.952759 -19.464539z" fill-rule="nonzero"></path><path fill="#000000" d="m478.8693 544.66797l0 -1.671875l6.96875 -8.703125q0.75 -0.9375 1.421875 -1.625l-7.59375 0l0 -1.59375l9.734375 0l0 1.59375l-7.625 9.4375l-0.828125 0.953125l8.6875 0l0 1.609375l-10.765625 0z" fill-rule="nonzero"></path><path fill="#f4cccc" d="m532.8963 538.50397l0 0c0 -10.75 8.9331665 -19.4646 19.952759 -19.4646l0 0c5.291809 0 10.366882 2.0507202 14.108765 5.70105c3.7418823 3.6503296 5.843994 8.601196 5.843994 13.76355l0 0c0 10.749939 -8.933105 19.464539 -19.952759 19.464539l0 0c-11.019592 0 -19.952759 -8.7146 -19.952759 -19.464539z" fill-rule="nonzero"></path><path stroke="#000000" stroke-width="2.0" stroke-linejoin="round" stroke-linecap="butt" d="m532.8963 538.50397l0 0c0 -10.75 8.9331665 -19.4646 19.952759 -19.4646l0 0c5.291809 0 10.366882 2.0507202 14.108765 5.70105c3.7418823 3.6503296 5.843994 8.601196 5.843994 13.76355l0 0c0 10.749939 -8.933105 19.464539 -19.952759 19.464539l0 0c-11.019592 0 -19.952759 -8.7146 -19.952759 -19.464539z" fill-rule="nonzero"></path><path fill="#000000" d="m547.7091 544.66797l5.234375 -13.59375l1.9375 0l5.5625 13.59375l-2.046875 0l-1.59375 -4.125l-5.6875 0l-1.484375 4.125l-1.921875 0zm3.921875 -5.578125l4.609375 0l-1.40625 -3.78125q-0.65625 -1.703125 -0.96875 -2.8125q-0.265625 1.3125 -0.734375 2.59375l-1.5 4.0z" fill-rule="nonzero"></path><path fill="#fff2cc" d="m586.9252 538.50397l0 0c0 -10.75 8.9331665 -19.4646 19.952759 -19.4646l0 0c5.291809 0 10.366882 2.0507202 14.108765 5.70105c3.7418823 3.6503296 5.843994 8.601196 5.843994 13.76355l0 0c0 10.749939 -8.933105 19.464539 -19.952759 19.464539l0 0c-11.019592 0 -19.952759 -8.7146 -19.952759 -19.464539z" fill-rule="nonzero"></path><path stroke="#000000" stroke-width="2.0" stroke-linejoin="round" stroke-linecap="butt" d="m586.9252 538.50397l0 0c0 -10.75 8.9331665 -19.4646 19.952759 -19.4646l0 0c5.291809 0 10.366882 2.0507202 14.108765 5.70105c3.7418823 3.6503296 5.843994 8.601196 5.843994 13.76355l0 0c0 10.749939 -8.933105 19.464539 -19.952759 19.464539l0 0c-11.019592 0 -19.952759 -8.7146 -19.952759 -19.464539z" fill-rule="nonzero"></path><path fill="#000000" d="m603.15985 544.66797l0 -13.59375l5.109375 0q1.546875 0 2.484375 0.40625q0.953125 0.40625 1.484375 1.265625q0.53125 0.859375 0.53125 1.796875q0 0.875 -0.46875 1.65625q-0.46875 0.765625 -1.4375 1.234375q1.234375 0.359375 1.890625 1.234375q0.671875 0.875 0.671875 2.0625q0 0.953125 -0.40625 1.78125q-0.390625 0.8125 -0.984375 1.265625q-0.59375 0.4375 -1.5 0.671875q-0.890625 0.21875 -2.1875 0.21875l-5.1875 0zm1.796875 -7.890625l2.9375 0q1.203125 0 1.71875 -0.15625q0.6875 -0.203125 1.03125 -0.671875q0.359375 -0.46875 0.359375 -1.1875q0 -0.671875 -0.328125 -1.1875q-0.328125 -0.515625 -0.9375 -0.703125q-0.59375 -0.203125 -2.0625 -0.203125l-2.71875 0l0 4.109375zm0 6.28125l3.390625 0q0.875 0 1.21875 -0.0625q0.625 -0.109375 1.046875 -0.359375q0.421875 -0.265625 0.6875 -0.765625q0.265625 -0.5 0.265625 -1.140625q0 -0.765625 -0.390625 -1.328125q-0.390625 -0.5625 -1.078125 -0.78125q-0.6875 -0.234375 -1.984375 -0.234375l-3.15625 0l0 4.671875z" fill-rule="nonzero"></path><path fill="#c9daf8" d="m694.9829 538.50397l0 0c0 -10.75 8.9331665 -19.4646 19.952759 -19.4646l0 0c5.291809 0 10.366882 2.0507202 14.108765 5.70105c3.7418823 3.6503296 5.843994 8.601196 5.843994 13.76355l0 0c0 10.749939 -8.933105 19.464539 -19.952759 19.464539l0 0c-11.019592 0 -19.952759 -8.7146 -19.952759 -19.464539z" fill-rule="nonzero"></path><path stroke="#000000" stroke-width="2.0" stroke-linejoin="round" stroke-linecap="butt" d="m694.9829 538.50397l0 0c0 -10.75 8.9331665 -19.4646 19.952759 -19.4646l0 0c5.291809 0 10.366882 2.0507202 14.108765 5.70105c3.7418823 3.6503296 5.843994 8.601196 5.843994 13.76355l0 0c0 10.749939 -8.933105 19.464539 -19.952759 19.464539l0 0c-11.019592 0 -19.952759 -8.7146 -19.952759 -19.464539z" fill-rule="nonzero"></path><path fill="#000000" d="m710.20197 544.66797l0 -1.671875l6.96875 -8.703125q0.75 -0.9375 1.421875 -1.625l-7.59375 0l0 -1.59375l9.734375 0l0 1.59375l-7.625 9.4375l-0.828125 0.953125l8.6875 0l0 1.609375l-10.765625 0z" fill-rule="nonzero"></path><path fill="#000000" fill-opacity="0.0" d="m177.32545 448.8399l-33.112854 70.19946" fill-rule="nonzero"></path><path stroke="#000000" stroke-width="2.0" stroke-linejoin="round" stroke-linecap="butt" d="m177.32545 448.8399l-33.112854 70.19946" fill-rule="nonzero"></path><path fill="#000000" fill-opacity="0.0" d="m177.32545 448.8399l20.916016 70.19946" fill-rule="nonzero"></path><path stroke="#000000" stroke-width="2.0" stroke-linejoin="round" stroke-linecap="butt" d="m177.32545 448.8399l20.916016 70.19946" fill-rule="nonzero"></path><path fill="#000000" fill-opacity="0.0" d="m177.65617 449.0866l74.61417 69.95276" fill-rule="nonzero"></path><path stroke="#000000" stroke-width="2.0" stroke-linejoin="round" stroke-linecap="butt" d="m177.65617 449.0866l74.61417 69.95276" fill-rule="nonzero"></path><path fill="#000000" fill-opacity="0.0" d="m402.59317 448.8399l-81.07675 70.19946" fill-rule="nonzero"></path><path stroke="#000000" stroke-width="2.0" stroke-linejoin="round" stroke-linecap="butt" d="m402.59317 448.8399l-81.07675 70.19946" fill-rule="nonzero"></path><path fill="#000000" fill-opacity="0.0" d="m404.18832 448.11023l25.385834 70.92914" fill-rule="nonzero"></path><path stroke="#000000" stroke-width="2.0" stroke-linejoin="round" stroke-linecap="butt" d="m404.18832 448.11023l25.385834 70.92914" fill-rule="nonzero"></path><path fill="#000000" fill-opacity="0.0" d="m404.20145 447.10236l79.40158 71.93701" fill-rule="nonzero"></path><path stroke="#000000" stroke-width="2.0" stroke-linejoin="round" stroke-linecap="butt" d="m404.20145 447.10236l79.40158 71.93701" fill-rule="nonzero"></path><path fill="#000000" fill-opacity="0.0" d="m633.8924 448.8399l-81.043335 70.19946" fill-rule="nonzero"></path><path stroke="#000000" stroke-width="2.0" stroke-linejoin="round" stroke-linecap="butt" d="m633.8924 448.8399l-81.043335 70.19946" fill-rule="nonzero"></path><path fill="#000000" fill-opacity="0.0" d="m633.8924 448.8399l-27.014465 70.19946" fill-rule="nonzero"></path><path stroke="#000000" stroke-width="2.0" stroke-linejoin="round" stroke-linecap="butt" d="m633.8924 448.8399l-27.014465 70.19946" fill-rule="nonzero"></path><path fill="#000000" fill-opacity="0.0" d="m634.7152 449.0866l80.22046 69.95276" fill-rule="nonzero"></path><path stroke="#000000" stroke-width="2.0" stroke-linejoin="round" stroke-linecap="butt" d="m634.7152 449.0866l80.22046 69.95276" fill-rule="nonzero"></path><path fill="#d9ead3" d="m304.6132 670.26245l0 0c0 -10.749939 8.9331665 -19.464539 19.952759 -19.464539l0 0c5.291809 0 10.366852 2.0507202 14.108734 5.70105c3.7418518 3.6502686 5.8440247 8.601196 5.8440247 13.763489l0 0c0 10.75 -8.9331665 19.4646 -19.952759 19.4646l0 0c-11.019592 0 -19.952759 -8.7146 -19.952759 -19.4646z" fill-rule="nonzero"></path><path stroke="#000000" stroke-width="2.0" stroke-linejoin="round" stroke-linecap="butt" d="m304.6132 670.26245l0 0c0 -10.749939 8.9331665 -19.464539 19.952759 -19.464539l0 0c5.291809 0 10.366852 2.0507202 14.108734 5.70105c3.7418518 3.6502686 5.8440247 8.601196 5.8440247 13.763489l0 0c0 10.75 -8.9331665 19.4646 -19.952759 19.4646l0 0c-11.019592 0 -19.952759 -8.7146 -19.952759 -19.4646z" fill-rule="nonzero"></path><path fill="#000000" d="m330.6291 671.6609l1.796875 0.453125q-0.5625 2.21875 -2.03125 3.390625q-1.46875 1.15625 -3.59375 1.15625q-2.203125 0 -3.578125 -0.890625q-1.375 -0.90625 -2.09375 -2.59375q-0.71875 -1.703125 -0.71875 -3.65625q0 -2.125 0.796875 -3.703125q0.8125 -1.578125 2.3125 -2.390625q1.5 -0.828125 3.296875 -0.828125q2.046875 0 3.4375 1.046875q1.390625 1.03125 1.9375 2.90625l-1.765625 0.421875q-0.46875 -1.484375 -1.375 -2.15625q-0.90625 -0.6875 -2.265625 -0.6875q-1.5625 0 -2.625 0.75q-1.046875 0.75 -1.484375 2.03125q-0.421875 1.265625 -0.421875 2.609375q0 1.734375 0.5 3.03125q0.515625 1.28125 1.578125 1.921875q1.078125 0.640625 2.3125 0.640625q1.515625 0 2.5625 -0.859375q1.046875 -0.875 1.421875 -2.59375z" fill-rule="nonzero"></path><path fill="#c9daf8" d="m358.64206 670.26245l0 0c0 -10.749939 8.9331665 -19.464539 19.952759 -19.464539l0 0c5.291809 0 10.366852 2.0507202 14.108734 5.70105c3.7418518 3.6502686 5.8440247 8.601196 5.8440247 13.763489l0 0c0 10.75 -8.9331665 19.4646 -19.952759 19.4646l0 0c-11.019592 0 -19.952759 -8.7146 -19.952759 -19.4646z" fill-rule="nonzero"></path><path stroke="#000000" stroke-width="2.0" stroke-linejoin="round" stroke-linecap="butt" d="m358.64206 670.26245l0 0c0 -10.749939 8.9331665 -19.464539 19.952759 -19.464539l0 0c5.291809 0 10.366852 2.0507202 14.108734 5.70105c3.7418518 3.6502686 5.8440247 8.601196 5.8440247 13.763489l0 0c0 10.75 -8.9331665 19.4646 -19.952759 19.4646l0 0c-11.019592 0 -19.952759 -8.7146 -19.952759 -19.4646z" fill-rule="nonzero"></path><path fill="#000000" d="m373.86108 676.4265l0 -1.671875l6.96875 -8.703125q0.75 -0.9375 1.421875 -1.625l-7.59375 0l0 -1.59375l9.734375 0l0 1.59375l-7.625 9.4375l-0.828125 0.953125l8.6875 0l0 1.609375l-10.765625 0z" fill-rule="nonzero"></path><path fill="#000000" fill-opacity="0.0" d="m321.51642 557.9685l3.04953 92.82941" fill-rule="nonzero"></path><path stroke="#000000" stroke-width="2.0" stroke-linejoin="round" stroke-linecap="butt" d="m321.51642 557.9685l3.04953 92.82941" fill-rule="nonzero"></path><path fill="#000000" fill-opacity="0.0" d="m321.51642 557.9685l57.0784 92.82941" fill-rule="nonzero"></path><path stroke="#000000" stroke-width="2.0" stroke-linejoin="round" stroke-linecap="butt" d="m321.51642 557.9685l57.0784 92.82941" fill-rule="nonzero"></path><path fill="#000000" fill-opacity="0.0" d="m776.08923 448.8399l50.236206 77.102356" fill-rule="nonzero"></path><path stroke="#000000" stroke-width="2.0" stroke-linejoin="round" stroke-linecap="butt" d="m776.08923 448.8399l50.236206 77.102356" fill-rule="nonzero"></path><path fill="#000000" fill-opacity="0.0" d="m847.9829 525.94226l79.40161 0l0 48.0l-79.40161 0z" fill-rule="nonzero"></path><path fill="#000000" fill-opacity="0.0" d="m870.3061 626.6378l57.07086 0l0 48.0l-57.07086 0z" fill-rule="nonzero"></path><path fill="#000000" d="m880.7592 652.52844l0 -13.59375l1.84375 0l7.140625 10.671875l0 -10.671875l1.71875 0l0 13.59375l-1.84375 0l-7.140625 -10.6875l0 10.6875l-1.71875 0zm12.629211 -4.078125l0 -1.6875l5.125 0l0 1.6875l-5.125 0zm15.1657715 2.46875l0 1.609375l-8.984375 0q-0.015625 -0.609375 0.1875 -1.15625q0.34375 -0.921875 1.09375 -1.8125q0.765625 -0.890625 2.1875 -2.0625q2.21875 -1.8125 3.0 -2.875q0.78125 -1.0625 0.78125 -2.015625q0 -0.984375 -0.71875 -1.671875q-0.703125 -0.6875 -1.84375 -0.6875q-1.203125 0 -1.9375 0.734375q-0.71875 0.71875 -0.71875 2.0l-1.71875 -0.171875q0.171875 -1.921875 1.328125 -2.921875q1.15625 -1.015625 3.09375 -1.015625q1.953125 0 3.09375 1.09375q1.140625 1.078125 1.140625 2.6875q0 0.8125 -0.34375 1.609375q-0.328125 0.78125 -1.109375 1.65625q-0.765625 0.859375 -2.5625 2.390625q-1.5 1.265625 -1.9375 1.71875q-0.421875 0.4375 -0.703125 0.890625l6.671875 0z" fill-rule="nonzero"></path><path fill="#000000" fill-opacity="0.0" d="m877.1483 514.50397l50.236206 0l0 48.0l-50.236206 0z" fill-rule="nonzero"></path><path fill="#000000" d="m887.60144 540.3946l0 -13.59375l1.84375 0l7.140625 10.671875l0 -10.671875l1.71875 0l0 13.59375l-1.84375 0l-7.140625 -10.6875l0 10.6875l-1.71875 0zm12.62915 -4.078125l0 -1.6875l5.125 0l0 1.6875l-5.125 0zm12.6814575 4.078125l-1.671875 0l0 -10.640625q-0.59375 0.578125 -1.578125 1.15625q-0.984375 0.5625 -1.765625 0.859375l0 -1.625q1.40625 -0.65625 2.453125 -1.59375q1.046875 -0.9375 1.484375 -1.8125l1.078125 0l0 13.65625z" fill-rule="nonzero"></path><path fill="#000000" fill-opacity="0.0" d="m887.479 405.37534l39.905518 0l0 48.0l-39.905518 0z" fill-rule="nonzero"></path><path fill="#000000" d="m897.9321 431.26596l0 -13.59375l1.84375 0l7.140625 10.671875l0 -10.671875l1.71875 0l0 13.59375l-1.84375 0l-7.140625 -10.6875l0 10.6875l-1.71875 0z" fill-rule="nonzero"></path><path fill="#000000" fill-opacity="0.0" d="m776.08923 154.68242l79.40155 0l0 38.929123l-79.40155 0z" fill-rule="nonzero"></path><path fill="#000000" d="m786.808 180.57304l0 -1.90625l1.90625 0l0 1.90625l-1.90625 0zm5.1832886 0l0 -1.90625l1.90625 0l0 1.90625l-1.90625 0zm5.1833496 0l0 -1.90625l1.90625 0l0 1.90625l-1.90625 0z" fill-rule="nonzero"></path><path fill="#000000" fill-opacity="0.0" d="m775.2546 535.0131l81.07086 0l0 38.92914l-81.07086 0z" fill-rule="nonzero"></path><path fill="#000000" d="m785.9733 560.90375l0 -1.90625l1.90625 0l0 1.90625l-1.90625 0zm5.1833496 0l0 -1.90625l1.90625 0l0 1.90625l-1.90625 0zm5.1832886 0l0 -1.90625l1.90625 0l0 1.90625l-1.90625 0z" fill-rule="nonzero"></path></g></svg>

